<?xml version="1.0" standalone="no"?>
<!DOCTYPE svg
  PUBLIC '-//W3C//DTD SVG 1.1//EN'
  'http://www.w3.org/Graphics/SVG/1.1/DTD/svg11.dtd'><svg version="1.1" xmlns="http://www.w3.org/2000/svg"><defs><font horiz-adv-x="0" id="font"><font-face ascent="750" bbox="-245 -272 1154 966" cap-height="700" descent="-250" font-family="WEB Regular Regular" font-stretch="normal" font-style="normal" font-weight="700" units-per-em="1000" x-height="441" /><missing-glyph d="M292 202 309 202Q318 202 320.5 195.5Q323 189 323 184V158Q323 153 320.5 147Q318 141 309 141H292ZM460 393Q460 404 454.5 410.5Q449 417 437 417H428Q416 417 410 410.5Q404 404 404 393V373Q404 362 410 355.5Q416 349 428 349H437Q449 349 454.5 355.5Q460 362 460 373ZM65 42 93 42V202H123V228H35V202H65ZM237 228 208 228L191 151L171 228H141L174 107V42H205V107ZM380 42 465 42V69H410V123H442V150H410V202H465V228H380ZM264 42 292 42V113H316Q332 113 342 124.5Q352 136 352 154V187Q352 206 342 217Q332 228 316 228H264ZM434 470Q445 484 452.5 503Q460 522 460 551V567Q460 609 434 634Q408 659 373 659H356Q321 659 294.5 634Q268 609 268 567V517H330V559Q330 572 336 585.5Q342 599 363 599H366Q386 599 391.5 585.5Q397 572 397 559V552Q396 522 376 495L298 391Q283 371 276 354Q269 337 269 313V270H461V331H339V335Q339 339 342 345.5Q345 352 355 365ZM178 270 244 270L201 657H83L40 270H105L112 347H170ZM415 392Q415 407 429 407H435Q449 407 449 392V388H438V389Q438 392 437.5 394.5Q437 397 432 397Q426 397 426 389V377Q426 369 432 369Q437 369 437.5 371.5Q438 374 438 377V378H449V374Q449 359 435 359H429Q415 359 415 374ZM0 671Q0 683 8 691.5Q16 700 28 700H473Q484 700 492 691.5Q500 683 500 671V29Q500 17 492 8.5Q484 0 473 0H28Q16 0 8 8.5Q0 17 0 29ZM164 408 118 408L136 604H146Z" horiz-adv-x="500" /><glyph d="" glyph-name=".null" horiz-adv-x="0" unicode="" /><glyph d="" glyph-name="nonmarkingreturn" horiz-adv-x="250" unicode="" /><glyph d="" glyph-name="space" horiz-adv-x="200" unicode=" " /><glyph d="M66 48Q66 74 83.5 91.5Q101 109 126 109Q152 109 169.5 91.5Q187 74 187 48Q187 23 169.5 5.5Q152 -12 126 -12Q101 -12 83.5 5.5Q66 23 66 48ZM95 223 92 700H156L153 223Z" glyph-name="exclam" horiz-adv-x="251" unicode="!" /><glyph d="M69 700 131 700V449H69ZM220 700 282 700V449H220Z" glyph-name="quotedbl" horiz-adv-x="351" unicode="&quot;" /><glyph d="M57 490 145 490V636H202V490H329V636H386V490H475V436H386V303H475V248H386V103H329V248H202V103H145V248H57V303H145V436H57ZM202 303 329 303V436H202Z" glyph-name="numbersign" horiz-adv-x="532" unicode="#" /><glyph d="M425 596Q405 613 377.5 628Q350 643 318 651L291 383L301 378Q383 335 423 287.5Q463 240 463 176Q463 142 449 108.5Q435 75 408.5 48.5Q382 22 342.5 5.5Q303 -11 252 -12L244 -93H188L196 -8Q145 0 105 21.5Q65 43 36 69L71 116Q128 61 202 46L231 345L204 360Q135 396 99.5 437.5Q64 479 64 539Q64 580 80.5 612Q97 644 125 666.5Q153 689 190 700.5Q227 712 268 712L275 780H331L323 706Q364 698 398.5 681Q433 664 459 644ZM400 172Q400 222 371.5 253.5Q343 285 285 317L257 42Q290 44 316.5 55.5Q343 67 361.5 85Q380 103 390 125.5Q400 148 400 172ZM126 541Q126 506 150 475Q174 444 228 416L238 411L263 658Q236 657 211.5 649Q187 641 168 626.5Q149 612 137.5 590.5Q126 569 126 541Z" glyph-name="dollar" horiz-adv-x="509" unicode="$" /><glyph d="M62 564Q62 594 73.5 621Q85 648 105 668.5Q125 689 152 700.5Q179 712 209 712Q239 712 265.5 700.5Q292 689 312 668.5Q332 648 343.5 621Q355 594 355 564Q355 534 343.5 507.5Q332 481 312 461Q292 441 265.5 429.5Q239 418 209 418Q179 418 152 429.5Q125 441 105 461Q85 481 73.5 507.5Q62 534 62 564ZM118 564Q118 545 125 527.5Q132 510 144.5 497Q157 484 173.5 476.5Q190 469 209 469Q227 469 243.5 476.5Q260 484 272.5 497Q285 510 292 527.5Q299 545 299 564Q299 604 272.5 632Q246 660 209 660Q171 660 144.5 632Q118 604 118 564ZM652 134Q652 104 640.5 77.5Q629 51 609 31Q589 11 562 -0.5Q535 -12 505 -12Q475 -12 448 -0.5Q421 11 401 31Q381 51 369.5 77.5Q358 104 358 134Q358 164 369.5 191Q381 218 401 238.5Q421 259 448 270.5Q475 282 505 282Q535 282 562 270.5Q589 259 609 238.5Q629 218 640.5 191Q652 164 652 134ZM595 134Q595 174 569 202Q543 230 505 230Q467 230 441 202Q415 174 415 134Q415 115 422 97.5Q429 80 441 67Q453 54 469.5 46.5Q486 39 505 39Q524 39 540.5 46.5Q557 54 569 67Q581 80 588 97.5Q595 115 595 134ZM75 99 43 141L628 590L660 548Z" glyph-name="percent" horiz-adv-x="708" unicode="%" /><glyph d="M444 93Q409 46 360 17Q311 -12 241 -12Q200 -12 164.5 1.5Q129 15 102.5 39Q76 63 61 96.5Q46 130 46 170Q46 233 79.5 285.5Q113 338 175 389Q135 438 121 474Q107 510 107 548Q107 584 120 614.5Q133 645 156 666.5Q179 688 210.5 700Q242 712 279 712Q315 712 345 700.5Q375 689 396 668.5Q417 648 428.5 621Q440 594 440 563Q440 543 434.5 520.5Q429 498 418 478L362 493Q370 510 374.5 527Q379 544 379 558Q379 606 348.5 632Q318 658 278 658Q231 658 201 627.5Q171 597 171 549Q171 515 188.5 480.5Q206 446 245 403L438 189Q465 236 484 285Q503 334 511 368H580Q566 317 540.5 258Q515 199 481 145L615 4V0H531ZM246 44Q295 44 335.5 69Q376 94 404 138L210 348Q159 299 135 260Q111 221 111 173Q111 141 123 117Q135 93 154 76.5Q173 60 197 52Q221 44 246 44Z" glyph-name="ampersand" horiz-adv-x="638" unicode="&amp;" /><glyph d="M69 700 131 700V449H69Z" glyph-name="quotesingle" horiz-adv-x="200" unicode="'" /><glyph d="M44 280Q44 343 56.5 398.5Q69 454 92 505Q115 556 146.5 604Q178 652 217 700H278V685Q201 600 154 498.5Q107 397 107 280Q107 222 119.5 165Q132 108 154.5 54.5Q177 1 208.5 -47.5Q240 -96 278 -138V-153H217Q140 -59 92 48Q44 155 44 280Z" glyph-name="parenleft" horiz-adv-x="306" unicode="(" /><glyph d="M262 280Q262 155 214 48Q166 -59 89 -153H28V-138Q66 -96 98 -47.5Q130 1 152.5 54.5Q175 108 187.5 165Q200 222 200 280Q200 397 152.5 498.5Q105 600 28 685V700H89Q128 652 159.5 604Q191 556 214 505Q237 454 249.5 398.5Q262 343 262 280Z" glyph-name="parenright" horiz-adv-x="306" unicode=")" /><glyph d="M266 452Q269 441 274 421.5Q279 402 284.5 380.5Q290 359 293.5 339.5Q297 320 297 308Q297 291 285 279Q273 267 256 267Q238 267 225.5 279Q213 291 213 308Q213 320 216.5 339.5Q220 359 225.5 380.5Q231 402 236 421.5Q241 441 244 452ZM393 372Q383 377 367.5 389Q352 401 335.5 414.5Q319 428 304 441.5Q289 455 280 462L291 483Q302 481 321.5 477Q341 473 362 467.5Q383 462 402 456.5Q421 451 431 446Q445 438 451 421.5Q457 405 449 390Q441 374 425 369Q409 364 393 372ZM117 372Q101 364 85 369Q69 374 61 390Q53 405 59 421.5Q65 438 79 446Q90 452 109 457.5Q128 463 149 468Q170 473 189 477Q208 481 219 483L230 462Q221 455 206 441.5Q191 428 174.5 414.5Q158 401 142.5 389Q127 377 117 372ZM244 527Q241 538 236 557.5Q231 577 225.5 598.5Q220 620 216.5 639.5Q213 659 213 671Q213 688 225.5 700Q238 712 256 712Q273 712 285 700Q297 688 297 671Q297 659 293.5 639.5Q290 620 284.5 598.5Q279 577 274 557.5Q269 538 266 527ZM393 607Q409 615 425 610Q441 605 449 589Q457 574 451 557.5Q445 541 431 533Q421 528 402 522.5Q383 517 362 511.5Q341 506 321.5 502Q302 498 291 496L280 517Q289 525 304 538Q319 551 335.5 564.5Q352 578 367.5 590Q383 602 393 607ZM117 607Q127 602 142.5 590Q158 578 174.5 564.5Q191 551 206 538Q221 525 230 517L219 496Q208 498 189 502Q170 506 149 511Q128 516 109 521.5Q90 527 79 533Q65 541 59 557.5Q53 574 61 589Q69 605 85 610Q101 615 117 607Z" glyph-name="asterisk" horiz-adv-x="510" unicode="*" /><glyph d="M268 380 450 380V327H268V144H211V327H30V380H211V561H268Z" glyph-name="plus" horiz-adv-x="480" unicode="+" /><glyph d="M63 48Q63 72 79.5 90Q96 108 122 108Q147 108 164.5 91Q182 74 182 48Q182 38 179 27.5Q176 17 172 10L107 -110H54L100 -9Q83 -3 73 12.5Q63 28 63 48Z" glyph-name="comma" horiz-adv-x="245" unicode="," /><glyph d="M20 303 229 303V252H20Z" glyph-name="hyphen" horiz-adv-x="250" unicode="-" /><glyph d="M62 48Q62 74 79.5 91.5Q97 109 122 109Q148 109 165.5 91.5Q183 74 183 48Q183 23 165.5 5.5Q148 -12 122 -12Q97 -12 79.5 5.5Q62 23 62 48Z" glyph-name="period" horiz-adv-x="245" unicode="." /><glyph d="M277 700 334 700L100 0H41Z" glyph-name="slash" horiz-adv-x="374" unicode="/" /><glyph d="M245 712Q349 712 396.5 620Q444 528 444 351Q444 172 396.5 80Q349 -12 245 -12Q141 -12 93.5 80Q46 172 46 351Q46 528 93.5 620Q141 712 245 712ZM109 351Q109 199 141 120Q173 41 245 41Q316 41 348.5 120Q381 199 381 351Q381 503 348.5 581Q316 659 245 659Q173 659 141 581Q109 503 109 351Z" glyph-name="zero" horiz-adv-x="491" unicode="0" /><glyph d="M87 700 289 700V55H426V0H88V55H226V645H87Z" glyph-name="one" horiz-adv-x="491" unicode="1" /><glyph d="M42 53Q70 82 103 118Q134 150 171.5 191.5Q209 233 254 284Q288 323 311.5 355Q335 387 349 415.5Q363 444 369.5 470.5Q376 497 376 523Q376 583 338 621Q300 659 235 659Q207 659 182.5 651Q158 643 139.5 627.5Q121 612 110 589Q99 566 99 537Q99 499 120 457L62 443Q51 466 45 489Q39 512 39 538Q39 578 55 610Q71 642 98 664.5Q125 687 161 699.5Q197 712 237 712Q281 712 317.5 699Q354 686 380.5 661.5Q407 637 422 602Q437 567 437 524Q437 498 431 469Q425 440 407.5 405.5Q390 371 360 329Q330 287 282 234L118 55H454V0H42Z" glyph-name="two" horiz-adv-x="491" unicode="2" /><glyph d="M238 41Q301 41 338.5 82Q376 123 376 209Q376 291 331.5 328Q287 365 216 365Q185 365 162 362V407L368 645H68V700H429V638L235 415Q279 415 316 400.5Q353 386 380.5 359.5Q408 333 423.5 295Q439 257 439 209Q439 152 423 110.5Q407 69 379.5 41.5Q352 14 315.5 1Q279 -12 239 -12Q201 -12 166 0Q131 12 104.5 36Q78 60 62.5 95Q47 130 47 176V220H107L108 182Q110 110 146.5 75.5Q183 41 238 41Z" glyph-name="three" horiz-adv-x="491" unicode="3" /><glyph d="M18 274 266 700H364V274H471V221H364V0H303V221H18ZM78 274 303 274V658H299Z" glyph-name="four" horiz-adv-x="491" unicode="4" /><glyph d="M382 221Q382 298 347 345Q312 392 238 392Q198 392 172.5 381Q147 370 130 353H75V700H424V645H130V416H133Q152 430 183 439Q214 448 244 448Q294 448 331.5 431.5Q369 415 394 385Q419 355 432 314Q445 273 445 223Q445 166 428 122Q411 78 383 48.5Q355 19 318.5 3.5Q282 -12 242 -12Q204 -12 169 0Q134 12 107.5 36Q81 60 65.5 95Q50 130 50 176V220H110L111 182Q113 110 150 75.5Q187 41 241 41Q304 41 342.5 88Q381 135 382 221Z" glyph-name="five" horiz-adv-x="491" unicode="5" /><glyph d="M358 700 330 670Q307 646 280.5 614Q254 582 227 544.5Q200 507 174.5 465Q149 423 129 377L132 376Q159 404 193.5 417.5Q228 431 266 431Q304 431 339.5 417.5Q375 404 402 376.5Q429 349 445 307Q461 265 461 209Q461 159 445.5 118Q430 77 402.5 48Q375 19 336.5 3.5Q298 -12 252 -12Q206 -12 167.5 4Q129 20 101.5 50Q74 80 59 122.5Q44 165 44 219Q44 286 63 350Q82 414 113 472Q144 530 182 582Q220 634 257 677L277 700ZM105 208Q105 174 114 143.5Q123 113 141 90Q159 67 187 53.5Q215 40 252 40Q290 40 317.5 53.5Q345 67 363.5 90Q382 113 391 143.5Q400 174 400 208Q400 243 391 273.5Q382 304 363.5 327.5Q345 351 317.5 364.5Q290 378 252 378Q215 378 187 364.5Q159 351 141 327.5Q123 304 114 273.5Q105 243 105 208Z" glyph-name="six" horiz-adv-x="491" unicode="6" /><glyph d="M137 0 378 645H51V700H437V647L205 0Z" glyph-name="seven" horiz-adv-x="491" unicode="7" /><glyph d="M245 712Q290 712 326.5 698Q363 684 388.5 659Q414 634 427.5 599Q441 564 441 521Q441 472 414 427Q387 382 337 360Q390 338 424 291.5Q458 245 458 185Q458 140 442 103.5Q426 67 398 41.5Q370 16 331 2Q292 -12 245 -12Q199 -12 159.5 2Q120 16 92 41.5Q64 67 48 103.5Q32 140 32 185Q32 245 66 291.5Q100 338 153 360Q103 382 76 427Q49 472 49 521Q49 564 62.5 599Q76 634 101.5 659Q127 684 163.5 698Q200 712 245 712ZM383 524Q383 551 374.5 576Q366 601 348.5 619.5Q331 638 305.5 649.5Q280 661 245 661Q211 661 184.5 649.5Q158 638 141 619.5Q124 601 115 576Q106 551 106 524Q106 497 115 472Q124 447 141 428.5Q158 410 184.5 398.5Q211 387 245 387Q280 387 305.5 398.5Q331 410 348.5 428.5Q366 447 374.5 472Q383 497 383 524ZM245 39Q283 39 311 51.5Q339 64 358 84Q377 104 386.5 130Q396 156 396 184Q396 212 386.5 239Q377 266 358 287Q339 308 311 320.5Q283 333 245 333Q208 333 179.5 320.5Q151 308 132 287Q113 266 103.5 239Q94 212 94 184Q94 156 103.5 130Q113 104 132 84Q151 64 179.5 51.5Q208 39 245 39Z" glyph-name="eight" horiz-adv-x="491" unicode="8" /><glyph d="M133 0 161 30Q184 54 210.5 86Q237 118 264 155.5Q291 193 316.5 235Q342 277 362 323L359 324Q332 296 297.5 282.5Q263 269 225 269Q187 269 151.5 282.5Q116 296 89 323.5Q62 351 46 393Q30 435 30 491Q30 541 45.5 582Q61 623 89 652Q117 681 155 696.5Q193 712 239 712Q285 712 323.5 696Q362 680 389.5 650Q417 620 432 577.5Q447 535 447 481Q447 414 428 350Q409 286 378 228Q347 170 309.5 118Q272 66 234 23L214 0ZM386 492Q386 526 377 556.5Q368 587 350 610Q332 633 304.5 646.5Q277 660 239 660Q202 660 174 646.5Q146 633 127.5 610Q109 587 100 556.5Q91 526 91 492Q91 458 100 427Q109 396 127.5 372.5Q146 349 174 335.5Q202 322 239 322Q277 322 304.5 335.5Q332 349 350 372.5Q368 396 377 427Q386 458 386 492Z" glyph-name="nine" horiz-adv-x="491" unicode="9" /><glyph d="M62 48Q62 73 79.5 90.5Q97 108 122 108Q147 108 164.5 90.5Q182 73 182 48Q182 23 164.5 5.5Q147 -12 122 -12Q97 -12 79.5 5.5Q62 23 62 48ZM62 381Q62 407 79.5 424Q97 441 122 441Q147 441 164.5 424Q182 407 182 381Q182 356 164.5 338.5Q147 321 122 321Q97 321 79.5 338.5Q62 356 62 381Z" glyph-name="colon" horiz-adv-x="244" unicode=":" /><glyph d="M69 47Q69 72 86 89.5Q103 107 128 107Q153 107 170 90Q187 73 187 47Q187 38 184.5 27.5Q182 17 178 10L113 -110H61L106 -9Q90 -3 79.5 12Q69 27 69 47ZM69 381Q69 407 86.5 424Q104 441 129 441Q154 441 171.5 424Q189 407 189 381Q189 356 171.5 338.5Q154 321 129 321Q104 321 86.5 338.5Q69 356 69 381Z" glyph-name="semicolon" horiz-adv-x="254" unicode=";" /><glyph d="M520 333 141 333L319 158L280 120L35 360L280 601L319 562L141 387H520Z" glyph-name="less" horiz-adv-x="579" unicode="&lt;" /><glyph d="M450 247 30 247V300H450ZM450 407 30 407V460H450Z" glyph-name="equal" horiz-adv-x="480" unicode="=" /><glyph d="M59 387 439 387L260 562L299 601L544 360L299 120L260 158L439 333H59Z" glyph-name="greater" horiz-adv-x="579" unicode="&gt;" /><glyph d="M427 521Q427 493 418.5 462Q410 431 389.5 404.5Q369 378 336 358Q303 338 255 332L250 192H198L189 380H218Q256 380 283.5 391.5Q311 403 329 422.5Q347 442 355.5 468Q364 494 364 523Q364 555 354 580Q344 605 326 622Q308 639 284.5 648Q261 657 234 657Q168 657 131.5 613.5Q95 570 100 492H38V502Q38 605 91.5 658.5Q145 712 236 712Q276 712 310.5 699Q345 686 371 661.5Q397 637 412 601.5Q427 566 427 521ZM163 48Q163 74 180.5 91.5Q198 109 223 109Q249 109 266.5 91.5Q284 74 284 48Q284 23 266.5 5.5Q249 -12 223 -12Q198 -12 180.5 5.5Q163 23 163 48Z" glyph-name="question" horiz-adv-x="463" unicode="?" /><glyph d="M438 40Q463 40 486.5 47Q510 54 528.5 68.5Q547 83 558 105Q569 127 569 157V218Q561 208 545 204.5Q529 201 512 201H430Q381 201 358 179.5Q335 158 335 123Q335 109 340.5 94Q346 79 358.5 67Q371 55 390.5 47.5Q410 40 438 40ZM462 453Q541 453 585.5 412.5Q630 372 630 303V102Q630 76 640.5 58Q651 40 680 40Q715 40 737.5 62.5Q760 85 774 118Q788 151 793.5 188Q799 225 799 254Q799 327 773 387Q747 447 701 489.5Q655 532 593 555.5Q531 579 459 579Q388 579 324 553Q260 527 212 480Q164 433 136 367Q108 301 108 221Q108 142 137 76Q166 10 215.5 -38Q265 -86 331.5 -112.5Q398 -139 472 -139Q529 -139 582.5 -124.5Q636 -110 675 -81H762Q708 -134 636 -162Q564 -190 474 -190Q381 -190 303 -159Q225 -128 168 -73.5Q111 -19 79 56.5Q47 132 47 221Q47 310 78.5 385Q110 460 166.5 514.5Q223 569 301 600Q379 631 471 631Q548 631 618 604Q688 577 741.5 527.5Q795 478 826.5 407.5Q858 337 858 250Q858 189 845 140.5Q832 92 809 58Q786 24 753 6Q720 -12 681 -12Q638 -12 610.5 9.5Q583 31 579 62Q559 30 520.5 9Q482 -12 431 -12Q359 -12 315 25.5Q271 63 271 123Q271 184 311 218Q351 252 420 252H526Q549 252 559 263Q569 274 569 292V305Q569 330 560 348Q551 366 535.5 377Q520 388 500 393.5Q480 399 458 399Q416 399 383 384.5Q350 370 322 351L293 397Q316 414 360 433.5Q404 453 462 453Z" glyph-name="at" horiz-adv-x="895" unicode="@" /><glyph d="M173 247 91 0H27L268 700H345L587 0H520L436 247ZM190 301 418 301L306 639H303Z" glyph-name="A" horiz-adv-x="614" unicode="A" /><glyph d="M456 529Q456 469 426 429.5Q396 390 351 373V372Q414 356 455.5 309Q497 262 497 193Q497 153 482.5 118Q468 83 439.5 56.5Q411 30 368.5 15Q326 0 271 0H90V700H252Q303 700 341.5 685Q380 670 405.5 646Q431 622 443.5 591.5Q456 561 456 529ZM152 54 264 54Q300 54 330.5 63Q361 72 384 90Q407 108 420 134.5Q433 161 433 197Q433 234 418.5 261Q404 288 381 306Q358 324 328 333Q298 342 268 342H152ZM152 645 152 396H251Q310 396 351 427Q392 458 392 521Q392 554 381 577.5Q370 601 350.5 616Q331 631 305 638Q279 645 250 645Z" glyph-name="B" horiz-adv-x="538" unicode="B" /><glyph d="M399 712Q456 712 508 696Q560 680 602.5 649.5Q645 619 676.5 576Q708 533 725 479H660Q630 561 563 609Q496 657 399 657Q334 657 280 633.5Q226 610 187.5 569Q149 528 127.5 472Q106 416 106 350Q106 284 127.5 227.5Q149 171 187.5 130Q226 89 280 65.5Q334 42 399 42Q496 42 563 90Q630 138 660 220H725Q708 166 676.5 123Q645 80 602.5 50Q560 20 508 4Q456 -12 399 -12Q325 -12 260.5 15Q196 42 148 90Q100 138 72 204.5Q44 271 44 350Q44 429 71.5 495.5Q99 562 147 610Q195 658 260 685Q325 712 399 712Z" glyph-name="C" horiz-adv-x="762" unicode="C" /><glyph d="M636 350Q636 272 612.5 207.5Q589 143 542.5 97Q496 51 427 25.5Q358 0 268 0H90V700H268Q358 700 427 674.5Q496 649 542.5 603Q589 557 612.5 492.5Q636 428 636 350ZM573 350Q573 423 551 478.5Q529 534 489 571Q449 608 392.5 626.5Q336 645 267 645H152V54H267Q336 54 392.5 72.5Q449 91 489 128.5Q529 166 551 221.5Q573 277 573 350Z" glyph-name="D" horiz-adv-x="682" unicode="D" /><glyph d="M553 642 152 642V384H410V329H152V57H553V0H90V700H553Z" glyph-name="E" horiz-adv-x="588" unicode="E" /><glyph d="M152 315 152 0H90V700H532V642H152V370H430V315Z" glyph-name="F" horiz-adv-x="546" unicode="F" /><glyph d="M107 350Q107 284 128.5 227.5Q150 171 189 130Q228 89 282 65.5Q336 42 400 42Q461 42 507 62.5Q553 83 584.5 113.5Q616 144 632.5 180.5Q649 217 650 249H458V305H712V0H653V125Q644 107 624.5 83.5Q605 60 573.5 38.5Q542 17 498 2.5Q454 -12 396 -12Q321 -12 257 15Q193 42 146 90Q99 138 72 204.5Q45 271 45 350Q45 429 73 495.5Q101 562 149.5 610Q198 658 263 685Q328 712 402 712Q459 712 511.5 696Q564 680 607 649.5Q650 619 682 576Q714 533 731 479H666Q636 561 567.5 609Q499 657 402 657Q337 657 282.5 633.5Q228 610 189 569Q150 528 128.5 472Q107 416 107 350Z" glyph-name="G" horiz-adv-x="777" unicode="G" /><glyph d="M509 700 571 700V0H509V329H152V0H90V700H152V384H509Z" glyph-name="H" horiz-adv-x="661" unicode="H" /><glyph d="M90 700 152 700V0H90Z" glyph-name="I" horiz-adv-x="242" unicode="I" /><glyph d="M92 273 92 220Q92 183 101.5 150Q111 117 132 93Q153 69 185 55Q217 41 262 41Q306 41 338 55Q370 69 391 93Q412 117 422 150Q432 183 432 220V700H494V223Q494 174 480 131Q466 88 437.5 56Q409 24 365 6Q321 -12 261 -12Q201 -12 157.5 6Q114 24 85.5 55.5Q57 87 43.5 130Q30 173 30 222V273Z" glyph-name="J" horiz-adv-x="577" unicode="J" /><glyph d="M152 395 181 395L504 700H584L228 370L577 0H494L179 340H152V0H90V700H152Z" glyph-name="K" horiz-adv-x="585" unicode="K" /><glyph d="M90 0 90 700H152V55H464V0Z" glyph-name="L" horiz-adv-x="478" unicode="L" /><glyph d="M641 700 734 700V0H672V626L443 132H378L149 626V0H90V700H183L413 204Z" glyph-name="M" horiz-adv-x="824" unicode="M" /><glyph d="M149 0 90 0V700H176L513 90V700H572V0H495L149 623Z" glyph-name="N" horiz-adv-x="662" unicode="N" /><glyph d="M44 350Q44 429 72 495.5Q100 562 148 610Q196 658 261 685Q326 712 399 712Q473 712 537.5 685Q602 658 650 610Q698 562 726 495.5Q754 429 754 350Q754 271 726 204.5Q698 138 650 90Q602 42 537.5 15Q473 -12 399 -12Q326 -12 261 15Q196 42 148 90Q100 138 72 204.5Q44 271 44 350ZM692 350Q692 416 670.5 472.5Q649 529 610.5 570Q572 611 518 634.5Q464 658 399 658Q334 658 280 634.5Q226 611 187.5 570Q149 529 127.5 472.5Q106 416 106 350Q106 284 127.5 227.5Q149 171 187.5 130Q226 89 280 65.5Q334 42 399 42Q464 42 518 65.5Q572 89 610.5 130Q649 171 670.5 227.5Q692 284 692 350Z" glyph-name="O" horiz-adv-x="798" unicode="O" /><glyph d="M152 0 90 0V700H276Q336 700 381 683.5Q426 667 456 638Q486 609 501 570.5Q516 532 516 488Q516 444 501 405Q486 366 456 336.5Q426 307 381 289.5Q336 272 276 272H152ZM152 645 152 327H283Q318 327 348.5 337.5Q379 348 402.5 368Q426 388 439.5 418.5Q453 449 453 488Q453 527 439.5 556.5Q426 586 402.5 605.5Q379 625 348.5 635Q318 645 283 645Z" glyph-name="P" horiz-adv-x="546" unicode="P" /><glyph d="M44 350Q44 429 72 495.5Q100 562 148 610Q196 658 261 685Q326 712 399 712Q473 712 537.5 685Q602 658 650 610Q698 562 726 495.5Q754 429 754 350Q754 296 740.5 247.5Q727 199 702.5 158Q678 117 644 84.5Q610 52 569 30L593 -6Q607 -27 626.5 -45.5Q646 -64 678 -64Q691 -64 700.5 -63.5Q710 -63 717 -63Q724 -62 730 -61V-115Q724 -116 715 -117Q707 -118 697 -118.5Q687 -119 674 -119Q633 -119 604.5 -103.5Q576 -88 550 -48L513 6Q486 -2 457.5 -7Q429 -12 399 -12Q326 -12 261 15Q196 42 148 90Q100 138 72 204.5Q44 271 44 350ZM692 350Q692 416 670.5 472.5Q649 529 610.5 570Q572 611 518 634.5Q464 658 399 658Q334 658 280 634.5Q226 611 187.5 570Q149 529 127.5 472.5Q106 416 106 350Q106 284 127.5 227.5Q149 171 187.5 130Q226 89 280 65.5Q334 42 399 42Q441 42 482 53L394 186L442 219L538 75Q610 113 651 184.5Q692 256 692 350Z" glyph-name="Q" horiz-adv-x="798" unicode="Q" /><glyph d="M299 308 152 308V0H90V700H288Q399 700 460.5 647.5Q522 595 522 507Q522 481 514.5 452Q507 423 488.5 396.5Q470 370 438.5 349Q407 328 359 319L564 0H493ZM459 504Q459 571 414 608Q369 645 291 645H152V363H291Q369 363 414 401Q459 439 459 504Z" glyph-name="R" horiz-adv-x="583" unicode="R" /><glyph d="M418 596Q392 619 349.5 638.5Q307 658 263 658Q236 658 210 650.5Q184 643 163.5 628.5Q143 614 131 592Q119 570 119 541Q119 506 143 475Q167 444 221 416L294 378Q376 335 416 287.5Q456 240 456 176Q456 141 442 107.5Q428 74 400 47.5Q372 21 331.5 4.5Q291 -12 238 -12Q168 -12 116.5 12.5Q65 37 29 69L64 116Q101 81 145 61.5Q189 42 242 42Q277 42 305 53Q333 64 352.5 82.5Q372 101 382.5 124.5Q393 148 393 172Q393 199 384.5 220Q376 241 359 259.5Q342 278 316.5 294.5Q291 311 256 329L197 360Q128 396 92.5 437.5Q57 479 57 539Q57 580 73.5 612Q90 644 118 666.5Q146 689 183.5 700.5Q221 712 262 712Q319 712 368.5 691.5Q418 671 452 644Z" glyph-name="S" horiz-adv-x="499" unicode="S" /><glyph d="M514 700 514 643H294V0H232V643H13V700Z" glyph-name="T" horiz-adv-x="527" unicode="T" /><glyph d="M314 -12Q254 -12 210.5 5.5Q167 23 138.5 54Q110 85 96.5 127.5Q83 170 83 219V700H145V220Q145 183 154.5 150Q164 117 185 93Q206 69 238 55Q270 41 315 41Q359 41 391 55Q423 69 444 93Q465 117 475 150Q485 183 485 220V700H545V220Q545 171 531.5 128.5Q518 86 489.5 54.5Q461 23 417.5 5.5Q374 -12 314 -12Z" glyph-name="U" horiz-adv-x="628" unicode="U" /><glyph d="M25 700 94 700L306 63H308L522 700H585L344 0H267Z" glyph-name="V" horiz-adv-x="610" unicode="V" /><glyph d="M640 0 468 635L299 0H209L34 700H100L256 63H258L429 700H508L683 63H685L839 700H902L729 0Z" glyph-name="W" horiz-adv-x="937" unicode="W" /><glyph d="M326 353 571 0H496L289 308L83 0H9L252 354L19 700H93L291 399L492 700H562Z" glyph-name="X" horiz-adv-x="579" unicode="X" /><glyph d="M10 700 85 700L313 366H314L541 700H614L344 312V0H281V310Z" glyph-name="Y" horiz-adv-x="624" unicode="Y" /><glyph d="M40 643 40 700H537V641L101 57H537V0H29V59L465 643Z" glyph-name="Z" horiz-adv-x="571" unicode="Z" /><glyph d="M144 643 144 -96H288V-153H82V700H288V643Z" glyph-name="bracketleft" horiz-adv-x="327" unicode="[" /><glyph d="M332 0 274 0L40 700H96Z" glyph-name="backslash" horiz-adv-x="373" unicode="\" /><glyph d="M39 -96 182 -96V642H39V700H245V-153H39Z" glyph-name="bracketright" horiz-adv-x="327" unicode="]" /><glyph d="M206 700 291 700L439 225H373L249 645L115 225H50Z" glyph-name="asciicircum" horiz-adv-x="490" unicode="^" /><glyph d="M0 -124 500 -124V-175H0Z" glyph-name="underscore" horiz-adv-x="500" unicode="_" /><glyph d="M159 529 104 529L24 688H99Z" glyph-name="grave" horiz-adv-x="203" unicode="`" /><glyph d="M201 40Q226 40 249.5 47Q273 54 291.5 68.5Q310 83 321 105Q332 127 332 157V218Q324 208 308 204.5Q292 201 275 201H193Q144 201 121 179.5Q98 158 98 123Q98 109 103.5 94Q109 79 121.5 67Q134 55 153.5 47.5Q173 40 201 40ZM332 305Q332 330 323 348Q314 366 298.5 377Q283 388 263 393.5Q243 399 221 399Q179 399 146 384.5Q113 370 85 351L56 397Q79 414 123 433.5Q167 453 225 453Q304 453 348.5 412.5Q393 372 393 303V0H332V55Q313 22 273.5 5Q234 -12 194 -12Q122 -12 78 25.5Q34 63 34 123Q34 184 74 218Q114 252 183 252H289Q312 252 322 263Q332 274 332 292Z" glyph-name="a" horiz-adv-x="459" unicode="a" /><glyph d="M300 -12Q243 -12 197.5 15Q152 42 132 83V0H71V700H132V355Q152 397 198.5 425Q245 453 302 453Q349 453 389.5 435.5Q430 418 460 387Q490 356 507 313.5Q524 271 524 220Q524 169 507 126.5Q490 84 460 53.5Q430 23 389 5.5Q348 -12 300 -12ZM462 220Q462 258 450 290.5Q438 323 416 347Q394 371 363.5 385Q333 399 296 399Q259 399 228.5 385Q198 371 176 347Q154 323 141.5 290.5Q129 258 129 220Q129 182 141.5 149.5Q154 117 176 93Q198 69 228.5 55Q259 41 296 41Q333 41 363.5 55Q394 69 416 93Q438 117 450 149.5Q462 182 462 220Z" glyph-name="b" horiz-adv-x="564" unicode="b" /><glyph d="M101 220Q101 182 113 149.5Q125 117 147 93Q169 69 199.5 55Q230 41 267 41Q317 41 354.5 65Q392 89 412 130L464 100Q436 49 383 18.5Q330 -12 267 -12Q219 -12 177.5 5.5Q136 23 105.5 53.5Q75 84 57 126.5Q39 169 39 220Q39 271 57 313.5Q75 356 105.5 387Q136 418 177.5 435.5Q219 453 267 453Q330 453 383 422.5Q436 392 464 341L412 311Q392 351 354.5 375Q317 399 267 399Q230 399 199.5 385Q169 371 147 347Q125 323 113 290.5Q101 258 101 220Z" glyph-name="c" horiz-adv-x="498" unicode="c" /><glyph d="M262 453Q319 453 365.5 425Q412 397 432 355V700H493V0H432V84Q412 42 366.5 15Q321 -12 264 -12Q216 -12 175 5.5Q134 23 104 53.5Q74 84 57 126.5Q40 169 40 220Q40 271 57 313.5Q74 356 104 387Q134 418 174.5 435.5Q215 453 262 453ZM102 220Q102 182 114 149.5Q126 117 148 93Q170 69 200.5 55Q231 41 268 41Q305 41 335.5 55Q366 69 388 93Q410 117 422.5 149.5Q435 182 435 220Q435 258 422.5 290.5Q410 323 388 347Q366 371 335.5 385Q305 399 268 399Q231 399 200.5 385Q170 371 148 347Q126 323 114 290.5Q102 258 102 220Z" glyph-name="d" horiz-adv-x="564" unicode="d" /><glyph d="M103 202Q106 168 118.5 138.5Q131 109 152 87.5Q173 66 201.5 54Q230 42 264 42Q309 42 345 62Q381 82 401 118H472Q444 58 388.5 23Q333 -12 264 -12Q216 -12 175 5.5Q134 23 104 53.5Q74 84 57 126.5Q40 169 40 220Q40 271 57 313.5Q74 356 104 387Q134 418 175 435.5Q216 453 263 453Q306 453 346 437.5Q386 422 417 391.5Q448 361 466.5 314Q485 267 485 204V202ZM263 399Q230 399 202.5 388Q175 377 155 357Q135 337 122 310.5Q109 284 105 252H417Q414 282 402 308.5Q390 335 370 355.5Q350 376 323 387.5Q296 399 263 399Z" glyph-name="e" horiz-adv-x="518" unicode="e" /><glyph d="M96 599Q96 630 105 650Q114 670 128.5 682Q143 694 160.5 699Q178 704 196 704Q208 704 219 703.5Q230 703 238 702Q248 701 256 700V647Q248 648 240 650Q233 651 225.5 651.5Q218 652 212 652Q183 652 170 638.5Q157 625 157 592V441H247V390H157V0H96V390H20V441H96Z" glyph-name="f" horiz-adv-x="273" unicode="f" /><glyph d="M493 -46Q493 -73 486.5 -96.5Q480 -120 464.5 -137.5Q449 -155 424 -165Q399 -175 363 -175H196V-124H356Q388 -124 410 -111Q432 -98 432 -60V84Q412 42 366.5 15Q321 -12 264 -12Q216 -12 175 5.5Q134 23 104 53.5Q74 84 57 126.5Q40 169 40 220Q40 271 57 313.5Q74 356 104 387Q134 418 174.5 435.5Q215 453 262 453Q319 453 365.5 425Q412 397 432 355V441H493ZM268 41Q305 41 335.5 55Q366 69 388 93Q410 117 422 149.5Q434 182 434 220Q434 258 422 290.5Q410 323 388 347Q366 371 335.5 385Q305 399 268 399Q231 399 200.5 385Q170 371 148 347Q126 323 113.5 290.5Q101 258 101 220Q101 182 113.5 149.5Q126 117 148 93Q170 69 200.5 55Q231 41 268 41Z" glyph-name="g" horiz-adv-x="564" unicode="g" /><glyph d="M388 290Q388 344 357.5 371.5Q327 399 279 399Q239 399 201.5 378.5Q164 358 132 321V0H71V700H131V378Q161 414 201 433.5Q241 453 289 453Q367 453 408 409.5Q449 366 449 293V0H388Z" glyph-name="h" horiz-adv-x="515" unicode="h" /><glyph d="M148 0 87 0V390H17V441H148ZM60 601Q60 623 75.5 638.5Q91 654 113 654Q135 654 150.5 638.5Q166 623 166 601Q166 579 150.5 563.5Q135 548 113 548Q91 548 75.5 563.5Q60 579 60 601Z" glyph-name="i" horiz-adv-x="219" unicode="i" /><glyph d="M87 390 17 390V441H148V-87Q148 -114 139.5 -131Q131 -148 117 -158Q103 -168 85 -171.5Q67 -175 48 -175H-3V-124H37Q60 -124 73.5 -116Q87 -108 87 -82ZM60 601Q60 623 75.5 638.5Q91 654 113 654Q135 654 150.5 638.5Q166 623 166 601Q166 579 150.5 563.5Q135 548 113 548Q91 548 75.5 563.5Q60 579 60 601Z" glyph-name="j" horiz-adv-x="219" unicode="j" /><glyph d="M132 270 189 270L359 441H441L238 244L452 0H371L186 217H132V0H71V700H132Z" glyph-name="k" horiz-adv-x="464" unicode="k" /><glyph d="M132 0 71 0V700H132Z" glyph-name="l" horiz-adv-x="203" unicode="l" /><glyph d="M437 319Q438 308 438.5 297.5Q439 287 439 276V0H378V293Q378 344 349.5 371.5Q321 399 273 399Q234 399 199 378.5Q164 358 132 321V0H71V441H131V378Q160 413 196.5 433Q233 453 281 453Q337 453 373 430Q409 407 425 368Q495 453 589 453Q667 453 706.5 409.5Q746 366 746 293V0H685V293Q685 344 656.5 371.5Q628 399 581 399Q541 399 505 378Q469 357 437 319Z" glyph-name="m" horiz-adv-x="812" unicode="m" /><glyph d="M388 290Q388 344 357.5 371.5Q327 399 279 399Q239 399 201.5 378.5Q164 358 132 321V0H71V441H131V378Q161 414 201 433.5Q241 453 289 453Q367 453 408 409.5Q449 366 449 293V0H388Z" glyph-name="n" horiz-adv-x="515" unicode="n" /><glyph d="M39 220Q39 271 57 313.5Q75 356 106 387Q137 418 178.5 435.5Q220 453 267 453Q315 453 356.5 435.5Q398 418 429 387Q460 356 478 313.5Q496 271 496 220Q496 169 478 126.5Q460 84 429 53.5Q398 23 356.5 5.5Q315 -12 267 -12Q220 -12 178.5 5.5Q137 23 106 53.5Q75 84 57 126.5Q39 169 39 220ZM434 220Q434 258 422 290.5Q410 323 388 347Q366 371 335 385Q304 399 267 399Q230 399 199.5 385Q169 371 147 347Q125 323 113 290.5Q101 258 101 220Q101 182 113 149.5Q125 117 147 93Q169 69 199.5 55Q230 41 267 41Q304 41 335 55Q366 69 388 93Q410 117 422 149.5Q434 182 434 220Z" glyph-name="o" horiz-adv-x="535" unicode="o" /><glyph d="M300 -12Q243 -12 197.5 15Q152 42 132 83V-175H71V441H132V355Q152 397 198.5 425Q245 453 302 453Q349 453 389.5 435.5Q430 418 460 387Q490 356 507 313.5Q524 271 524 220Q524 169 507 126.5Q490 84 460 53.5Q430 23 389 5.5Q348 -12 300 -12ZM462 220Q462 258 450 290.5Q438 323 416 347Q394 371 363.5 385Q333 399 296 399Q259 399 228.5 385Q198 371 176 347Q154 323 141.5 290.5Q129 258 129 220Q129 182 141.5 149.5Q154 117 176 93Q198 69 228.5 55Q259 41 296 41Q333 41 363.5 55Q394 69 416 93Q438 117 450 149.5Q462 182 462 220Z" glyph-name="p" horiz-adv-x="564" unicode="p" /><glyph d="M264 -12Q216 -12 175 5.5Q134 23 104 53.5Q74 84 57 126.5Q40 169 40 220Q40 271 57 313.5Q74 356 104 387Q134 418 174.5 435.5Q215 453 262 453Q319 453 365.5 425Q412 397 432 355V441H493V-175H432V83Q412 42 366.5 15Q321 -12 264 -12ZM102 220Q102 182 114 149.5Q126 117 148 93Q170 69 200.5 55Q231 41 268 41Q305 41 335.5 55Q366 69 388 93Q410 117 422.5 149.5Q435 182 435 220Q435 258 422.5 290.5Q410 323 388 347Q366 371 335.5 385Q305 399 268 399Q231 399 200.5 385Q170 371 148 347Q126 323 114 290.5Q102 258 102 220Z" glyph-name="q" horiz-adv-x="564" unicode="q" /><glyph d="M295 387 265 387Q236 387 211.5 380Q187 373 169 356.5Q151 340 141 313Q131 286 131 247V0H71V441H129V366Q148 411 185 430Q222 449 262 449Q270 449 278 448.5Q286 448 295 447Z" glyph-name="r" horiz-adv-x="316" unicode="r" /><glyph d="M188 42Q233 42 259 64Q285 86 285 117Q285 150 259.5 168Q234 186 186 203L161 212Q110 230 79.5 258Q49 286 49 334Q49 361 60.5 383Q72 405 92.5 420.5Q113 436 140.5 444.5Q168 453 200 453Q239 453 277 439.5Q315 426 343 402L310 356Q287 375 255.5 387.5Q224 400 198 400Q161 400 136.5 383Q112 366 112 337Q112 295 177 270L228 251Q292 226 320 195.5Q348 165 348 116Q348 95 338.5 72Q329 49 309.5 30.5Q290 12 259 0Q228 -12 186 -12Q147 -12 104 3Q61 18 31 43L63 89Q89 67 124 54.5Q159 42 188 42Z" glyph-name="s" horiz-adv-x="386" unicode="s" /><glyph d="M157 627 157 441H266V390H157V91Q157 60 176 54Q195 48 220 48Q231 48 239 48.5Q247 49 254 50Q261 50 266 51V0Q257 -1 246 -2Q235 -3 223.5 -3.5Q212 -4 198 -4Q181 -4 163 -1Q145 2 130 12Q115 22 105.5 40.5Q96 59 96 90V390H20V441H96V627Z" glyph-name="t" horiz-adv-x="288" unicode="t" /><glyph d="M254 -12Q208 -12 172.5 1.5Q137 15 113 38Q89 61 77 91.5Q65 122 65 157V441H126V163Q126 103 162.5 72.5Q199 42 254 42Q309 42 345.5 72.5Q382 103 382 163V441H443V157Q443 122 431 91.5Q419 61 395 38Q371 15 335.5 1.5Q300 -12 254 -12Z" glyph-name="u" horiz-adv-x="508" unicode="u" /><glyph d="M376 441 442 441L275 0H193L29 441H98L235 50Z" glyph-name="v" horiz-adv-x="469" unicode="v" /><glyph d="M611 441 677 441L549 0H466L354 379L241 0H158L34 441H102L200 50L319 441H391L509 50Z" glyph-name="w" horiz-adv-x="710" unicode="w" /><glyph d="M188 218 20 441H93L223 262L356 441H425L257 220L425 0H351L222 176L93 0H20Z" glyph-name="x" horiz-adv-x="445" unicode="x" /><glyph d="M214 0 192 0L28 441H96L234 49L376 441H441L244 -78Q235 -102 224.5 -120Q214 -138 200 -150Q186 -162 166 -168.5Q146 -175 118 -175H67V-124H117Q150 -124 165 -107Q180 -90 193 -56Z" glyph-name="y" horiz-adv-x="467" unicode="y" /><glyph d="M377 389 109 51H377V0H38V51L306 389H38V441H377Z" glyph-name="z" horiz-adv-x="415" unicode="z" /><glyph d="M178 366Q178 343 167 324Q156 305 132 300Q156 295 167 276Q178 257 178 234V-95H320V-153H114V273H35V328H114V700H320V642H178Z" glyph-name="braceleft" horiz-adv-x="359" unicode="{" /><glyph d="M82 760 141 760V-93H82Z" glyph-name="bar" horiz-adv-x="223" unicode="|" /><glyph d="M181 642 39 642V700H245V328H324V273H245V-153H39V-95H181V234Q181 257 192 276Q203 295 227 300Q203 305 192 324Q181 343 181 366Z" glyph-name="braceright" horiz-adv-x="359" unicode="}" /><glyph d="M118 409Q136 409 169.5 400.5Q203 392 240 381.5Q277 371 309.5 362.5Q342 354 357 354Q382 354 388.5 363Q395 372 397 397V408H454V388Q454 374 450.5 357.5Q447 341 437.5 327Q428 313 411 303.5Q394 294 367 294Q348 294 311.5 303Q275 312 236.5 322.5Q198 333 165 341.5Q132 350 121 350Q102 350 95.5 338Q89 326 89 306V295H31V316Q31 330 34.5 346Q38 362 47.5 376Q57 390 74 399.5Q91 409 118 409Z" glyph-name="asciitilde" horiz-adv-x="480" unicode="~" /><glyph d="M53 392Q53 417 70.5 434.5Q88 452 113 452Q139 452 156.5 434.5Q174 417 174 392Q174 366 156.5 348.5Q139 331 113 331Q88 331 70.5 348.5Q53 366 53 392ZM140 217 143 -260H79L82 217Z" glyph-name="exclamdown" horiz-adv-x="225" unicode="¡" /><glyph d="M206 129Q170 139 139.5 159.5Q109 180 87 209Q65 238 52.5 274.5Q40 311 40 353Q40 401 56 442.5Q72 484 100.5 514.5Q129 545 167.5 563.5Q206 582 251 585L263 700H319L307 582Q358 574 400 545.5Q442 517 465 474L413 444Q396 476 368 498.5Q340 521 302 529L266 174H268Q318 174 355.5 198Q393 222 413 263L465 233Q437 182 384 151.5Q331 121 268 121H261L249 0H193ZM102 353Q102 293 131.5 247Q161 201 211 183L246 530Q214 526 187.5 511Q161 496 142 472.5Q123 449 112.5 418.5Q102 388 102 353Z" glyph-name="cent" horiz-adv-x="509" unicode="¢" /><glyph d="M57 369 115 369Q104 401 95 438Q86 475 86 510Q86 559 101.5 596.5Q117 634 144 659.5Q171 685 208 698.5Q245 712 288 712Q330 712 366 699.5Q402 687 428.5 662.5Q455 638 469.5 602Q484 566 484 519V513H420Q420 582 385.5 619.5Q351 657 288 657Q252 657 226.5 645.5Q201 634 184 614Q167 594 159 567Q151 540 151 510Q151 475 160.5 439.5Q170 404 182 369H364V316H200Q209 286 215.5 255.5Q222 225 222 195Q222 146 205.5 111Q189 76 175 57H454V0H51V57H116Q116 57 123.5 66Q131 75 140 92Q149 109 156 132.5Q163 156 163 184Q163 217 154.5 249Q146 281 134 316H57Z" glyph-name="sterling" horiz-adv-x="528" unicode="£" /><glyph d="M364 633Q409 633 454.5 617.5Q500 602 538 573L626 660L672 613L581 527Q614 485 628.5 438Q643 391 643 349Q643 307 628.5 260Q614 213 581 171L672 85L626 38L539 125Q501 96 455 80Q409 64 364 64Q319 64 273 80Q227 96 189 125L102 38L56 85L147 171Q114 213 99.5 260Q85 307 85 349Q85 391 99.5 438Q114 485 147 527L56 613L102 660L190 573Q228 602 273.5 617.5Q319 633 364 633ZM364 126Q411 126 450 143.5Q489 161 517 191.5Q545 222 560.5 262.5Q576 303 576 349Q576 395 560.5 435.5Q545 476 517 506.5Q489 537 450 554.5Q411 572 364 572Q317 572 278 554.5Q239 537 211 506.5Q183 476 167.5 435.5Q152 395 152 349Q152 303 167.5 262.5Q183 222 211 191.5Q239 161 278 143.5Q317 126 364 126Z" glyph-name="currency" horiz-adv-x="728" unicode="¤" /><glyph d="M201 406 62 406V459H176L41 700H115L295 361H297L477 700H549L412 459H523V406H385L326 292H523V239H326V0H263V239H62V292H263Z" glyph-name="yen" horiz-adv-x="587" unicode="¥" /><glyph d="M82 408 82 760H143V408ZM82 -93 82 259H143V-93Z" glyph-name="brokenbar" horiz-adv-x="225" unicode="¦" /><glyph d="M47 312Q47 358 82 394.5Q117 431 174 439Q126 455 104.5 488.5Q83 522 83 565Q83 598 98.5 625Q114 652 141.5 671.5Q169 691 206.5 701.5Q244 712 288 712Q357 712 405 693.5Q453 675 482 650L446 603Q421 626 377.5 642.5Q334 659 290 659Q217 659 183 631.5Q149 604 149 569Q149 531 171.5 511.5Q194 492 229 483L342 453Q417 433 456 401Q495 369 495 307Q495 264 463 227.5Q431 191 366 177Q414 160 436.5 128Q459 96 459 53Q459 20 443.5 -7.5Q428 -35 400 -54.5Q372 -74 333.5 -85Q295 -96 249 -96Q180 -96 131.5 -77Q83 -58 55 -34L90 14Q102 3 120 -7.5Q138 -18 159 -26Q180 -34 202.5 -38.5Q225 -43 246 -43Q323 -43 357.5 -15.5Q392 12 392 48Q392 87 365.5 105.5Q339 124 290 138L201 163Q167 173 138.5 185.5Q110 198 89.5 215.5Q69 233 58 257Q47 281 47 312ZM112 314Q112 274 140 254Q168 234 216 220L291 200Q351 206 390 234.5Q429 263 429 307Q429 345 400.5 364Q372 383 326 394L250 413Q191 409 151.5 384Q112 359 112 314Z" glyph-name="section" horiz-adv-x="540" unicode="§" /><glyph d="M15 574Q15 594 30 609Q45 624 65 624Q85 624 100.5 609Q116 594 116 574Q116 554 100.5 539Q85 524 65 524Q45 524 30 539Q15 554 15 574ZM173 574Q173 594 188 609Q203 624 223 624Q243 624 258.5 609Q274 594 274 574Q274 554 258.5 539Q243 524 223 524Q203 524 188 539Q173 554 173 574Z" glyph-name="dieresis" horiz-adv-x="290" unicode="¨" /><glyph d="M772 351Q772 272 743.5 205.5Q715 139 666 90.5Q617 42 551.5 15Q486 -12 411 -12Q336 -12 270 15Q204 42 155 90.5Q106 139 77.5 205.5Q49 272 49 351Q49 430 77.5 496Q106 562 155 610Q204 658 270 685Q336 712 411 712Q486 712 551.5 685Q617 658 666 610Q715 562 743.5 496Q772 430 772 351ZM98 351Q98 281 121.5 222.5Q145 164 187 121Q229 78 286.5 54Q344 30 411 30Q478 30 535 54Q592 78 634 121Q676 164 699.5 222.5Q723 281 723 351Q723 420 699.5 478.5Q676 537 634 579.5Q592 622 535 646Q478 670 411 670Q344 670 286.5 646Q229 622 187 579.5Q145 537 121.5 478.5Q98 420 98 351ZM207 350Q207 396 223 434Q239 472 267 499.5Q295 527 333 542.5Q371 558 415 558Q482 558 532 521Q582 484 601 421H545Q531 463 497 487.5Q463 512 414 512Q380 512 351.5 500Q323 488 302.5 466Q282 444 271 414.5Q260 385 260 350Q260 315 271 285Q282 255 302.5 233.5Q323 212 351.5 199.5Q380 187 414 187Q463 187 497 211.5Q531 236 545 278H601Q582 215 532 178Q482 141 415 141Q371 141 333 156.5Q295 172 267 200Q239 228 223 266Q207 304 207 350Z" glyph-name="copyright" horiz-adv-x="821" unicode="©" /><glyph d="M191 361Q212 361 232 367Q252 373 267.5 385.5Q283 398 292.5 417Q302 436 302 461V512Q295 504 281.5 501Q268 498 254 498H184Q142 498 122.5 479.5Q103 461 103 432Q103 407 123.5 384Q144 361 191 361ZM302 586Q302 626 276 645.5Q250 665 208 665Q173 665 146 652.5Q119 640 98 623L70 662Q93 681 127 696.5Q161 712 212 712Q279 712 316.5 677.5Q354 643 354 585V327H302V374Q286 345 252.5 331Q219 317 185 317Q123 317 86 347.5Q49 378 49 432Q49 483 83 512Q117 541 176 541H266Q286 541 294 550.5Q302 560 302 575Z" glyph-name="ordfeminine" horiz-adv-x="422" unicode="ª" /><glyph d="M49 239 152 392H221L118 239L221 86H152ZM205 239 308 392H377L274 239L377 86H308Z" glyph-name="guillemotleft" horiz-adv-x="435" unicode="«" /><glyph d="M391 247 391 407H28V460H448V247Z" glyph-name="logicalnot" horiz-adv-x="480" unicode="¬" /><glyph d="" glyph-name="uni00AD" horiz-adv-x="250" unicode="­" /><glyph d="M426 328 325 328V147H274V560H429Q495 560 531 529Q567 498 567 445Q567 430 562 413.5Q557 397 546 382Q535 367 517.5 354.5Q500 342 475 335L584 147H526ZM515 445Q515 480 490.5 498Q466 516 428 516H325V372H428Q466 372 490.5 391Q515 410 515 445ZM772 351Q772 272 743.5 205.5Q715 139 666 90.5Q617 42 551.5 15Q486 -12 411 -12Q336 -12 270 15Q204 42 155 90.5Q106 139 77.5 205.5Q49 272 49 351Q49 430 77.5 496Q106 562 155 610Q204 658 270 685Q336 712 411 712Q486 712 551.5 685Q617 658 666 610Q715 562 743.5 496Q772 430 772 351ZM98 351Q98 281 121.5 222.5Q145 164 187 121Q229 78 286.5 54Q344 30 411 30Q478 30 535 54Q592 78 634 121Q676 164 699.5 222.5Q723 281 723 351Q723 420 699.5 478.5Q676 537 634 579.5Q592 622 535 646Q478 670 411 670Q344 670 286.5 646Q229 622 187 579.5Q145 537 121.5 478.5Q98 420 98 351Z" glyph-name="registered" horiz-adv-x="821" unicode="®" /><glyph d="M31 599 289 599V547H31Z" glyph-name="macron" horiz-adv-x="320" unicode="¯" /><glyph d="M49 563Q49 594 61 621Q73 648 93 668.5Q113 689 140 700.5Q167 712 198 712Q229 712 256 700.5Q283 689 303 668.5Q323 648 334.5 621Q346 594 346 563Q346 532 334.5 505Q323 478 303 458Q283 438 256 426.5Q229 415 198 415Q167 415 140 426.5Q113 438 93 458Q73 478 61 505Q49 532 49 563ZM105 563Q105 522 132.5 493.5Q160 465 198 465Q217 465 234 472.5Q251 480 263.5 493.5Q276 507 283.5 525Q291 543 291 563Q291 583 283.5 601Q276 619 263.5 632.5Q251 646 234 653.5Q217 661 198 661Q160 661 132.5 632.5Q105 604 105 563Z" glyph-name="degree" horiz-adv-x="395" unicode="°" /><glyph d="M268 380 450 380V327H268V144H211V327H30V380H211V561H268ZM30 53 450 53V0H30Z" glyph-name="plusminus" horiz-adv-x="480" unicode="±" /><glyph d="M92 351Q108 366 127 385Q143 401 163 421.5Q183 442 206 466Q246 509 261 536.5Q276 564 276 593Q276 619 259.5 638Q243 657 211 657Q183 657 165 641.5Q147 626 147 599Q147 589 149.5 578Q152 567 159 553L104 541Q96 557 92 571.5Q88 586 88 601Q88 622 96.5 641Q105 660 121 675Q137 690 160 698.5Q183 707 212 707Q269 707 302 674.5Q335 642 335 595Q335 578 331 560.5Q327 543 316 523Q305 503 285.5 478.5Q266 454 235 423L165 352H343V301H92Z" glyph-name="twosuperior" horiz-adv-x="430" unicode="²" /><glyph d="M209 294Q152 294 118 326Q84 358 84 412V431H144V415Q144 386 160 364.5Q176 343 208 343Q242 343 258.5 365.5Q275 388 275 423Q275 456 255 477.5Q235 499 198 499Q189 499 176.5 498Q164 497 158 495V543L263 650H103V700H326V645L221 541Q270 541 302.5 508.5Q335 476 335 426Q335 366 301.5 330Q268 294 209 294Z" glyph-name="threesuperior" horiz-adv-x="430" unicode="³" /><glyph d="M99 688 174 688L94 529H39Z" glyph-name="acute" horiz-adv-x="203" unicode="´" /><glyph d="M80 441 141 441V163Q141 103 178 72.5Q215 42 270 42Q325 42 361 72.5Q397 103 397 163V441H458V157Q458 122 446 91.5Q434 61 410 38Q386 15 351 1.5Q316 -12 270 -12Q226 -12 192.5 3Q159 18 139 44V-175H80Z" glyph-name="mu" horiz-adv-x="498" unicode="µ" /><glyph d="M33 529Q33 564 46 595.5Q59 627 82.5 650Q106 673 138.5 686.5Q171 700 210 700H486V0H421V641H274V0H208V359Q169 359 136.5 372.5Q104 386 81 409.5Q58 433 45.5 464Q33 495 33 529Z" glyph-name="paragraph" horiz-adv-x="581" unicode="¶" /><glyph d="M62 363Q62 389 79.5 407Q97 425 123 425Q149 425 167 407Q185 389 185 363Q185 337 167 319.5Q149 302 123 302Q97 302 79.5 319.5Q62 337 62 363Z" glyph-name="periodcentered" horiz-adv-x="247" unicode="·" /><glyph d="M98 4 162 4L92 -160H39Z" glyph-name="cedilla" horiz-adv-x="191" unicode="¸" /><glyph d="M117 700 253 700V350H330V301H115V350H193V650H117Z" glyph-name="onesuperior" horiz-adv-x="430" unicode="¹" /><glyph d="M46 514Q46 557 61.5 593.5Q77 630 103 656Q129 682 164.5 697Q200 712 240 712Q281 712 316.5 697Q352 682 378 656Q404 630 419.5 593.5Q435 557 435 514Q435 471 419.5 435Q404 399 378 372.5Q352 346 316.5 331.5Q281 317 240 317Q200 317 164.5 331.5Q129 346 103 372.5Q77 399 61.5 435Q46 471 46 514ZM382 514Q382 546 371.5 574Q361 602 342.5 622.5Q324 643 298 654.5Q272 666 240 666Q209 666 183 654.5Q157 643 138.5 622.5Q120 602 109.5 574Q99 546 99 514Q99 482 109.5 454Q120 426 138.5 405.5Q157 385 183 373.5Q209 362 240 362Q272 362 298 373.5Q324 385 342.5 405.5Q361 426 371.5 454Q382 482 382 514Z" glyph-name="ordmasculine" horiz-adv-x="481" unicode="º" /><glyph d="M126 86 58 86L161 239L58 392H126L230 239ZM282 86 214 86L317 239L214 392H282L386 239Z" glyph-name="guillemotright" horiz-adv-x="435" unicode="»" /><glyph d="M117 700 253 700V350H330V301H115V350H193V650H117ZM696 163 833 399H916V163H974V115H916V0H858V115H696ZM749 163 858 163V347H856ZM897 705 224 -18L187 15L860 738Z" glyph-name="onequarter" horiz-adv-x="1080" unicode="¼" /><glyph d="M117 700 253 700V350H330V301H115V350H193V650H117ZM897 705 224 -18L187 15L860 738ZM725 50Q741 65 760 84Q776 100 796 120.5Q816 141 839 165Q879 208 894 235.5Q909 263 909 292Q909 318 892.5 337Q876 356 844 356Q816 356 798 340.5Q780 325 780 298Q780 288 782.5 277Q785 266 792 252L737 240Q729 256 725 270.5Q721 285 721 300Q721 321 729.5 340Q738 359 754 374Q770 389 793 397.5Q816 406 845 406Q902 406 935 373.5Q968 341 968 294Q968 277 964 259.5Q960 242 949 222Q938 202 918.5 177.5Q899 153 868 122L798 51H976V0H725Z" glyph-name="onehalf" horiz-adv-x="1080" unicode="½" /><glyph d="M240 294Q183 294 149 326Q115 358 115 412V431H175V415Q175 386 191 364.5Q207 343 239 343Q273 343 289.5 365.5Q306 388 306 423Q306 456 286 477.5Q266 499 229 499Q220 499 207.5 498Q195 497 189 495V543L294 650H134V700H357V645L252 541Q301 541 333.5 508.5Q366 476 366 426Q366 366 332.5 330Q299 294 240 294ZM696 163 833 399H916V163H974V115H916V0H858V115H696ZM749 163 858 163V347H856ZM897 705 224 -18L187 15L860 738Z" glyph-name="threequarters" horiz-adv-x="1080" unicode="¾" /><glyph d="M33 -81Q33 -53 41.5 -22Q50 9 70.5 35.5Q91 62 124 82Q157 102 205 108L210 248H262L271 60H242Q204 60 176.5 48.5Q149 37 131 17.5Q113 -2 104.5 -28Q96 -54 96 -83Q96 -115 106 -140Q116 -165 134 -182Q152 -199 175.5 -208Q199 -217 226 -217Q292 -217 328.5 -173.5Q365 -130 360 -52H422V-62Q422 -165 368.5 -218.5Q315 -272 224 -272Q184 -272 149.5 -259Q115 -246 89 -221.5Q63 -197 48 -161.5Q33 -126 33 -81ZM297 392Q297 366 279.5 348.5Q262 331 237 331Q211 331 193.5 348.5Q176 366 176 392Q176 417 193.5 434.5Q211 452 237 452Q262 452 279.5 434.5Q297 417 297 392Z" glyph-name="questiondown" horiz-adv-x="454" unicode="¿" /><glyph d="M173 247 91 0H27L268 700H345L587 0H520L436 247ZM190 301 418 301L306 639H303ZM311 782 256 782L176 941H251Z" glyph-name="Agrave" horiz-adv-x="614" unicode="À" /><glyph d="M173 247 91 0H27L268 700H345L587 0H520L436 247ZM190 301 418 301L306 639H303ZM347 941 422 941L342 782H287Z" glyph-name="Aacute" horiz-adv-x="614" unicode="Á" /><glyph d="M173 247 91 0H27L268 700H345L587 0H520L436 247ZM190 301 418 301L306 639H303ZM439 782 374 782L310 896L246 782H181L268 941H352Z" glyph-name="Acircumflex" horiz-adv-x="614" unicode="Â" /><glyph d="M173 247 91 0H27L268 700H345L587 0H520L436 247ZM190 301 418 301L306 639H303ZM173 805Q173 815 175 830Q177 845 184.5 858.5Q192 872 206.5 881.5Q221 891 246 891Q261 891 277 884.5Q293 878 309 870Q325 862 339.5 855.5Q354 849 364 849Q374 849 381 853.5Q388 858 388 878V889H442V876Q442 866 440 851Q438 836 430.5 822.5Q423 809 408.5 799.5Q394 790 369 790Q353 790 336 796.5Q319 803 303.5 811Q288 819 274 825.5Q260 832 251 832Q241 832 234 827.5Q227 823 227 803V792H173Z" glyph-name="Atilde" horiz-adv-x="614" unicode="Ã" /><glyph d="M173 247 91 0H27L268 700H345L587 0H520L436 247ZM190 301 418 301L306 639H303ZM180 827Q180 847 195 862Q210 877 230 877Q250 877 265.5 862Q281 847 281 827Q281 807 265.5 792Q250 777 230 777Q210 777 195 792Q180 807 180 827ZM338 827Q338 847 353 862Q368 877 388 877Q408 877 423.5 862Q439 847 439 827Q439 807 423.5 792Q408 777 388 777Q368 777 353 792Q338 807 338 827Z" glyph-name="Adieresis" horiz-adv-x="614" unicode="Ä" /><glyph d="M173 247 91 0H27L268 700H345L587 0H520L436 247ZM190 301 418 301L306 639H303ZM309 736Q287 736 267.5 744Q248 752 233 766.5Q218 781 209.5 800.5Q201 820 201 843Q201 866 209.5 886Q218 906 233 920.5Q248 935 267.5 943Q287 951 309 951Q331 951 351 943Q371 935 386 920.5Q401 906 409.5 886Q418 866 418 843Q418 820 409.5 800.5Q401 781 386 766.5Q371 752 351 744Q331 736 309 736ZM309 784Q334 784 349 801.5Q364 819 364 843Q364 868 349 885Q334 902 309 902Q284 902 269 885Q254 868 254 843Q254 819 269 801.5Q284 784 309 784Z" glyph-name="Aring" horiz-adv-x="614" unicode="Å" /><glyph d="M904 642 524 642V383H781V328H524V57H904V0H460V328H252L65 0H-10L402 700H904ZM431 642 283 383H460V642Z" glyph-name="AE" horiz-adv-x="939" unicode="Æ" /><glyph d="M367 -10Q299 -4 240.5 25Q182 54 138.5 101Q95 148 70 211.5Q45 275 45 350Q45 429 72.5 495.5Q100 562 148 610Q196 658 261 685Q326 712 400 712Q457 712 509 696Q561 680 603.5 649.5Q646 619 677.5 576Q709 533 726 479H661Q631 561 564 609Q497 657 400 657Q335 657 281 633.5Q227 610 188.5 569Q150 528 128.5 472Q107 416 107 350Q107 284 128.5 227.5Q150 171 188.5 130Q227 89 281 65.5Q335 42 400 42Q497 42 564 90Q631 138 661 220H726Q710 169 681.5 128.5Q653 88 614.5 58Q576 28 529.5 10.5Q483 -7 430 -11L367 -160H314Z" glyph-name="Ccedilla" horiz-adv-x="764" unicode="Ç" /><glyph d="M553 642 152 642V384H410V329H152V57H553V0H90V700H553ZM340 782 285 782L205 941H280Z" glyph-name="Egrave" horiz-adv-x="588" unicode="È" /><glyph d="M553 642 152 642V384H410V329H152V57H553V0H90V700H553ZM353 941 428 941L348 782H293Z" glyph-name="Eacute" horiz-adv-x="588" unicode="É" /><glyph d="M553 642 152 642V384H410V329H152V57H553V0H90V700H553ZM456 782 391 782L327 896L263 782H198L285 941H369Z" glyph-name="Ecircumflex" horiz-adv-x="588" unicode="Ê" /><glyph d="M553 642 152 642V384H410V329H152V57H553V0H90V700H553ZM187 827Q187 847 202 862Q217 877 237 877Q257 877 272.5 862Q288 847 288 827Q288 807 272.5 792Q257 777 237 777Q217 777 202 792Q187 807 187 827ZM345 827Q345 847 360 862Q375 877 395 877Q415 877 430.5 862Q446 847 446 827Q446 807 430.5 792Q415 777 395 777Q375 777 360 792Q345 807 345 827Z" glyph-name="Edieresis" horiz-adv-x="588" unicode="Ë" /><glyph d="M90 700 152 700V0H90ZM139 782 84 782L4 941H79Z" glyph-name="Igrave" horiz-adv-x="242" unicode="Ì" /><glyph d="M90 700 152 700V0H90ZM162 941 237 941L157 782H102Z" glyph-name="Iacute" horiz-adv-x="242" unicode="Í" /><glyph d="M90 700 152 700V0H90ZM254 782 189 782L125 896L61 782H-4L83 941H167Z" glyph-name="Icircumflex" horiz-adv-x="242" unicode="Î" /><glyph d="M90 700 152 700V0H90ZM-5 827Q-5 847 10 862Q25 877 45 877Q65 877 80.5 862Q96 847 96 827Q96 807 80.5 792Q65 777 45 777Q25 777 10 792Q-5 807 -5 827ZM153 827Q153 847 168 862Q183 877 203 877Q223 877 238.5 862Q254 847 254 827Q254 807 238.5 792Q223 777 203 777Q183 777 168 792Q153 807 153 827Z" glyph-name="Idieresis" horiz-adv-x="242" unicode="Ï" /><glyph d="M3 384 93 384V700H271Q361 700 430 674.5Q499 649 545.5 603Q592 557 615.5 492.5Q639 428 639 350Q639 272 615.5 207.5Q592 143 545.5 97Q499 51 430 25.5Q361 0 271 0H93V329H3ZM576 350Q576 423 554 478.5Q532 534 492 571Q452 608 395.5 626.5Q339 645 270 645H155V384H389V329H155V54H270Q339 54 395.5 72.5Q452 91 492 128.5Q532 166 554 221.5Q576 277 576 350Z" glyph-name="Eth" horiz-adv-x="685" unicode="Ð" /><glyph d="M149 0 90 0V700H176L513 90V700H572V0H495L149 623ZM196 805Q196 815 198 830Q200 845 207.5 858.5Q215 872 229.5 881.5Q244 891 269 891Q284 891 300 884.5Q316 878 332 870Q348 862 362.5 855.5Q377 849 387 849Q397 849 404 853.5Q411 858 411 878V889H465V876Q465 866 463 851Q461 836 453.5 822.5Q446 809 431.5 799.5Q417 790 392 790Q376 790 359 796.5Q342 803 326.5 811Q311 819 297 825.5Q283 832 274 832Q264 832 257 827.5Q250 823 250 803V792H196Z" glyph-name="Ntilde" horiz-adv-x="662" unicode="Ñ" /><glyph d="M44 350Q44 429 72 495.5Q100 562 148 610Q196 658 261 685Q326 712 399 712Q473 712 537.5 685Q602 658 650 610Q698 562 726 495.5Q754 429 754 350Q754 271 726 204.5Q698 138 650 90Q602 42 537.5 15Q473 -12 399 -12Q326 -12 261 15Q196 42 148 90Q100 138 72 204.5Q44 271 44 350ZM692 350Q692 416 670.5 472.5Q649 529 610.5 570Q572 611 518 634.5Q464 658 399 658Q334 658 280 634.5Q226 611 187.5 570Q149 529 127.5 472.5Q106 416 106 350Q106 284 127.5 227.5Q149 171 187.5 130Q226 89 280 65.5Q334 42 399 42Q464 42 518 65.5Q572 89 610.5 130Q649 171 670.5 227.5Q692 284 692 350ZM429 782 374 782L294 941H369Z" glyph-name="Ograve" horiz-adv-x="798" unicode="Ò" /><glyph d="M44 350Q44 429 72 495.5Q100 562 148 610Q196 658 261 685Q326 712 399 712Q473 712 537.5 685Q602 658 650 610Q698 562 726 495.5Q754 429 754 350Q754 271 726 204.5Q698 138 650 90Q602 42 537.5 15Q473 -12 399 -12Q326 -12 261 15Q196 42 148 90Q100 138 72 204.5Q44 271 44 350ZM692 350Q692 416 670.5 472.5Q649 529 610.5 570Q572 611 518 634.5Q464 658 399 658Q334 658 280 634.5Q226 611 187.5 570Q149 529 127.5 472.5Q106 416 106 350Q106 284 127.5 227.5Q149 171 187.5 130Q226 89 280 65.5Q334 42 399 42Q464 42 518 65.5Q572 89 610.5 130Q649 171 670.5 227.5Q692 284 692 350ZM439 941 514 941L434 782H379Z" glyph-name="Oacute" horiz-adv-x="798" unicode="Ó" /><glyph d="M44 350Q44 429 72 495.5Q100 562 148 610Q196 658 261 685Q326 712 399 712Q473 712 537.5 685Q602 658 650 610Q698 562 726 495.5Q754 429 754 350Q754 271 726 204.5Q698 138 650 90Q602 42 537.5 15Q473 -12 399 -12Q326 -12 261 15Q196 42 148 90Q100 138 72 204.5Q44 271 44 350ZM692 350Q692 416 670.5 472.5Q649 529 610.5 570Q572 611 518 634.5Q464 658 399 658Q334 658 280 634.5Q226 611 187.5 570Q149 529 127.5 472.5Q106 416 106 350Q106 284 127.5 227.5Q149 171 187.5 130Q226 89 280 65.5Q334 42 399 42Q464 42 518 65.5Q572 89 610.5 130Q649 171 670.5 227.5Q692 284 692 350ZM530 782 465 782L401 896L337 782H272L359 941H443Z" glyph-name="Ocircumflex" horiz-adv-x="798" unicode="Ô" /><glyph d="M44 350Q44 429 72 495.5Q100 562 148 610Q196 658 261 685Q326 712 399 712Q473 712 537.5 685Q602 658 650 610Q698 562 726 495.5Q754 429 754 350Q754 271 726 204.5Q698 138 650 90Q602 42 537.5 15Q473 -12 399 -12Q326 -12 261 15Q196 42 148 90Q100 138 72 204.5Q44 271 44 350ZM692 350Q692 416 670.5 472.5Q649 529 610.5 570Q572 611 518 634.5Q464 658 399 658Q334 658 280 634.5Q226 611 187.5 570Q149 529 127.5 472.5Q106 416 106 350Q106 284 127.5 227.5Q149 171 187.5 130Q226 89 280 65.5Q334 42 399 42Q464 42 518 65.5Q572 89 610.5 130Q649 171 670.5 227.5Q692 284 692 350ZM264 805Q264 815 266 830Q268 845 275.5 858.5Q283 872 297.5 881.5Q312 891 337 891Q352 891 368 884.5Q384 878 400 870Q416 862 430.5 855.5Q445 849 455 849Q465 849 472 853.5Q479 858 479 878V889H533V876Q533 866 531 851Q529 836 521.5 822.5Q514 809 499.5 799.5Q485 790 460 790Q444 790 427 796.5Q410 803 394.5 811Q379 819 365 825.5Q351 832 342 832Q332 832 325 827.5Q318 823 318 803V792H264Z" glyph-name="Otilde" horiz-adv-x="798" unicode="Õ" /><glyph d="M44 350Q44 429 72 495.5Q100 562 148 610Q196 658 261 685Q326 712 399 712Q473 712 537.5 685Q602 658 650 610Q698 562 726 495.5Q754 429 754 350Q754 271 726 204.5Q698 138 650 90Q602 42 537.5 15Q473 -12 399 -12Q326 -12 261 15Q196 42 148 90Q100 138 72 204.5Q44 271 44 350ZM692 350Q692 416 670.5 472.5Q649 529 610.5 570Q572 611 518 634.5Q464 658 399 658Q334 658 280 634.5Q226 611 187.5 570Q149 529 127.5 472.5Q106 416 106 350Q106 284 127.5 227.5Q149 171 187.5 130Q226 89 280 65.5Q334 42 399 42Q464 42 518 65.5Q572 89 610.5 130Q649 171 670.5 227.5Q692 284 692 350ZM272 827Q272 847 287 862Q302 877 322 877Q342 877 357.5 862Q373 847 373 827Q373 807 357.5 792Q342 777 322 777Q302 777 287 792Q272 807 272 827ZM430 827Q430 847 445 862Q460 877 480 877Q500 877 515.5 862Q531 847 531 827Q531 807 515.5 792Q500 777 480 777Q460 777 445 792Q430 807 430 827Z" glyph-name="Odieresis" horiz-adv-x="798" unicode="Ö" /><glyph d="M402 560 443 520L285 363L443 205L402 165L245 322L88 165L47 205L205 363L47 520L88 560L245 403Z" glyph-name="multiply" horiz-adv-x="490" unicode="×" /><glyph d="M44 350Q44 429 72 495.5Q100 562 148 610Q196 658 261 685Q326 712 399 712Q461 712 516.5 692.5Q572 673 617 638L682 712H752L657 603Q702 555 728 490.5Q754 426 754 350Q754 271 726 204.5Q698 138 650 90Q602 42 537.5 15Q473 -12 399 -12Q337 -12 282 6.5Q227 25 182 60L119 -12H49L143 95Q96 143 70 207.5Q44 272 44 350ZM106 350Q106 287 125.5 233Q145 179 180 137L581 597Q545 626 499 642Q453 658 399 658Q334 658 280 634.5Q226 611 187.5 570Q149 529 127.5 472.5Q106 416 106 350ZM692 350Q692 413 673 466Q654 519 619 560L218 101Q254 72 299.5 57Q345 42 399 42Q464 42 518 65.5Q572 89 610.5 130Q649 171 670.5 227.5Q692 284 692 350Z" glyph-name="Oslash" horiz-adv-x="797" unicode="Ø" /><glyph d="M314 -12Q254 -12 210.5 5.5Q167 23 138.5 54Q110 85 96.5 127.5Q83 170 83 219V700H145V220Q145 183 154.5 150Q164 117 185 93Q206 69 238 55Q270 41 315 41Q359 41 391 55Q423 69 444 93Q465 117 475 150Q485 183 485 220V700H545V220Q545 171 531.5 128.5Q518 86 489.5 54.5Q461 23 417.5 5.5Q374 -12 314 -12ZM341 782 286 782L206 941H281Z" glyph-name="Ugrave" horiz-adv-x="628" unicode="Ù" /><glyph d="M314 -12Q254 -12 210.5 5.5Q167 23 138.5 54Q110 85 96.5 127.5Q83 170 83 219V700H145V220Q145 183 154.5 150Q164 117 185 93Q206 69 238 55Q270 41 315 41Q359 41 391 55Q423 69 444 93Q465 117 475 150Q485 183 485 220V700H545V220Q545 171 531.5 128.5Q518 86 489.5 54.5Q461 23 417.5 5.5Q374 -12 314 -12ZM351 941 426 941L346 782H291Z" glyph-name="Uacute" horiz-adv-x="628" unicode="Ú" /><glyph d="M314 -12Q254 -12 210.5 5.5Q167 23 138.5 54Q110 85 96.5 127.5Q83 170 83 219V700H145V220Q145 183 154.5 150Q164 117 185 93Q206 69 238 55Q270 41 315 41Q359 41 391 55Q423 69 444 93Q465 117 475 150Q485 183 485 220V700H545V220Q545 171 531.5 128.5Q518 86 489.5 54.5Q461 23 417.5 5.5Q374 -12 314 -12ZM445 782 380 782L316 896L252 782H187L274 941H358Z" glyph-name="Ucircumflex" horiz-adv-x="628" unicode="Û" /><glyph d="M314 -12Q254 -12 210.5 5.5Q167 23 138.5 54Q110 85 96.5 127.5Q83 170 83 219V700H145V220Q145 183 154.5 150Q164 117 185 93Q206 69 238 55Q270 41 315 41Q359 41 391 55Q423 69 444 93Q465 117 475 150Q485 183 485 220V700H545V220Q545 171 531.5 128.5Q518 86 489.5 54.5Q461 23 417.5 5.5Q374 -12 314 -12ZM187 827Q187 847 202 862Q217 877 237 877Q257 877 272.5 862Q288 847 288 827Q288 807 272.5 792Q257 777 237 777Q217 777 202 792Q187 807 187 827ZM345 827Q345 847 360 862Q375 877 395 877Q415 877 430.5 862Q446 847 446 827Q446 807 430.5 792Q415 777 395 777Q375 777 360 792Q345 807 345 827Z" glyph-name="Udieresis" horiz-adv-x="628" unicode="Ü" /><glyph d="M10 700 85 700L313 366H314L541 700H614L344 312V0H281V310ZM340 941 415 941L335 782H280Z" glyph-name="Yacute" horiz-adv-x="624" unicode="Ý" /><glyph d="M155 0 90 0V700H155V568H280Q339 568 383.5 551.5Q428 535 458 506Q488 477 503 438.5Q518 400 518 356Q518 312 503 273Q488 234 458 204.5Q428 175 383.5 157.5Q339 140 280 140H155ZM155 511 155 197H285Q320 197 350.5 207.5Q381 218 403.5 238Q426 258 439.5 287.5Q453 317 453 356Q453 395 439.5 424Q426 453 403.5 472.5Q381 492 350.5 501.5Q320 511 285 511Z" glyph-name="Thorn" horiz-adv-x="551" unicode="Þ" /><glyph d="M248 702Q293 702 324.5 687.5Q356 673 376 651Q396 629 405 602.5Q414 576 414 552Q414 516 398.5 486.5Q383 457 364.5 431Q346 405 330.5 382Q315 359 315 335Q315 311 337.5 290.5Q360 270 387 246.5Q414 223 436.5 192.5Q459 162 459 118Q459 86 447.5 62Q436 38 416 21.5Q396 5 369.5 -3.5Q343 -12 312 -12Q292 -12 270.5 -9Q249 -6 229 2L249 51Q261 46 276 42Q291 38 306 38Q351 38 375.5 59.5Q400 81 400 119Q400 152 377.5 175Q355 198 328 220Q301 242 278.5 268Q256 294 256 333Q256 360 271.5 387Q287 414 305 441Q323 468 338.5 495Q354 522 354 550Q354 590 327.5 618.5Q301 647 249 647Q226 647 204.5 638.5Q183 630 167 613Q151 596 141.5 570.5Q132 545 132 510V0H71V505Q71 562 88.5 600Q106 638 132 660.5Q158 683 189.5 692.5Q221 702 248 702Z" glyph-name="germandbls" horiz-adv-x="486" unicode="ß" /><glyph d="M201 40Q226 40 249.5 47Q273 54 291.5 68.5Q310 83 321 105Q332 127 332 157V218Q324 208 308 204.5Q292 201 275 201H193Q144 201 121 179.5Q98 158 98 123Q98 109 103.5 94Q109 79 121.5 67Q134 55 153.5 47.5Q173 40 201 40ZM332 305Q332 330 323 348Q314 366 298.5 377Q283 388 263 393.5Q243 399 221 399Q179 399 146 384.5Q113 370 85 351L56 397Q79 414 123 433.5Q167 453 225 453Q304 453 348.5 412.5Q393 372 393 303V0H332V55Q313 22 273.5 5Q234 -12 194 -12Q122 -12 78 25.5Q34 63 34 123Q34 184 74 218Q114 252 183 252H289Q312 252 322 263Q332 274 332 292ZM240 529 185 529L105 688H180Z" glyph-name="agrave" horiz-adv-x="459" unicode="à" /><glyph d="M201 40Q226 40 249.5 47Q273 54 291.5 68.5Q310 83 321 105Q332 127 332 157V218Q324 208 308 204.5Q292 201 275 201H193Q144 201 121 179.5Q98 158 98 123Q98 109 103.5 94Q109 79 121.5 67Q134 55 153.5 47.5Q173 40 201 40ZM332 305Q332 330 323 348Q314 366 298.5 377Q283 388 263 393.5Q243 399 221 399Q179 399 146 384.5Q113 370 85 351L56 397Q79 414 123 433.5Q167 453 225 453Q304 453 348.5 412.5Q393 372 393 303V0H332V55Q313 22 273.5 5Q234 -12 194 -12Q122 -12 78 25.5Q34 63 34 123Q34 184 74 218Q114 252 183 252H289Q312 252 322 263Q332 274 332 292ZM269 688 344 688L264 529H209Z" glyph-name="aacute" horiz-adv-x="459" unicode="á" /><glyph d="M201 40Q226 40 249.5 47Q273 54 291.5 68.5Q310 83 321 105Q332 127 332 157V218Q324 208 308 204.5Q292 201 275 201H193Q144 201 121 179.5Q98 158 98 123Q98 109 103.5 94Q109 79 121.5 67Q134 55 153.5 47.5Q173 40 201 40ZM332 305Q332 330 323 348Q314 366 298.5 377Q283 388 263 393.5Q243 399 221 399Q179 399 146 384.5Q113 370 85 351L56 397Q79 414 123 433.5Q167 453 225 453Q304 453 348.5 412.5Q393 372 393 303V0H332V55Q313 22 273.5 5Q234 -12 194 -12Q122 -12 78 25.5Q34 63 34 123Q34 184 74 218Q114 252 183 252H289Q312 252 322 263Q332 274 332 292ZM356 529 291 529L227 643L163 529H98L185 688H269Z" glyph-name="acircumflex" horiz-adv-x="459" unicode="â" /><glyph d="M201 40Q226 40 249.5 47Q273 54 291.5 68.5Q310 83 321 105Q332 127 332 157V218Q324 208 308 204.5Q292 201 275 201H193Q144 201 121 179.5Q98 158 98 123Q98 109 103.5 94Q109 79 121.5 67Q134 55 153.5 47.5Q173 40 201 40ZM332 305Q332 330 323 348Q314 366 298.5 377Q283 388 263 393.5Q243 399 221 399Q179 399 146 384.5Q113 370 85 351L56 397Q79 414 123 433.5Q167 453 225 453Q304 453 348.5 412.5Q393 372 393 303V0H332V55Q313 22 273.5 5Q234 -12 194 -12Q122 -12 78 25.5Q34 63 34 123Q34 184 74 218Q114 252 183 252H289Q312 252 322 263Q332 274 332 292ZM90 552Q90 562 92 577Q94 592 101.5 605.5Q109 619 123.5 628.5Q138 638 163 638Q178 638 194 631.5Q210 625 226 617Q242 609 256.5 602.5Q271 596 281 596Q291 596 298 600.5Q305 605 305 625V636H359V623Q359 613 357 598Q355 583 347.5 569.5Q340 556 325.5 546.5Q311 537 286 537Q270 537 253 543.5Q236 550 220.5 558Q205 566 191 572.5Q177 579 168 579Q158 579 151 574.5Q144 570 144 550V539H90Z" glyph-name="atilde" horiz-adv-x="459" unicode="ã" /><glyph d="M201 40Q226 40 249.5 47Q273 54 291.5 68.5Q310 83 321 105Q332 127 332 157V218Q324 208 308 204.5Q292 201 275 201H193Q144 201 121 179.5Q98 158 98 123Q98 109 103.5 94Q109 79 121.5 67Q134 55 153.5 47.5Q173 40 201 40ZM332 305Q332 330 323 348Q314 366 298.5 377Q283 388 263 393.5Q243 399 221 399Q179 399 146 384.5Q113 370 85 351L56 397Q79 414 123 433.5Q167 453 225 453Q304 453 348.5 412.5Q393 372 393 303V0H332V55Q313 22 273.5 5Q234 -12 194 -12Q122 -12 78 25.5Q34 63 34 123Q34 184 74 218Q114 252 183 252H289Q312 252 322 263Q332 274 332 292ZM97 574Q97 594 112 609Q127 624 147 624Q167 624 182.5 609Q198 594 198 574Q198 554 182.5 539Q167 524 147 524Q127 524 112 539Q97 554 97 574ZM255 574Q255 594 270 609Q285 624 305 624Q325 624 340.5 609Q356 594 356 574Q356 554 340.5 539Q325 524 305 524Q285 524 270 539Q255 554 255 574Z" glyph-name="adieresis" horiz-adv-x="459" unicode="ä" /><glyph d="M201 40Q226 40 249.5 47Q273 54 291.5 68.5Q310 83 321 105Q332 127 332 157V218Q324 208 308 204.5Q292 201 275 201H193Q144 201 121 179.5Q98 158 98 123Q98 109 103.5 94Q109 79 121.5 67Q134 55 153.5 47.5Q173 40 201 40ZM332 305Q332 330 323 348Q314 366 298.5 377Q283 388 263 393.5Q243 399 221 399Q179 399 146 384.5Q113 370 85 351L56 397Q79 414 123 433.5Q167 453 225 453Q304 453 348.5 412.5Q393 372 393 303V0H332V55Q313 22 273.5 5Q234 -12 194 -12Q122 -12 78 25.5Q34 63 34 123Q34 184 74 218Q114 252 183 252H289Q312 252 322 263Q332 274 332 292ZM226 496Q184 496 153.5 524.5Q123 553 123 598Q123 643 153.5 671.5Q184 700 226 700Q268 700 298.5 671.5Q329 643 329 598Q329 553 298.5 524.5Q268 496 226 496ZM226 542Q249 542 263.5 558.5Q278 575 278 598Q278 621 263.5 637.5Q249 654 226 654Q203 654 188.5 637.5Q174 621 174 598Q174 575 188.5 558.5Q203 542 226 542Z" glyph-name="aring" horiz-adv-x="459" unicode="å" /><glyph d="M537 399Q474 399 437.5 357Q401 315 393 252H676Q673 283 663 310Q653 337 635 356.5Q617 376 592.5 387.5Q568 399 537 399ZM201 40Q226 40 249.5 47Q273 54 291.5 68.5Q310 83 321 105Q332 127 332 157V218Q324 208 308 204.5Q292 201 275 201H193Q144 201 121 179.5Q98 158 98 123Q98 109 103.5 94Q109 79 121.5 67Q134 55 153.5 47.5Q173 40 201 40ZM224 453Q284 453 322.5 429Q361 405 377 367Q401 405 440.5 429Q480 453 538 453Q579 453 616 437.5Q653 422 681 391.5Q709 361 725 314Q741 267 741 204V202H393Q395 168 406.5 139Q418 110 437.5 88.5Q457 67 484 54.5Q511 42 543 42Q587 42 616.5 61.5Q646 81 666 118H733Q707 57 657.5 22.5Q608 -12 542 -12Q479 -12 432.5 19Q386 50 366 96Q344 39 300.5 13.5Q257 -12 196 -12Q160 -12 130 -2Q100 8 79 26Q58 44 46 68.5Q34 93 34 123Q34 184 74 218Q114 252 183 252H289Q312 252 322 263Q332 274 332 292V305Q332 330 323 348Q314 366 298.5 377Q283 388 263 393.5Q243 399 221 399Q179 399 146 384.5Q113 370 85 351L56 397Q79 414 122.5 433.5Q166 453 224 453Z" glyph-name="ae" horiz-adv-x="776" unicode="æ" /><glyph d="M232 -9Q191 -3 156 16.5Q121 36 95.5 66Q70 96 55.5 135Q41 174 41 220Q41 271 59 313.5Q77 356 107.5 387Q138 418 179.5 435.5Q221 453 269 453Q332 453 385 422.5Q438 392 466 341L414 311Q394 351 356.5 375Q319 399 269 399Q232 399 201.5 385Q171 371 149 347Q127 323 115 290.5Q103 258 103 220Q103 182 115 149.5Q127 117 149 93Q171 69 201.5 55Q232 41 269 41Q319 41 356.5 65Q394 89 414 130L466 100Q441 54 395.5 25Q350 -4 294 -10L231 -160H178Z" glyph-name="ccedilla" horiz-adv-x="499" unicode="ç" /><glyph d="M103 202Q106 168 118.5 138.5Q131 109 152 87.5Q173 66 201.5 54Q230 42 264 42Q309 42 345 62Q381 82 401 118H472Q444 58 388.5 23Q333 -12 264 -12Q216 -12 175 5.5Q134 23 104 53.5Q74 84 57 126.5Q40 169 40 220Q40 271 57 313.5Q74 356 104 387Q134 418 175 435.5Q216 453 263 453Q306 453 346 437.5Q386 422 417 391.5Q448 361 466.5 314Q485 267 485 204V202ZM263 399Q230 399 202.5 388Q175 377 155 357Q135 337 122 310.5Q109 284 105 252H417Q414 282 402 308.5Q390 335 370 355.5Q350 376 323 387.5Q296 399 263 399ZM279 529 224 529L144 688H219Z" glyph-name="egrave" horiz-adv-x="518" unicode="è" /><glyph d="M103 202Q106 168 118.5 138.5Q131 109 152 87.5Q173 66 201.5 54Q230 42 264 42Q309 42 345 62Q381 82 401 118H472Q444 58 388.5 23Q333 -12 264 -12Q216 -12 175 5.5Q134 23 104 53.5Q74 84 57 126.5Q40 169 40 220Q40 271 57 313.5Q74 356 104 387Q134 418 175 435.5Q216 453 263 453Q306 453 346 437.5Q386 422 417 391.5Q448 361 466.5 314Q485 267 485 204V202ZM263 399Q230 399 202.5 388Q175 377 155 357Q135 337 122 310.5Q109 284 105 252H417Q414 282 402 308.5Q390 335 370 355.5Q350 376 323 387.5Q296 399 263 399ZM309 688 384 688L304 529H249Z" glyph-name="eacute" horiz-adv-x="518" unicode="é" /><glyph d="M103 202Q106 168 118.5 138.5Q131 109 152 87.5Q173 66 201.5 54Q230 42 264 42Q309 42 345 62Q381 82 401 118H472Q444 58 388.5 23Q333 -12 264 -12Q216 -12 175 5.5Q134 23 104 53.5Q74 84 57 126.5Q40 169 40 220Q40 271 57 313.5Q74 356 104 387Q134 418 175 435.5Q216 453 263 453Q306 453 346 437.5Q386 422 417 391.5Q448 361 466.5 314Q485 267 485 204V202ZM263 399Q230 399 202.5 388Q175 377 155 357Q135 337 122 310.5Q109 284 105 252H417Q414 282 402 308.5Q390 335 370 355.5Q350 376 323 387.5Q296 399 263 399ZM391 529 326 529L262 643L198 529H133L220 688H304Z" glyph-name="ecircumflex" horiz-adv-x="518" unicode="ê" /><glyph d="M103 202Q106 168 118.5 138.5Q131 109 152 87.5Q173 66 201.5 54Q230 42 264 42Q309 42 345 62Q381 82 401 118H472Q444 58 388.5 23Q333 -12 264 -12Q216 -12 175 5.5Q134 23 104 53.5Q74 84 57 126.5Q40 169 40 220Q40 271 57 313.5Q74 356 104 387Q134 418 175 435.5Q216 453 263 453Q306 453 346 437.5Q386 422 417 391.5Q448 361 466.5 314Q485 267 485 204V202ZM263 399Q230 399 202.5 388Q175 377 155 357Q135 337 122 310.5Q109 284 105 252H417Q414 282 402 308.5Q390 335 370 355.5Q350 376 323 387.5Q296 399 263 399ZM133 574Q133 594 148 609Q163 624 183 624Q203 624 218.5 609Q234 594 234 574Q234 554 218.5 539Q203 524 183 524Q163 524 148 539Q133 554 133 574ZM291 574Q291 594 306 609Q321 624 341 624Q361 624 376.5 609Q392 594 392 574Q392 554 376.5 539Q361 524 341 524Q321 524 306 539Q291 554 291 574Z" glyph-name="edieresis" horiz-adv-x="518" unicode="ë" /><glyph d="M136 529 81 529L1 688H76ZM148 0 87 0V390H17V441H148Z" glyph-name="igrave" horiz-adv-x="219" unicode="ì" /><glyph d="M151 688 226 688L146 529H91ZM148 0 87 0V390H17V441H148Z" glyph-name="iacute" horiz-adv-x="219" unicode="í" /><glyph d="M148 0 87 0V390H17V441H148ZM243 529 178 529L114 643L50 529H-15L72 688H156Z" glyph-name="icircumflex" horiz-adv-x="219" unicode="î" /><glyph d="M-15 574Q-15 594 0 609Q15 624 35 624Q55 624 70.5 609Q86 594 86 574Q86 554 70.5 539Q55 524 35 524Q15 524 0 539Q-15 554 -15 574ZM143 574Q143 594 158 609Q173 624 193 624Q213 624 228.5 609Q244 594 244 574Q244 554 228.5 539Q213 524 193 524Q173 524 158 539Q143 554 143 574ZM148 0 87 0V390H17V441H148Z" glyph-name="idieresis" horiz-adv-x="219" unicode="ï" /><glyph d="M208 689Q223 679 244.5 663.5Q266 648 290 628L384 693L411 654L327 595Q358 565 388 527.5Q418 490 442 445Q466 400 481 348.5Q496 297 496 239Q496 182 478.5 136Q461 90 430.5 57Q400 24 358 6Q316 -12 268 -12Q221 -12 179.5 5.5Q138 23 107 53.5Q76 84 58 126.5Q40 169 40 220Q40 271 57.5 313.5Q75 356 105.5 387Q136 418 177.5 435.5Q219 453 266 453Q280 453 297.5 450Q315 447 333 439.5Q351 432 369 421Q387 410 400 393L405 397Q386 439 351.5 481.5Q317 524 279 562L190 500L163 539L244 595Q206 629 174 653Q142 677 126 687ZM434 220Q434 258 422 290.5Q410 323 388 347Q366 371 335.5 384.5Q305 398 268 398Q231 398 200.5 384.5Q170 371 148 347Q126 323 114 290.5Q102 258 102 220Q102 183 114 150.5Q126 118 148 94Q170 70 200.5 56Q231 42 268 42Q305 42 335.5 56Q366 70 388 94Q410 118 422 150.5Q434 183 434 220Z" glyph-name="eth" horiz-adv-x="539" unicode="ð" /><glyph d="M388 290Q388 344 357.5 371.5Q327 399 279 399Q239 399 201.5 378.5Q164 358 132 321V0H71V441H131V378Q161 414 201 433.5Q241 453 289 453Q367 453 408 409.5Q449 366 449 293V0H388ZM122 552Q122 562 124 577Q126 592 133.5 605.5Q141 619 155.5 628.5Q170 638 195 638Q210 638 226 631.5Q242 625 258 617Q274 609 288.5 602.5Q303 596 313 596Q323 596 330 600.5Q337 605 337 625V636H391V623Q391 613 389 598Q387 583 379.5 569.5Q372 556 357.5 546.5Q343 537 318 537Q302 537 285 543.5Q268 550 252.5 558Q237 566 223 572.5Q209 579 200 579Q190 579 183 574.5Q176 570 176 550V539H122Z" glyph-name="ntilde" horiz-adv-x="515" unicode="ñ" /><glyph d="M39 220Q39 271 57 313.5Q75 356 106 387Q137 418 178.5 435.5Q220 453 267 453Q315 453 356.5 435.5Q398 418 429 387Q460 356 478 313.5Q496 271 496 220Q496 169 478 126.5Q460 84 429 53.5Q398 23 356.5 5.5Q315 -12 267 -12Q220 -12 178.5 5.5Q137 23 106 53.5Q75 84 57 126.5Q39 169 39 220ZM434 220Q434 258 422 290.5Q410 323 388 347Q366 371 335 385Q304 399 267 399Q230 399 199.5 385Q169 371 147 347Q125 323 113 290.5Q101 258 101 220Q101 182 113 149.5Q125 117 147 93Q169 69 199.5 55Q230 41 267 41Q304 41 335 55Q366 69 388 93Q410 117 422 149.5Q434 182 434 220ZM280 529 225 529L145 688H220Z" glyph-name="ograve" horiz-adv-x="535" unicode="ò" /><glyph d="M39 220Q39 271 57 313.5Q75 356 106 387Q137 418 178.5 435.5Q220 453 267 453Q315 453 356.5 435.5Q398 418 429 387Q460 356 478 313.5Q496 271 496 220Q496 169 478 126.5Q460 84 429 53.5Q398 23 356.5 5.5Q315 -12 267 -12Q220 -12 178.5 5.5Q137 23 106 53.5Q75 84 57 126.5Q39 169 39 220ZM434 220Q434 258 422 290.5Q410 323 388 347Q366 371 335 385Q304 399 267 399Q230 399 199.5 385Q169 371 147 347Q125 323 113 290.5Q101 258 101 220Q101 182 113 149.5Q125 117 147 93Q169 69 199.5 55Q230 41 267 41Q304 41 335 55Q366 69 388 93Q410 117 422 149.5Q434 182 434 220ZM313 688 388 688L308 529H253Z" glyph-name="oacute" horiz-adv-x="535" unicode="ó" /><glyph d="M39 220Q39 271 57 313.5Q75 356 106 387Q137 418 178.5 435.5Q220 453 267 453Q315 453 356.5 435.5Q398 418 429 387Q460 356 478 313.5Q496 271 496 220Q496 169 478 126.5Q460 84 429 53.5Q398 23 356.5 5.5Q315 -12 267 -12Q220 -12 178.5 5.5Q137 23 106 53.5Q75 84 57 126.5Q39 169 39 220ZM434 220Q434 258 422 290.5Q410 323 388 347Q366 371 335 385Q304 399 267 399Q230 399 199.5 385Q169 371 147 347Q125 323 113 290.5Q101 258 101 220Q101 182 113 149.5Q125 117 147 93Q169 69 199.5 55Q230 41 267 41Q304 41 335 55Q366 69 388 93Q410 117 422 149.5Q434 182 434 220ZM396 529 331 529L267 643L203 529H138L225 688H309Z" glyph-name="ocircumflex" horiz-adv-x="535" unicode="ô" /><glyph d="M39 220Q39 271 57 313.5Q75 356 106 387Q137 418 178.5 435.5Q220 453 267 453Q315 453 356.5 435.5Q398 418 429 387Q460 356 478 313.5Q496 271 496 220Q496 169 478 126.5Q460 84 429 53.5Q398 23 356.5 5.5Q315 -12 267 -12Q220 -12 178.5 5.5Q137 23 106 53.5Q75 84 57 126.5Q39 169 39 220ZM434 220Q434 258 422 290.5Q410 323 388 347Q366 371 335 385Q304 399 267 399Q230 399 199.5 385Q169 371 147 347Q125 323 113 290.5Q101 258 101 220Q101 182 113 149.5Q125 117 147 93Q169 69 199.5 55Q230 41 267 41Q304 41 335 55Q366 69 388 93Q410 117 422 149.5Q434 182 434 220ZM130 552Q130 562 132 577Q134 592 141.5 605.5Q149 619 163.5 628.5Q178 638 203 638Q218 638 234 631.5Q250 625 266 617Q282 609 296.5 602.5Q311 596 321 596Q331 596 338 600.5Q345 605 345 625V636H399V623Q399 613 397 598Q395 583 387.5 569.5Q380 556 365.5 546.5Q351 537 326 537Q310 537 293 543.5Q276 550 260.5 558Q245 566 231 572.5Q217 579 208 579Q198 579 191 574.5Q184 570 184 550V539H130Z" glyph-name="otilde" horiz-adv-x="535" unicode="õ" /><glyph d="M39 220Q39 271 57 313.5Q75 356 106 387Q137 418 178.5 435.5Q220 453 267 453Q315 453 356.5 435.5Q398 418 429 387Q460 356 478 313.5Q496 271 496 220Q496 169 478 126.5Q460 84 429 53.5Q398 23 356.5 5.5Q315 -12 267 -12Q220 -12 178.5 5.5Q137 23 106 53.5Q75 84 57 126.5Q39 169 39 220ZM434 220Q434 258 422 290.5Q410 323 388 347Q366 371 335 385Q304 399 267 399Q230 399 199.5 385Q169 371 147 347Q125 323 113 290.5Q101 258 101 220Q101 182 113 149.5Q125 117 147 93Q169 69 199.5 55Q230 41 267 41Q304 41 335 55Q366 69 388 93Q410 117 422 149.5Q434 182 434 220ZM137 574Q137 594 152 609Q167 624 187 624Q207 624 222.5 609Q238 594 238 574Q238 554 222.5 539Q207 524 187 524Q167 524 152 539Q137 554 137 574ZM295 574Q295 594 310 609Q325 624 345 624Q365 624 380.5 609Q396 594 396 574Q396 554 380.5 539Q365 524 345 524Q325 524 310 539Q295 554 295 574Z" glyph-name="odieresis" horiz-adv-x="535" unicode="ö" /><glyph d="M178 185Q178 211 195.5 229Q213 247 239 247Q265 247 282.5 229Q300 211 300 185Q300 159 282.5 141.5Q265 124 239 124Q213 124 195.5 141.5Q178 159 178 185ZM178 521Q178 547 195.5 565Q213 583 239 583Q265 583 282.5 565Q300 547 300 521Q300 495 282.5 477.5Q265 460 239 460Q213 460 195.5 477.5Q178 495 178 521ZM450 327 30 327V380H450Z" glyph-name="divide" horiz-adv-x="480" unicode="÷" /><glyph d="M39 220Q39 271 57 313.5Q75 356 106 387Q137 418 178.5 435.5Q220 453 267 453Q302 453 334.5 443Q367 433 394 415L425 453H490L433 383Q462 352 479 310.5Q496 269 496 220Q496 169 478 126.5Q460 84 429 53.5Q398 23 356.5 5.5Q315 -12 267 -12Q196 -12 140 25L109 -12H44L101 58Q72 89 55.5 130Q39 171 39 220ZM434 220Q434 254 424 284.5Q414 315 396 338L175 68Q216 41 267 41Q304 41 335 55Q366 69 388 93Q410 117 422 149.5Q434 182 434 220ZM101 220Q101 186 111 156Q121 126 138 103L358 372Q318 399 267 399Q230 399 199.5 385Q169 371 147 347Q125 323 113 290.5Q101 258 101 220Z" glyph-name="oslash" horiz-adv-x="535" unicode="ø" /><glyph d="M254 -12Q208 -12 172.5 1.5Q137 15 113 38Q89 61 77 91.5Q65 122 65 157V441H126V163Q126 103 162.5 72.5Q199 42 254 42Q309 42 345.5 72.5Q382 103 382 163V441H443V157Q443 122 431 91.5Q419 61 395 38Q371 15 335.5 1.5Q300 -12 254 -12ZM316 529 261 529L181 688H256Z" glyph-name="ugrave" horiz-adv-x="508" unicode="ù" /><glyph d="M254 -12Q208 -12 172.5 1.5Q137 15 113 38Q89 61 77 91.5Q65 122 65 157V441H126V163Q126 103 162.5 72.5Q199 42 254 42Q309 42 345.5 72.5Q382 103 382 163V441H443V157Q443 122 431 91.5Q419 61 395 38Q371 15 335.5 1.5Q300 -12 254 -12ZM283 688 358 688L278 529H223Z" glyph-name="uacute" horiz-adv-x="508" unicode="ú" /><glyph d="M254 -12Q208 -12 172.5 1.5Q137 15 113 38Q89 61 77 91.5Q65 122 65 157V441H126V163Q126 103 162.5 72.5Q199 42 254 42Q309 42 345.5 72.5Q382 103 382 163V441H443V157Q443 122 431 91.5Q419 61 395 38Q371 15 335.5 1.5Q300 -12 254 -12ZM382 529 317 529L253 643L189 529H124L211 688H295Z" glyph-name="ucircumflex" horiz-adv-x="508" unicode="û" /><glyph d="M254 -12Q208 -12 172.5 1.5Q137 15 113 38Q89 61 77 91.5Q65 122 65 157V441H126V163Q126 103 162.5 72.5Q199 42 254 42Q309 42 345.5 72.5Q382 103 382 163V441H443V157Q443 122 431 91.5Q419 61 395 38Q371 15 335.5 1.5Q300 -12 254 -12ZM124 574Q124 594 139 609Q154 624 174 624Q194 624 209.5 609Q225 594 225 574Q225 554 209.5 539Q194 524 174 524Q154 524 139 539Q124 554 124 574ZM282 574Q282 594 297 609Q312 624 332 624Q352 624 367.5 609Q383 594 383 574Q383 554 367.5 539Q352 524 332 524Q312 524 297 539Q282 554 282 574Z" glyph-name="udieresis" horiz-adv-x="508" unicode="ü" /><glyph d="M214 0 192 0L28 441H96L234 49L376 441H441L244 -78Q235 -102 224.5 -120Q214 -138 200 -150Q186 -162 166 -168.5Q146 -175 118 -175H67V-124H117Q150 -124 165 -107Q180 -90 193 -56ZM261 688 336 688L256 529H201Z" glyph-name="yacute" horiz-adv-x="467" unicode="ý" /><glyph d="M303 -12Q246 -12 199.5 15.5Q153 43 133 85V-175H71V700H133V353Q143 374 160.5 392.5Q178 411 200.5 424.5Q223 438 249.5 445.5Q276 453 304 453Q352 453 392.5 435.5Q433 418 462.5 387Q492 356 508.5 313.5Q525 271 525 220Q525 169 508 126.5Q491 84 461 53.5Q431 23 390.5 5.5Q350 -12 303 -12ZM461 220Q461 258 449.5 290.5Q438 323 416.5 347Q395 371 365 384.5Q335 398 299 398Q262 398 231.5 384.5Q201 371 179 347Q157 323 144.5 290.5Q132 258 132 220Q132 183 144.5 150.5Q157 118 179 94Q201 70 231.5 56.5Q262 43 299 43Q335 43 365 56.5Q395 70 416.5 94Q438 118 449.5 150.5Q461 183 461 220Z" glyph-name="thorn" horiz-adv-x="565" unicode="þ" /><glyph d="M214 0 192 0L28 441H96L234 49L376 441H441L244 -78Q235 -102 224.5 -120Q214 -138 200 -150Q186 -162 166 -168.5Q146 -175 118 -175H67V-124H117Q150 -124 165 -107Q180 -90 193 -56ZM104 574Q104 594 119 609Q134 624 154 624Q174 624 189.5 609Q205 594 205 574Q205 554 189.5 539Q174 524 154 524Q134 524 119 539Q104 554 104 574ZM262 574Q262 594 277 609Q292 624 312 624Q332 624 347.5 609Q363 594 363 574Q363 554 347.5 539Q332 524 312 524Q292 524 277 539Q262 554 262 574Z" glyph-name="ydieresis" horiz-adv-x="467" unicode="ÿ" /><glyph d="M173 247 91 0H27L268 700H345L587 0H520L436 247ZM190 301 418 301L306 639H303ZM177 858 435 858V806H177Z" glyph-name="Amacron" horiz-adv-x="614" unicode="Ā" /><glyph d="M201 40Q226 40 249.5 47Q273 54 291.5 68.5Q310 83 321 105Q332 127 332 157V218Q324 208 308 204.5Q292 201 275 201H193Q144 201 121 179.5Q98 158 98 123Q98 109 103.5 94Q109 79 121.5 67Q134 55 153.5 47.5Q173 40 201 40ZM332 305Q332 330 323 348Q314 366 298.5 377Q283 388 263 393.5Q243 399 221 399Q179 399 146 384.5Q113 370 85 351L56 397Q79 414 123 433.5Q167 453 225 453Q304 453 348.5 412.5Q393 372 393 303V0H332V55Q313 22 273.5 5Q234 -12 194 -12Q122 -12 78 25.5Q34 63 34 123Q34 184 74 218Q114 252 183 252H289Q312 252 322 263Q332 274 332 292ZM100 599 358 599V547H100Z" glyph-name="amacron" horiz-adv-x="459" unicode="ā" /><glyph d="M173 247 91 0H27L268 700H345L587 0H520L436 247ZM190 301 418 301L306 639H303ZM306 828Q337 828 349 847.5Q361 867 361 903V923H415V880Q412 829 381.5 803.5Q351 778 306 778Q261 778 230.5 803.5Q200 829 197 880V923H250V891Q250 860 265 844Q280 828 306 828Z" glyph-name="Abreve" horiz-adv-x="614" unicode="Ă" /><glyph d="M201 40Q226 40 249.5 47Q273 54 291.5 68.5Q310 83 321 105Q332 127 332 157V218Q324 208 308 204.5Q292 201 275 201H193Q144 201 121 179.5Q98 158 98 123Q98 109 103.5 94Q109 79 121.5 67Q134 55 153.5 47.5Q173 40 201 40ZM332 305Q332 330 323 348Q314 366 298.5 377Q283 388 263 393.5Q243 399 221 399Q179 399 146 384.5Q113 370 85 351L56 397Q79 414 123 433.5Q167 453 225 453Q304 453 348.5 412.5Q393 372 393 303V0H332V55Q313 22 273.5 5Q234 -12 194 -12Q122 -12 78 25.5Q34 63 34 123Q34 184 74 218Q114 252 183 252H289Q312 252 322 263Q332 274 332 292ZM229 569Q260 569 272 588.5Q284 608 284 644V664H338V621Q335 570 304.5 544.5Q274 519 229 519Q184 519 153.5 544.5Q123 570 120 621V664H173V632Q173 601 188 585Q203 569 229 569Z" glyph-name="abreve" horiz-adv-x="459" unicode="ă" /><glyph d="M173 247 91 0H27L268 700H345L587 0H567Q555 -9 542 -19Q529 -29 517.5 -40Q506 -51 499 -64Q492 -77 492 -92Q492 -115 507.5 -126.5Q523 -138 547 -138Q575 -138 602 -125V-169Q593 -173 582 -176Q572 -179 560 -181Q548 -183 534 -183Q484 -183 459 -157Q434 -131 434 -100Q434 -80 442.5 -63.5Q451 -47 463.5 -34Q476 -21 491 -11Q506 -1 518 6L436 247ZM190 301 418 301L306 639H303Z" glyph-name="Aogonek" horiz-adv-x="614" unicode="Ą" /><glyph d="M332 305Q332 330 323 348Q314 366 298.5 377Q283 388 263 393.5Q243 399 221 399Q179 399 146 384.5Q113 370 85 351L56 397Q79 414 123 433.5Q167 453 225 453Q304 453 348.5 412.5Q393 372 393 303V0H385Q373 -9 360 -19Q347 -29 335.5 -40Q324 -51 317 -64Q310 -77 310 -92Q310 -115 325.5 -126.5Q341 -138 365 -138Q393 -138 420 -125V-169Q411 -173 400 -176Q390 -179 378 -181Q366 -183 352 -183Q302 -183 277 -157Q252 -131 252 -100Q252 -81 260 -65Q268 -49 280 -36Q292 -23 306 -13.5Q320 -4 332 3V55Q313 22 273.5 5Q234 -12 194 -12Q122 -12 78 25.5Q34 63 34 123Q34 184 74 218Q114 252 183 252H289Q312 252 322 263Q332 274 332 292ZM201 40Q226 40 249.5 47Q273 54 291.5 68.5Q310 83 321 105Q332 127 332 157V218Q324 208 308 204.5Q292 201 275 201H193Q144 201 121 179.5Q98 158 98 123Q98 109 103.5 94Q109 79 121.5 67Q134 55 153.5 47.5Q173 40 201 40Z" glyph-name="aogonek" horiz-adv-x="459" unicode="ą" /><glyph d="M399 712Q456 712 508 696Q560 680 602.5 649.5Q645 619 676.5 576Q708 533 725 479H660Q630 561 563 609Q496 657 399 657Q334 657 280 633.5Q226 610 187.5 569Q149 528 127.5 472Q106 416 106 350Q106 284 127.5 227.5Q149 171 187.5 130Q226 89 280 65.5Q334 42 399 42Q496 42 563 90Q630 138 660 220H725Q708 166 676.5 123Q645 80 602.5 50Q560 20 508 4Q456 -12 399 -12Q325 -12 260.5 15Q196 42 148 90Q100 138 72 204.5Q44 271 44 350Q44 429 71.5 495.5Q99 562 147 610Q195 658 260 685Q325 712 399 712ZM441 947 516 947L436 788H381Z" glyph-name="Cacute" horiz-adv-x="762" unicode="Ć" /><glyph d="M101 220Q101 182 113 149.5Q125 117 147 93Q169 69 199.5 55Q230 41 267 41Q317 41 354.5 65Q392 89 412 130L464 100Q436 49 383 18.5Q330 -12 267 -12Q219 -12 177.5 5.5Q136 23 105.5 53.5Q75 84 57 126.5Q39 169 39 220Q39 271 57 313.5Q75 356 105.5 387Q136 418 177.5 435.5Q219 453 267 453Q330 453 383 422.5Q436 392 464 341L412 311Q392 351 354.5 375Q317 399 267 399Q230 399 199.5 385Q169 371 147 347Q125 323 113 290.5Q101 258 101 220ZM307 688 382 688L302 529H247Z" glyph-name="cacute" horiz-adv-x="498" unicode="ć" /><glyph d="M399 712Q456 712 508 696Q560 680 602.5 649.5Q645 619 676.5 576Q708 533 725 479H660Q630 561 563 609Q496 657 399 657Q334 657 280 633.5Q226 610 187.5 569Q149 528 127.5 472Q106 416 106 350Q106 284 127.5 227.5Q149 171 187.5 130Q226 89 280 65.5Q334 42 399 42Q496 42 563 90Q630 138 660 220H725Q708 166 676.5 123Q645 80 602.5 50Q560 20 508 4Q456 -12 399 -12Q325 -12 260.5 15Q196 42 148 90Q100 138 72 204.5Q44 271 44 350Q44 429 71.5 495.5Q99 562 147 610Q195 658 260 685Q325 712 399 712ZM510 788 445 788L381 902L317 788H252L339 947H423Z" glyph-name="Ccircumflex" horiz-adv-x="762" unicode="Ĉ" /><glyph d="M101 220Q101 182 113 149.5Q125 117 147 93Q169 69 199.5 55Q230 41 267 41Q317 41 354.5 65Q392 89 412 130L464 100Q436 49 383 18.5Q330 -12 267 -12Q219 -12 177.5 5.5Q136 23 105.5 53.5Q75 84 57 126.5Q39 169 39 220Q39 271 57 313.5Q75 356 105.5 387Q136 418 177.5 435.5Q219 453 267 453Q330 453 383 422.5Q436 392 464 341L412 311Q392 351 354.5 375Q317 399 267 399Q230 399 199.5 385Q169 371 147 347Q125 323 113 290.5Q101 258 101 220ZM378 529 313 529L249 643L185 529H120L207 688H291Z" glyph-name="ccircumflex" horiz-adv-x="498" unicode="ĉ" /><glyph d="M399 712Q456 712 508 696Q560 680 602.5 649.5Q645 619 676.5 576Q708 533 725 479H660Q630 561 563 609Q496 657 399 657Q334 657 280 633.5Q226 610 187.5 569Q149 528 127.5 472Q106 416 106 350Q106 284 127.5 227.5Q149 171 187.5 130Q226 89 280 65.5Q334 42 399 42Q496 42 563 90Q630 138 660 220H725Q708 166 676.5 123Q645 80 602.5 50Q560 20 508 4Q456 -12 399 -12Q325 -12 260.5 15Q196 42 148 90Q100 138 72 204.5Q44 271 44 350Q44 429 71.5 495.5Q99 562 147 610Q195 658 260 685Q325 712 399 712ZM381 896Q404 896 419.5 880Q435 864 435 842Q435 820 419.5 804.5Q404 789 381 789Q358 789 342.5 804.5Q327 820 327 842Q327 864 342.5 880Q358 896 381 896Z" glyph-name="Cdotaccent" horiz-adv-x="762" unicode="Ċ" /><glyph d="M101 220Q101 182 113 149.5Q125 117 147 93Q169 69 199.5 55Q230 41 267 41Q317 41 354.5 65Q392 89 412 130L464 100Q436 49 383 18.5Q330 -12 267 -12Q219 -12 177.5 5.5Q136 23 105.5 53.5Q75 84 57 126.5Q39 169 39 220Q39 271 57 313.5Q75 356 105.5 387Q136 418 177.5 435.5Q219 453 267 453Q330 453 383 422.5Q436 392 464 341L412 311Q392 351 354.5 375Q317 399 267 399Q230 399 199.5 385Q169 371 147 347Q125 323 113 290.5Q101 258 101 220ZM249 637Q272 637 287.5 621Q303 605 303 583Q303 561 287.5 545.5Q272 530 249 530Q226 530 210.5 545.5Q195 561 195 583Q195 605 210.5 621Q226 637 249 637Z" glyph-name="cdotaccent" horiz-adv-x="498" unicode="ċ" /><glyph d="M399 712Q456 712 508 696Q560 680 602.5 649.5Q645 619 676.5 576Q708 533 725 479H660Q630 561 563 609Q496 657 399 657Q334 657 280 633.5Q226 610 187.5 569Q149 528 127.5 472Q106 416 106 350Q106 284 127.5 227.5Q149 171 187.5 130Q226 89 280 65.5Q334 42 399 42Q496 42 563 90Q630 138 660 220H725Q708 166 676.5 123Q645 80 602.5 50Q560 20 508 4Q456 -12 399 -12Q325 -12 260.5 15Q196 42 148 90Q100 138 72 204.5Q44 271 44 350Q44 429 71.5 495.5Q99 562 147 610Q195 658 260 685Q325 712 399 712ZM423 788 339 788L252 947H317L381 833L445 947H510Z" glyph-name="Ccaron" horiz-adv-x="762" unicode="Č" /><glyph d="M101 220Q101 182 113 149.5Q125 117 147 93Q169 69 199.5 55Q230 41 267 41Q317 41 354.5 65Q392 89 412 130L464 100Q436 49 383 18.5Q330 -12 267 -12Q219 -12 177.5 5.5Q136 23 105.5 53.5Q75 84 57 126.5Q39 169 39 220Q39 271 57 313.5Q75 356 105.5 387Q136 418 177.5 435.5Q219 453 267 453Q330 453 383 422.5Q436 392 464 341L412 311Q392 351 354.5 375Q317 399 267 399Q230 399 199.5 385Q169 371 147 347Q125 323 113 290.5Q101 258 101 220ZM291 529 207 529L120 688H185L249 574L313 688H378Z" glyph-name="ccaron" horiz-adv-x="498" unicode="č" /><glyph d="M636 350Q636 272 612.5 207.5Q589 143 542.5 97Q496 51 427 25.5Q358 0 268 0H90V700H268Q358 700 427 674.5Q496 649 542.5 603Q589 557 612.5 492.5Q636 428 636 350ZM573 350Q573 423 551 478.5Q529 534 489 571Q449 608 392.5 626.5Q336 645 267 645H152V54H267Q336 54 392.5 72.5Q449 91 489 128.5Q529 166 551 221.5Q573 277 573 350ZM383 788 299 788L212 947H277L341 833L405 947H470Z" glyph-name="Dcaron" horiz-adv-x="682" unicode="Ď" /><glyph d="M262 453Q319 453 365.5 425Q412 397 432 355V700H493V0H432V84Q412 42 366.5 15Q321 -12 264 -12Q216 -12 175 5.5Q134 23 104 53.5Q74 84 57 126.5Q40 169 40 220Q40 271 57 313.5Q74 356 104 387Q134 418 174.5 435.5Q215 453 262 453ZM102 220Q102 182 114 149.5Q126 117 148 93Q170 69 200.5 55Q231 41 268 41Q305 41 335.5 55Q366 69 388 93Q410 117 422.5 149.5Q435 182 435 220Q435 258 422.5 290.5Q410 323 388 347Q366 371 335.5 385Q305 399 268 399Q231 399 200.5 385Q170 371 148 347Q126 323 114 290.5Q102 258 102 220ZM558 659Q558 680 572.5 696Q587 712 610 712Q632 712 647.5 697Q663 682 663 659Q663 651 660 641.5Q657 632 654 626L596 520H550L590 609Q576 614 567 627.5Q558 641 558 659Z" glyph-name="dcaron" horiz-adv-x="564" unicode="ď" /><glyph d="M3 384 93 384V700H271Q361 700 430 674.5Q499 649 545.5 603Q592 557 615.5 492.5Q639 428 639 350Q639 272 615.5 207.5Q592 143 545.5 97Q499 51 430 25.5Q361 0 271 0H93V329H3ZM576 350Q576 423 554 478.5Q532 534 492 571Q452 608 395.5 626.5Q339 645 270 645H155V384H389V329H155V54H270Q339 54 395.5 72.5Q452 91 492 128.5Q532 166 554 221.5Q576 277 576 350Z" glyph-name="Dcroat" horiz-adv-x="685" unicode="Đ" /><glyph d="M268 598 432 598V700H493V598H563V547H493V0H432V84Q412 42 366.5 15Q321 -12 264 -12Q216 -12 175 5.5Q134 23 104 53.5Q74 84 57 126.5Q40 169 40 220Q40 271 57 313.5Q74 356 104 387Q134 418 174.5 435.5Q215 453 262 453Q319 453 365.5 425Q412 397 432 355V547H268ZM102 220Q102 182 114 149.5Q126 117 148 93Q170 69 200.5 55Q231 41 268 41Q305 41 335.5 55Q366 69 388 93Q410 117 422.5 149.5Q435 182 435 220Q435 258 422.5 290.5Q410 323 388 347Q366 371 335.5 385Q305 399 268 399Q231 399 200.5 385Q170 371 148 347Q126 323 114 290.5Q102 258 102 220Z" glyph-name="dcroat" horiz-adv-x="564" unicode="đ" /><glyph d="M553 642 152 642V384H410V329H152V57H553V0H90V700H553ZM189 858 447 858V806H189Z" glyph-name="Emacron" horiz-adv-x="588" unicode="Ē" /><glyph d="M103 202Q106 168 118.5 138.5Q131 109 152 87.5Q173 66 201.5 54Q230 42 264 42Q309 42 345 62Q381 82 401 118H472Q444 58 388.5 23Q333 -12 264 -12Q216 -12 175 5.5Q134 23 104 53.5Q74 84 57 126.5Q40 169 40 220Q40 271 57 313.5Q74 356 104 387Q134 418 175 435.5Q216 453 263 453Q306 453 346 437.5Q386 422 417 391.5Q448 361 466.5 314Q485 267 485 204V202ZM263 399Q230 399 202.5 388Q175 377 155 357Q135 337 122 310.5Q109 284 105 252H417Q414 282 402 308.5Q390 335 370 355.5Q350 376 323 387.5Q296 399 263 399ZM130 599 388 599V547H130Z" glyph-name="emacron" horiz-adv-x="518" unicode="ē" /><glyph d="M553 642 152 642V384H410V329H152V57H553V0H90V700H553ZM294 828Q325 828 337 847.5Q349 867 349 903V923H403V880Q400 829 369.5 803.5Q339 778 294 778Q249 778 218.5 803.5Q188 829 185 880V923H238V891Q238 860 253 844Q268 828 294 828Z" glyph-name="Ebreve" horiz-adv-x="588" unicode="Ĕ" /><glyph d="M103 202Q106 168 118.5 138.5Q131 109 152 87.5Q173 66 201.5 54Q230 42 264 42Q309 42 345 62Q381 82 401 118H472Q444 58 388.5 23Q333 -12 264 -12Q216 -12 175 5.5Q134 23 104 53.5Q74 84 57 126.5Q40 169 40 220Q40 271 57 313.5Q74 356 104 387Q134 418 175 435.5Q216 453 263 453Q306 453 346 437.5Q386 422 417 391.5Q448 361 466.5 314Q485 267 485 204V202ZM263 399Q230 399 202.5 388Q175 377 155 357Q135 337 122 310.5Q109 284 105 252H417Q414 282 402 308.5Q390 335 370 355.5Q350 376 323 387.5Q296 399 263 399ZM259 569Q290 569 302 588.5Q314 608 314 644V664H368V621Q365 570 334.5 544.5Q304 519 259 519Q214 519 183.5 544.5Q153 570 150 621V664H203V632Q203 601 218 585Q233 569 259 569Z" glyph-name="ebreve" horiz-adv-x="518" unicode="ĕ" /><glyph d="M553 642 152 642V384H410V329H152V57H553V0H90V700H553ZM324 896Q347 896 362.5 880Q378 864 378 842Q378 820 362.5 804.5Q347 789 324 789Q301 789 285.5 804.5Q270 820 270 842Q270 864 285.5 880Q301 896 324 896Z" glyph-name="Edotaccent" horiz-adv-x="588" unicode="Ė" /><glyph d="M103 202Q106 168 118.5 138.5Q131 109 152 87.5Q173 66 201.5 54Q230 42 264 42Q309 42 345 62Q381 82 401 118H472Q444 58 388.5 23Q333 -12 264 -12Q216 -12 175 5.5Q134 23 104 53.5Q74 84 57 126.5Q40 169 40 220Q40 271 57 313.5Q74 356 104 387Q134 418 175 435.5Q216 453 263 453Q306 453 346 437.5Q386 422 417 391.5Q448 361 466.5 314Q485 267 485 204V202ZM263 399Q230 399 202.5 388Q175 377 155 357Q135 337 122 310.5Q109 284 105 252H417Q414 282 402 308.5Q390 335 370 355.5Q350 376 323 387.5Q296 399 263 399ZM259 637Q282 637 297.5 621Q313 605 313 583Q313 561 297.5 545.5Q282 530 259 530Q236 530 220.5 545.5Q205 561 205 583Q205 605 220.5 621Q236 637 259 637Z" glyph-name="edotaccent" horiz-adv-x="518" unicode="ė" /><glyph d="M553 642 152 642V384H410V329H152V57H553V0H484Q472 -9 459 -19Q446 -29 434.5 -40Q423 -51 416 -64Q409 -77 409 -92Q409 -115 424.5 -126.5Q440 -138 464 -138Q492 -138 519 -125V-169Q510 -173 499 -176Q489 -179 477 -181Q465 -183 451 -183Q401 -183 376 -157Q351 -131 351 -100Q351 -82 358 -67Q365 -52 375.5 -39.5Q386 -27 399 -17Q412 -7 424 0H90V700H553Z" glyph-name="Eogonek" horiz-adv-x="588" unicode="Ę" /><glyph d="M104 202Q107 168 119.5 138.5Q132 109 153 87.5Q174 66 202.5 54Q231 42 265 42Q310 42 346 62Q382 82 402 118H473Q447 62 397 28Q347 -6 285 -11Q263 -27 244 -47Q225 -67 225 -92Q225 -115 240.5 -126.5Q256 -138 280 -138Q308 -138 335 -125V-169Q326 -173 315 -176Q305 -179 293 -181Q281 -183 267 -183Q217 -183 192 -157Q167 -131 167 -100Q167 -69 186 -46.5Q205 -24 227 -9Q187 -3 152.5 17Q118 37 93.5 67Q69 97 55 136Q41 175 41 220Q41 271 58 313.5Q75 356 105 387Q135 418 176 435.5Q217 453 264 453Q307 453 347 437.5Q387 422 418 391.5Q449 361 467.5 314Q486 267 486 204V202ZM264 399Q231 399 203.5 388Q176 377 156 357Q136 337 123 310.5Q110 284 106 252H418Q415 282 403 308.5Q391 335 371 355.5Q351 376 324 387.5Q297 399 264 399Z" glyph-name="eogonek" horiz-adv-x="519" unicode="ę" /><glyph d="M553 642 152 642V384H410V329H152V57H553V0H90V700H553ZM336 788 252 788L165 947H230L294 833L358 947H423Z" glyph-name="Ecaron" horiz-adv-x="588" unicode="Ě" /><glyph d="M103 202Q106 168 118.5 138.5Q131 109 152 87.5Q173 66 201.5 54Q230 42 264 42Q309 42 345 62Q381 82 401 118H472Q444 58 388.5 23Q333 -12 264 -12Q216 -12 175 5.5Q134 23 104 53.5Q74 84 57 126.5Q40 169 40 220Q40 271 57 313.5Q74 356 104 387Q134 418 175 435.5Q216 453 263 453Q306 453 346 437.5Q386 422 417 391.5Q448 361 466.5 314Q485 267 485 204V202ZM263 399Q230 399 202.5 388Q175 377 155 357Q135 337 122 310.5Q109 284 105 252H417Q414 282 402 308.5Q390 335 370 355.5Q350 376 323 387.5Q296 399 263 399ZM301 529 217 529L130 688H195L259 574L323 688H388Z" glyph-name="ecaron" horiz-adv-x="518" unicode="ě" /><glyph d="M107 350Q107 284 128.5 227.5Q150 171 189 130Q228 89 282 65.5Q336 42 400 42Q461 42 507 62.5Q553 83 584.5 113.5Q616 144 632.5 180.5Q649 217 650 249H458V305H712V0H653V125Q644 107 624.5 83.5Q605 60 573.5 38.5Q542 17 498 2.5Q454 -12 396 -12Q321 -12 257 15Q193 42 146 90Q99 138 72 204.5Q45 271 45 350Q45 429 73 495.5Q101 562 149.5 610Q198 658 263 685Q328 712 402 712Q459 712 511.5 696Q564 680 607 649.5Q650 619 682 576Q714 533 731 479H666Q636 561 567.5 609Q499 657 402 657Q337 657 282.5 633.5Q228 610 189 569Q150 528 128.5 472Q107 416 107 350ZM518 788 453 788L389 902L325 788H260L347 947H431Z" glyph-name="Gcircumflex" horiz-adv-x="777" unicode="Ĝ" /><glyph d="M493 -46Q493 -73 486.5 -96.5Q480 -120 464.5 -137.5Q449 -155 424 -165Q399 -175 363 -175H196V-124H356Q388 -124 410 -111Q432 -98 432 -60V84Q412 42 366.5 15Q321 -12 264 -12Q216 -12 175 5.5Q134 23 104 53.5Q74 84 57 126.5Q40 169 40 220Q40 271 57 313.5Q74 356 104 387Q134 418 174.5 435.5Q215 453 262 453Q319 453 365.5 425Q412 397 432 355V441H493ZM268 41Q305 41 335.5 55Q366 69 388 93Q410 117 422 149.5Q434 182 434 220Q434 258 422 290.5Q410 323 388 347Q366 371 335.5 385Q305 399 268 399Q231 399 200.5 385Q170 371 148 347Q126 323 113.5 290.5Q101 258 101 220Q101 182 113.5 149.5Q126 117 148 93Q170 69 200.5 55Q231 41 268 41ZM411 529 346 529L282 643L218 529H153L240 688H324Z" glyph-name="gcircumflex" horiz-adv-x="564" unicode="ĝ" /><glyph d="M107 350Q107 284 128.5 227.5Q150 171 189 130Q228 89 282 65.5Q336 42 400 42Q461 42 507 62.5Q553 83 584.5 113.5Q616 144 632.5 180.5Q649 217 650 249H458V305H712V0H653V125Q644 107 624.5 83.5Q605 60 573.5 38.5Q542 17 498 2.5Q454 -12 396 -12Q321 -12 257 15Q193 42 146 90Q99 138 72 204.5Q45 271 45 350Q45 429 73 495.5Q101 562 149.5 610Q198 658 263 685Q328 712 402 712Q459 712 511.5 696Q564 680 607 649.5Q650 619 682 576Q714 533 731 479H666Q636 561 567.5 609Q499 657 402 657Q337 657 282.5 633.5Q228 610 189 569Q150 528 128.5 472Q107 416 107 350ZM389 828Q420 828 432 847.5Q444 867 444 903V923H498V880Q495 829 464.5 803.5Q434 778 389 778Q344 778 313.5 803.5Q283 829 280 880V923H333V891Q333 860 348 844Q363 828 389 828Z" glyph-name="Gbreve" horiz-adv-x="777" unicode="Ğ" /><glyph d="M493 -46Q493 -73 486.5 -96.5Q480 -120 464.5 -137.5Q449 -155 424 -165Q399 -175 363 -175H196V-124H356Q388 -124 410 -111Q432 -98 432 -60V84Q412 42 366.5 15Q321 -12 264 -12Q216 -12 175 5.5Q134 23 104 53.5Q74 84 57 126.5Q40 169 40 220Q40 271 57 313.5Q74 356 104 387Q134 418 174.5 435.5Q215 453 262 453Q319 453 365.5 425Q412 397 432 355V441H493ZM268 41Q305 41 335.5 55Q366 69 388 93Q410 117 422 149.5Q434 182 434 220Q434 258 422 290.5Q410 323 388 347Q366 371 335.5 385Q305 399 268 399Q231 399 200.5 385Q170 371 148 347Q126 323 113.5 290.5Q101 258 101 220Q101 182 113.5 149.5Q126 117 148 93Q170 69 200.5 55Q231 41 268 41ZM282 569Q313 569 325 588.5Q337 608 337 644V664H391V621Q388 570 357.5 544.5Q327 519 282 519Q237 519 206.5 544.5Q176 570 173 621V664H226V632Q226 601 241 585Q256 569 282 569Z" glyph-name="gbreve" horiz-adv-x="564" unicode="ğ" /><glyph d="M107 350Q107 284 128.5 227.5Q150 171 189 130Q228 89 282 65.5Q336 42 400 42Q461 42 507 62.5Q553 83 584.5 113.5Q616 144 632.5 180.5Q649 217 650 249H458V305H712V0H653V125Q644 107 624.5 83.5Q605 60 573.5 38.5Q542 17 498 2.5Q454 -12 396 -12Q321 -12 257 15Q193 42 146 90Q99 138 72 204.5Q45 271 45 350Q45 429 73 495.5Q101 562 149.5 610Q198 658 263 685Q328 712 402 712Q459 712 511.5 696Q564 680 607 649.5Q650 619 682 576Q714 533 731 479H666Q636 561 567.5 609Q499 657 402 657Q337 657 282.5 633.5Q228 610 189 569Q150 528 128.5 472Q107 416 107 350ZM389 896Q412 896 427.5 880Q443 864 443 842Q443 820 427.5 804.5Q412 789 389 789Q366 789 350.5 804.5Q335 820 335 842Q335 864 350.5 880Q366 896 389 896Z" glyph-name="Gdotaccent" horiz-adv-x="777" unicode="Ġ" /><glyph d="M493 -46Q493 -73 486.5 -96.5Q480 -120 464.5 -137.5Q449 -155 424 -165Q399 -175 363 -175H196V-124H356Q388 -124 410 -111Q432 -98 432 -60V84Q412 42 366.5 15Q321 -12 264 -12Q216 -12 175 5.5Q134 23 104 53.5Q74 84 57 126.5Q40 169 40 220Q40 271 57 313.5Q74 356 104 387Q134 418 174.5 435.5Q215 453 262 453Q319 453 365.5 425Q412 397 432 355V441H493ZM268 41Q305 41 335.5 55Q366 69 388 93Q410 117 422 149.5Q434 182 434 220Q434 258 422 290.5Q410 323 388 347Q366 371 335.5 385Q305 399 268 399Q231 399 200.5 385Q170 371 148 347Q126 323 113.5 290.5Q101 258 101 220Q101 182 113.5 149.5Q126 117 148 93Q170 69 200.5 55Q231 41 268 41ZM282 637Q305 637 320.5 621Q336 605 336 583Q336 561 320.5 545.5Q305 530 282 530Q259 530 243.5 545.5Q228 561 228 583Q228 605 243.5 621Q259 637 282 637Z" glyph-name="gdotaccent" horiz-adv-x="564" unicode="ġ" /><glyph d="M107 350Q107 284 128.5 227.5Q150 171 189 130Q228 89 282 65.5Q336 42 400 42Q461 42 507 62.5Q553 83 584.5 113.5Q616 144 632.5 180.5Q649 217 650 249H458V305H712V0H653V125Q644 107 624.5 83.5Q605 60 573.5 38.5Q542 17 498 2.5Q454 -12 396 -12Q321 -12 257 15Q193 42 146 90Q99 138 72 204.5Q45 271 45 350Q45 429 73 495.5Q101 562 149.5 610Q198 658 263 685Q328 712 402 712Q459 712 511.5 696Q564 680 607 649.5Q650 619 682 576Q714 533 731 479H666Q636 561 567.5 609Q499 657 402 657Q337 657 282.5 633.5Q228 610 189 569Q150 528 128.5 472Q107 416 107 350ZM333 -127Q333 -106 347.5 -90Q362 -74 385 -74Q407 -74 422.5 -89Q438 -104 438 -127Q438 -135 435 -144.5Q432 -154 429 -160L371 -266H325L365 -177Q351 -172 342 -158.5Q333 -145 333 -127Z" glyph-name="Gcommaaccent" horiz-adv-x="777" unicode="Ģ" /><glyph d="M493 -46Q493 -73 486.5 -96.5Q480 -120 464.5 -137.5Q449 -155 424 -165Q399 -175 363 -175H196V-124H356Q388 -124 410 -111Q432 -98 432 -60V84Q412 42 366.5 15Q321 -12 264 -12Q216 -12 175 5.5Q134 23 104 53.5Q74 84 57 126.5Q40 169 40 220Q40 271 57 313.5Q74 356 104 387Q134 418 174.5 435.5Q215 453 262 453Q319 453 365.5 425Q412 397 432 355V441H493ZM268 41Q305 41 335.5 55Q366 69 388 93Q410 117 422 149.5Q434 182 434 220Q434 258 422 290.5Q410 323 388 347Q366 371 335.5 385Q305 399 268 399Q231 399 200.5 385Q170 371 148 347Q126 323 113.5 290.5Q101 258 101 220Q101 182 113.5 149.5Q126 117 148 93Q170 69 200.5 55Q231 41 268 41ZM320 561Q320 540 305.5 524Q291 508 268 508Q246 508 230.5 523Q215 538 215 561Q215 569 218 578.5Q221 588 224 594L282 700H328L288 611Q302 606 311 592.5Q320 579 320 561Z" glyph-name="gcommaaccent" horiz-adv-x="564" unicode="ģ" /><glyph d="M509 700 571 700V0H509V329H152V0H90V700H152V384H509ZM460 788 395 788L331 902L267 788H202L289 947H373Z" glyph-name="Hcircumflex" horiz-adv-x="661" unicode="Ĥ" /><glyph d="M388 290Q388 344 357.5 371.5Q327 399 279 399Q239 399 201.5 378.5Q164 358 132 321V0H71V700H131V378Q161 414 201 433.5Q241 453 289 453Q367 453 408 409.5Q449 366 449 293V0H388ZM391 788 326 788L262 902L198 788H133L220 947H304Z" glyph-name="hcircumflex" horiz-adv-x="515" unicode="ĥ" /><glyph d="M3 560 93 560V700H155V560H512V700H574V560H665V505H574V0H512V329H155V0H93V505H3ZM512 505 155 505V384H512Z" glyph-name="Hbar" horiz-adv-x="667" unicode="Ħ" /><glyph d="M1 598 71 598V700H131V598H296V547H131V378Q161 414 201 433.5Q241 453 289 453Q367 453 408 409.5Q449 366 449 293V0H388V290Q388 344 357.5 371.5Q327 399 279 399Q239 399 201.5 378.5Q164 358 132 321V0H71V547H1Z" glyph-name="hbar" horiz-adv-x="515" unicode="ħ" /><glyph d="M90 700 152 700V0H90ZM-15 811Q-15 821 -13 836Q-11 851 -3.5 864.5Q4 878 18.5 887.5Q33 897 58 897Q73 897 89 890.5Q105 884 121 876Q137 868 151.5 861.5Q166 855 176 855Q186 855 193 859.5Q200 864 200 884V895H254V882Q254 872 252 857Q250 842 242.5 828.5Q235 815 220.5 805.5Q206 796 181 796Q165 796 148 802.5Q131 809 115.5 817Q100 825 86 831.5Q72 838 63 838Q53 838 46 833.5Q39 829 39 809V798H-15Z" glyph-name="Itilde" horiz-adv-x="242" unicode="Ĩ" /><glyph d="M148 0 87 0V390H17V441H148ZM-26 552Q-26 562 -24 577Q-22 592 -14.5 605.5Q-7 619 7.5 628.5Q22 638 47 638Q62 638 78 631.5Q94 625 110 617Q126 609 140.5 602.5Q155 596 165 596Q175 596 182 600.5Q189 605 189 625V636H243V623Q243 613 241 598Q239 583 231.5 569.5Q224 556 209.5 546.5Q195 537 170 537Q154 537 137 543.5Q120 550 104.5 558Q89 566 75 572.5Q61 579 52 579Q42 579 35 574.5Q28 570 28 550V539H-26Z" glyph-name="itilde" horiz-adv-x="219" unicode="ĩ" /><glyph d="M90 700 152 700V0H90ZM-8 858 250 858V806H-8Z" glyph-name="Imacron" horiz-adv-x="242" unicode="Ī" /><glyph d="M148 0 87 0V390H17V441H148ZM-19 599 239 599V547H-19Z" glyph-name="imacron" horiz-adv-x="219" unicode="ī" /><glyph d="M90 700 152 700V0H90ZM121 828Q152 828 164 847.5Q176 867 176 903V923H230V880Q227 829 196.5 803.5Q166 778 121 778Q76 778 45.5 803.5Q15 829 12 880V923H65V891Q65 860 80 844Q95 828 121 828Z" glyph-name="Ibreve" horiz-adv-x="242" unicode="Ĭ" /><glyph d="M148 0 87 0V390H17V441H148ZM110 569Q141 569 153 588.5Q165 608 165 644V664H219V621Q216 570 185.5 544.5Q155 519 110 519Q65 519 34.5 544.5Q4 570 1 621V664H54V632Q54 601 69 585Q84 569 110 569Z" glyph-name="ibreve" horiz-adv-x="219" unicode="ĭ" /><glyph d="M149 0Q137 -9 124 -19Q111 -29 99.5 -40Q88 -51 81 -64Q74 -77 74 -92Q74 -115 89.5 -126.5Q105 -138 129 -138Q157 -138 184 -125V-169Q175 -173 164 -176Q154 -179 142 -181Q130 -183 116 -183Q66 -183 41 -157Q16 -131 16 -100Q16 -82 23 -66.5Q30 -51 41 -38.5Q52 -26 65.5 -16Q79 -6 91 1V700H153V0Z" glyph-name="Iogonek" horiz-adv-x="243" unicode="Į" /><glyph d="M148 0 143 0Q131 -9 118 -19Q105 -29 93.5 -40Q82 -51 75 -64Q68 -77 68 -92Q68 -115 83.5 -126.5Q99 -138 123 -138Q151 -138 178 -125V-169Q169 -173 158 -176Q148 -179 136 -181Q124 -183 110 -183Q60 -183 35 -157Q10 -131 10 -100Q10 -81 17.5 -65.5Q25 -50 36 -37.5Q47 -25 61 -15Q75 -5 87 2V390H17V441H148ZM60 601Q60 623 75.5 638.5Q91 654 113 654Q135 654 150.5 638.5Q166 623 166 601Q166 579 150.5 563.5Q135 548 113 548Q91 548 75.5 563.5Q60 579 60 601Z" glyph-name="iogonek" horiz-adv-x="219" unicode="į" /><glyph d="M90 700 152 700V0H90ZM121 896Q144 896 159.5 880Q175 864 175 842Q175 820 159.5 804.5Q144 789 121 789Q98 789 82.5 804.5Q67 820 67 842Q67 864 82.5 880Q98 896 121 896Z" glyph-name="Idotaccent" horiz-adv-x="242" unicode="İ" /><glyph d="M148 0 87 0V390H17V441H148Z" glyph-name="dotlessi" horiz-adv-x="219" unicode="ı" /><glyph d="M90 700 152 700V0H90ZM334 273 334 220Q334 183 343.5 150Q353 117 374 93Q395 69 427 55Q459 41 504 41Q548 41 580 55Q612 69 633 93Q654 117 664 150Q674 183 674 220V700H736V223Q736 174 722 131Q708 88 679.5 56Q651 24 607 6Q563 -12 503 -12Q443 -12 399.5 6Q356 24 327.5 55.5Q299 87 285.5 130Q272 173 272 222V273Z" glyph-name="IJ" horiz-adv-x="819" unicode="Ĳ" /><glyph d="M148 0 87 0V390H17V441H148ZM60 601Q60 623 75.5 638.5Q91 654 113 654Q135 654 150.5 638.5Q166 623 166 601Q166 579 150.5 563.5Q135 548 113 548Q91 548 75.5 563.5Q60 579 60 601ZM306 390 236 390V441H367V-87Q367 -114 358.5 -131Q350 -148 336 -158Q322 -168 304 -171.5Q286 -175 267 -175H216V-124H256Q279 -124 292.5 -116Q306 -108 306 -82ZM279 601Q279 623 294.5 638.5Q310 654 332 654Q354 654 369.5 638.5Q385 623 385 601Q385 579 369.5 563.5Q354 548 332 548Q310 548 294.5 563.5Q279 579 279 601Z" glyph-name="ij" horiz-adv-x="438" unicode="ĳ" /><glyph d="M92 273 92 220Q92 183 101.5 150Q111 117 132 93Q153 69 185 55Q217 41 262 41Q306 41 338 55Q370 69 391 93Q412 117 422 150Q432 183 432 220V700H494V223Q494 174 480 131Q466 88 437.5 56Q409 24 365 6Q321 -12 261 -12Q201 -12 157.5 6Q114 24 85.5 55.5Q57 87 43.5 130Q30 173 30 222V273ZM396 788 331 788L267 902L203 788H138L225 947H309Z" glyph-name="Jcircumflex" horiz-adv-x="577" unicode="Ĵ" /><glyph d="M239 529 174 529L110 643L46 529H-19L68 688H152ZM87 390 17 390V441H148V-87Q148 -114 139.5 -131Q131 -148 117 -158Q103 -168 85 -171.5Q67 -175 48 -175H-3V-124H37Q60 -124 73.5 -116Q87 -108 87 -82Z" glyph-name="jcircumflex" horiz-adv-x="219" unicode="ĵ" /><glyph d="M152 395 181 395L504 700H584L228 370L577 0H494L179 340H152V0H90V700H152ZM247 -127Q247 -106 261.5 -90Q276 -74 299 -74Q321 -74 336.5 -89Q352 -104 352 -127Q352 -135 349 -144.5Q346 -154 343 -160L285 -266H239L279 -177Q265 -172 256 -158.5Q247 -145 247 -127Z" glyph-name="Kcommaaccent" horiz-adv-x="585" unicode="Ķ" /><glyph d="M132 270 189 270L359 441H441L238 244L452 0H371L186 217H132V0H71V700H132ZM188 -127Q188 -106 202.5 -90Q217 -74 240 -74Q262 -74 277.5 -89Q293 -104 293 -127Q293 -135 290 -144.5Q287 -154 284 -160L226 -266H180L220 -177Q206 -172 197 -158.5Q188 -145 188 -127Z" glyph-name="kcommaaccent" horiz-adv-x="464" unicode="ķ" /><glyph d="M132 255 215 255L365 441H441L267 229L452 0H372L215 202H132V0H71V441H132Z" glyph-name="kgreenlandic" horiz-adv-x="465" unicode="ĸ" /><glyph d="M90 0 90 700H152V55H464V0ZM256 947 331 947L251 788H196Z" glyph-name="Lacute" horiz-adv-x="478" unicode="Ĺ" /><glyph d="M132 0 71 0V700H132ZM134 947 209 947L129 788H74Z" glyph-name="lacute" horiz-adv-x="203" unicode="ĺ" /><glyph d="M90 0 90 700H152V55H464V0ZM214 -127Q214 -106 228.5 -90Q243 -74 266 -74Q288 -74 303.5 -89Q319 -104 319 -127Q319 -135 316 -144.5Q313 -154 310 -160L252 -266H206L246 -177Q232 -172 223 -158.5Q214 -145 214 -127Z" glyph-name="Lcommaaccent" horiz-adv-x="478" unicode="Ļ" /><glyph d="M132 0 71 0V700H132ZM49 -127Q49 -106 63.5 -90Q78 -74 101 -74Q123 -74 138.5 -89Q154 -104 154 -127Q154 -135 151 -144.5Q148 -154 145 -160L87 -266H41L81 -177Q67 -172 58 -158.5Q49 -145 49 -127Z" glyph-name="lcommaaccent" horiz-adv-x="203" unicode="ļ" /><glyph d="M90 0 90 700H152V55H464V0ZM308 659Q308 680 322.5 696Q337 712 360 712Q382 712 397.5 697Q413 682 413 659Q413 651 410 641.5Q407 632 404 626L346 520H300L340 609Q326 614 317 627.5Q308 641 308 659Z" glyph-name="Lcaron" horiz-adv-x="479" unicode="Ľ" /><glyph d="M132 0 71 0V700H132ZM197 659Q197 680 211.5 696Q226 712 249 712Q271 712 286.5 697Q302 682 302 659Q302 651 299 641.5Q296 632 293 626L235 520H189L229 609Q215 614 206 627.5Q197 641 197 659Z" glyph-name="lcaron" horiz-adv-x="203" unicode="ľ" /><glyph d="M90 0 90 700H152V55H464V0ZM283 355Q283 381 300.5 399Q318 417 344 417Q370 417 388 399Q406 381 406 355Q406 329 388 311.5Q370 294 344 294Q318 294 300.5 311.5Q283 329 283 355Z" glyph-name="Ldot" horiz-adv-x="479" unicode="Ŀ" /><glyph d="M132 0 71 0V700H132ZM208 363Q208 389 225.5 407Q243 425 269 425Q295 425 313 407Q331 389 331 363Q331 337 313 319.5Q295 302 269 302Q243 302 225.5 319.5Q208 337 208 363Z" glyph-name="ldot" horiz-adv-x="337" unicode="ŀ" /><glyph d="M40 306 96 326V700H158V348L385 430V372L158 291V55H470V0H96V269L40 249Z" glyph-name="Lslash" horiz-adv-x="484" unicode="Ł" /><glyph d="M142 378 210 420V362L142 320V0H81V283L14 242V301L81 341V700H142Z" glyph-name="lslash" horiz-adv-x="222" unicode="ł" /><glyph d="M149 0 90 0V700H176L513 90V700H572V0H495L149 623ZM367 954 442 954L362 795H307Z" glyph-name="Nacute" horiz-adv-x="662" unicode="Ń" /><glyph d="M388 290Q388 344 357.5 371.5Q327 399 279 399Q239 399 201.5 378.5Q164 358 132 321V0H71V441H131V378Q161 414 201 433.5Q241 453 289 453Q367 453 408 409.5Q449 366 449 293V0H388ZM299 688 374 688L294 529H239Z" glyph-name="nacute" horiz-adv-x="515" unicode="ń" /><glyph d="M149 0 90 0V700H176L513 90V700H572V0H495L149 623ZM279 -127Q279 -106 293.5 -90Q308 -74 331 -74Q353 -74 368.5 -89Q384 -104 384 -127Q384 -135 381 -144.5Q378 -154 375 -160L317 -266H271L311 -177Q297 -172 288 -158.5Q279 -145 279 -127Z" glyph-name="Ncommaaccent" horiz-adv-x="662" unicode="Ņ" /><glyph d="M388 290Q388 344 357.5 371.5Q327 399 279 399Q239 399 201.5 378.5Q164 358 132 321V0H71V441H131V378Q161 414 201 433.5Q241 453 289 453Q367 453 408 409.5Q449 366 449 293V0H388ZM196 -127Q196 -106 210.5 -90Q225 -74 248 -74Q270 -74 285.5 -89Q301 -104 301 -127Q301 -135 298 -144.5Q295 -154 292 -160L234 -266H188L228 -177Q214 -172 205 -158.5Q196 -145 196 -127Z" glyph-name="ncommaaccent" horiz-adv-x="515" unicode="ņ" /><glyph d="M149 0 90 0V700H176L513 90V700H572V0H495L149 623ZM371 795 287 795L200 954H265L329 840L393 954H458Z" glyph-name="Ncaron" horiz-adv-x="662" unicode="Ň" /><glyph d="M388 290Q388 344 357.5 371.5Q327 399 279 399Q239 399 201.5 378.5Q164 358 132 321V0H71V441H131V378Q161 414 201 433.5Q241 453 289 453Q367 453 408 409.5Q449 366 449 293V0H388ZM306 529 222 529L135 688H200L264 574L328 688H393Z" glyph-name="ncaron" horiz-adv-x="515" unicode="ň" /><glyph d="M388 290Q388 344 357.5 371.5Q327 399 279 399Q239 399 201.5 378.5Q164 358 132 321V0H71V441H131V378Q161 414 201 433.5Q241 453 289 453Q367 453 408 409.5Q449 366 449 293V0H388ZM52 659Q52 680 66.5 696Q81 712 104 712Q126 712 141.5 697Q157 682 157 659Q157 651 154 641.5Q151 632 148 626L90 520H44L84 609Q70 614 61 627.5Q52 641 52 659Z" glyph-name="napostrophe" horiz-adv-x="515" unicode="ŉ" /><glyph d="M149 0 90 0V700H176L513 90V700H572V-44Q572 -108 542 -141.5Q512 -175 437 -175H393V-119H430Q475 -119 492.5 -102.5Q510 -86 510 -41V0H495L149 623Z" glyph-name="Eng" horiz-adv-x="662" unicode="Ŋ" /><glyph d="M388 290Q388 344 357.5 371.5Q327 399 279 399Q239 399 201.5 378.5Q164 358 132 321V0H71V441H131V378Q161 414 201 433.5Q241 453 289 453Q367 453 408 409.5Q449 366 449 293V-87Q449 -114 440.5 -131Q432 -148 418 -158Q404 -168 386 -171.5Q368 -175 349 -175H298V-125H338Q361 -125 374.5 -116.5Q388 -108 388 -82Z" glyph-name="eng" horiz-adv-x="515" unicode="ŋ" /><glyph d="M44 350Q44 429 72 495.5Q100 562 148 610Q196 658 261 685Q326 712 399 712Q473 712 537.5 685Q602 658 650 610Q698 562 726 495.5Q754 429 754 350Q754 271 726 204.5Q698 138 650 90Q602 42 537.5 15Q473 -12 399 -12Q326 -12 261 15Q196 42 148 90Q100 138 72 204.5Q44 271 44 350ZM692 350Q692 416 670.5 472.5Q649 529 610.5 570Q572 611 518 634.5Q464 658 399 658Q334 658 280 634.5Q226 611 187.5 570Q149 529 127.5 472.5Q106 416 106 350Q106 284 127.5 227.5Q149 171 187.5 130Q226 89 280 65.5Q334 42 399 42Q464 42 518 65.5Q572 89 610.5 130Q649 171 670.5 227.5Q692 284 692 350ZM270 865 528 865V813H270Z" glyph-name="Omacron" horiz-adv-x="798" unicode="Ō" /><glyph d="M39 220Q39 271 57 313.5Q75 356 106 387Q137 418 178.5 435.5Q220 453 267 453Q315 453 356.5 435.5Q398 418 429 387Q460 356 478 313.5Q496 271 496 220Q496 169 478 126.5Q460 84 429 53.5Q398 23 356.5 5.5Q315 -12 267 -12Q220 -12 178.5 5.5Q137 23 106 53.5Q75 84 57 126.5Q39 169 39 220ZM434 220Q434 258 422 290.5Q410 323 388 347Q366 371 335 385Q304 399 267 399Q230 399 199.5 385Q169 371 147 347Q125 323 113 290.5Q101 258 101 220Q101 182 113 149.5Q125 117 147 93Q169 69 199.5 55Q230 41 267 41Q304 41 335 55Q366 69 388 93Q410 117 422 149.5Q434 182 434 220ZM136 599 394 599V547H136Z" glyph-name="omacron" horiz-adv-x="535" unicode="ō" /><glyph d="M44 350Q44 429 72 495.5Q100 562 148 610Q196 658 261 685Q326 712 399 712Q473 712 537.5 685Q602 658 650 610Q698 562 726 495.5Q754 429 754 350Q754 271 726 204.5Q698 138 650 90Q602 42 537.5 15Q473 -12 399 -12Q326 -12 261 15Q196 42 148 90Q100 138 72 204.5Q44 271 44 350ZM692 350Q692 416 670.5 472.5Q649 529 610.5 570Q572 611 518 634.5Q464 658 399 658Q334 658 280 634.5Q226 611 187.5 570Q149 529 127.5 472.5Q106 416 106 350Q106 284 127.5 227.5Q149 171 187.5 130Q226 89 280 65.5Q334 42 399 42Q464 42 518 65.5Q572 89 610.5 130Q649 171 670.5 227.5Q692 284 692 350ZM399 835Q430 835 442 854.5Q454 874 454 910V930H508V887Q505 836 474.5 810.5Q444 785 399 785Q354 785 323.5 810.5Q293 836 290 887V930H343V898Q343 867 358 851Q373 835 399 835Z" glyph-name="Obreve" horiz-adv-x="798" unicode="Ŏ" /><glyph d="M39 220Q39 271 57 313.5Q75 356 106 387Q137 418 178.5 435.5Q220 453 267 453Q315 453 356.5 435.5Q398 418 429 387Q460 356 478 313.5Q496 271 496 220Q496 169 478 126.5Q460 84 429 53.5Q398 23 356.5 5.5Q315 -12 267 -12Q220 -12 178.5 5.5Q137 23 106 53.5Q75 84 57 126.5Q39 169 39 220ZM434 220Q434 258 422 290.5Q410 323 388 347Q366 371 335 385Q304 399 267 399Q230 399 199.5 385Q169 371 147 347Q125 323 113 290.5Q101 258 101 220Q101 182 113 149.5Q125 117 147 93Q169 69 199.5 55Q230 41 267 41Q304 41 335 55Q366 69 388 93Q410 117 422 149.5Q434 182 434 220ZM268 569Q299 569 311 588.5Q323 608 323 644V664H377V621Q374 570 343.5 544.5Q313 519 268 519Q223 519 192.5 544.5Q162 570 159 621V664H212V632Q212 601 227 585Q242 569 268 569Z" glyph-name="obreve" horiz-adv-x="535" unicode="ŏ" /><glyph d="M44 350Q44 429 72 495.5Q100 562 148 610Q196 658 261 685Q326 712 399 712Q473 712 537.5 685Q602 658 650 610Q698 562 726 495.5Q754 429 754 350Q754 271 726 204.5Q698 138 650 90Q602 42 537.5 15Q473 -12 399 -12Q326 -12 261 15Q196 42 148 90Q100 138 72 204.5Q44 271 44 350ZM692 350Q692 416 670.5 472.5Q649 529 610.5 570Q572 611 518 634.5Q464 658 399 658Q334 658 280 634.5Q226 611 187.5 570Q149 529 127.5 472.5Q106 416 106 350Q106 284 127.5 227.5Q149 171 187.5 130Q226 89 280 65.5Q334 42 399 42Q464 42 518 65.5Q572 89 610.5 130Q649 171 670.5 227.5Q692 284 692 350ZM368 954 441 954L361 795H306ZM507 954 580 954L500 795H445Z" glyph-name="Ohungarumlaut" horiz-adv-x="798" unicode="Ő" /><glyph d="M39 220Q39 271 57 313.5Q75 356 106 387Q137 418 178.5 435.5Q220 453 267 453Q315 453 356.5 435.5Q398 418 429 387Q460 356 478 313.5Q496 271 496 220Q496 169 478 126.5Q460 84 429 53.5Q398 23 356.5 5.5Q315 -12 267 -12Q220 -12 178.5 5.5Q137 23 106 53.5Q75 84 57 126.5Q39 169 39 220ZM434 220Q434 258 422 290.5Q410 323 388 347Q366 371 335 385Q304 399 267 399Q230 399 199.5 385Q169 371 147 347Q125 323 113 290.5Q101 258 101 220Q101 182 113 149.5Q125 117 147 93Q169 69 199.5 55Q230 41 267 41Q304 41 335 55Q366 69 388 93Q410 117 422 149.5Q434 182 434 220ZM211 688 284 688L204 529H149ZM350 688 423 688L343 529H288Z" glyph-name="ohungarumlaut" horiz-adv-x="535" unicode="ő" /><glyph d="M996 641 595 641V384H853V328H595V58H996V0H415Q325 0 256.5 25.5Q188 51 141.5 97Q95 143 71.5 207.5Q48 272 48 350Q48 428 71.5 492.5Q95 557 141.5 603Q188 649 256.5 674.5Q325 700 415 700H996ZM113 350Q113 277 134.5 221.5Q156 166 196 129.5Q236 93 292 74.5Q348 56 417 56H531V643H417Q348 643 292 624.5Q236 606 196 569.5Q156 533 134.5 478Q113 423 113 350Z" glyph-name="OE" horiz-adv-x="1030" unicode="Œ" /><glyph d="M496 202Q499 168 511.5 138.5Q524 109 545 87.5Q566 66 594.5 54Q623 42 657 42Q702 42 738 62Q774 82 794 118H865Q837 58 781.5 23Q726 -12 657 -12Q591 -12 540.5 19.5Q490 51 464 106Q436 51 384.5 19.5Q333 -12 267 -12Q220 -12 178.5 5.5Q137 23 106 53.5Q75 84 57 126.5Q39 169 39 220Q39 271 57 313.5Q75 356 106 387Q137 418 178.5 435.5Q220 453 267 453Q333 453 384.5 421Q436 389 464 334Q490 389 540 421Q590 453 656 453Q699 453 739 437.5Q779 422 810 391.5Q841 361 859.5 314Q878 267 878 204V202ZM434 220Q434 258 422 290.5Q410 323 388 347Q366 371 335.5 385Q305 399 267 399Q230 399 199.5 385Q169 371 147 347Q125 323 113 290.5Q101 258 101 220Q101 183 113 150Q125 117 147 93Q169 69 199.5 55Q230 41 267 41Q305 41 335.5 55Q366 69 388 93Q410 117 422 150Q434 183 434 220ZM656 399Q623 399 595.5 388Q568 377 548 357Q528 337 515 310.5Q502 284 498 252H810Q807 282 795 308.5Q783 335 763 355.5Q743 376 716 387.5Q689 399 656 399Z" glyph-name="oe" horiz-adv-x="911" unicode="œ" /><glyph d="M299 308 152 308V0H90V700H288Q399 700 460.5 647.5Q522 595 522 507Q522 481 514.5 452Q507 423 488.5 396.5Q470 370 438.5 349Q407 328 359 319L564 0H493ZM459 504Q459 571 414 608Q369 645 291 645H152V363H291Q369 363 414 401Q459 439 459 504ZM326 954 401 954L321 795H266Z" glyph-name="Racute" horiz-adv-x="583" unicode="Ŕ" /><glyph d="M295 387 265 387Q236 387 211.5 380Q187 373 169 356.5Q151 340 141 313Q131 286 131 247V0H71V441H129V366Q148 411 185 430Q222 449 262 449Q270 449 278 448.5Q286 448 295 447ZM219 688 294 688L214 529H159Z" glyph-name="racute" horiz-adv-x="316" unicode="ŕ" /><glyph d="M299 308 152 308V0H90V700H288Q399 700 460.5 647.5Q522 595 522 507Q522 481 514.5 452Q507 423 488.5 396.5Q470 370 438.5 349Q407 328 359 319L564 0H493ZM459 504Q459 571 414 608Q369 645 291 645H152V363H291Q369 363 414 401Q459 439 459 504ZM220 -127Q220 -106 234.5 -90Q249 -74 272 -74Q294 -74 309.5 -89Q325 -104 325 -127Q325 -135 322 -144.5Q319 -154 316 -160L258 -266H212L252 -177Q238 -172 229 -158.5Q220 -145 220 -127Z" glyph-name="Rcommaaccent" horiz-adv-x="583" unicode="Ŗ" /><glyph d="M295 387 265 387Q236 387 211.5 380Q187 373 169 356.5Q151 340 141 313Q131 286 131 247V0H71V441H129V366Q148 411 185 430Q222 449 262 449Q270 449 278 448.5Q286 448 295 447ZM90 -127Q90 -106 104.5 -90Q119 -74 142 -74Q164 -74 179.5 -89Q195 -104 195 -127Q195 -135 192 -144.5Q189 -154 186 -160L128 -266H82L122 -177Q108 -172 99 -158.5Q90 -145 90 -127Z" glyph-name="rcommaaccent" horiz-adv-x="316" unicode="ŗ" /><glyph d="M299 308 152 308V0H90V700H288Q399 700 460.5 647.5Q522 595 522 507Q522 481 514.5 452Q507 423 488.5 396.5Q470 370 438.5 349Q407 328 359 319L564 0H493ZM459 504Q459 571 414 608Q369 645 291 645H152V363H291Q369 363 414 401Q459 439 459 504ZM327 795 243 795L156 954H221L285 840L349 954H414Z" glyph-name="Rcaron" horiz-adv-x="583" unicode="Ř" /><glyph d="M295 387 265 387Q236 387 211.5 380Q187 373 169 356.5Q151 340 141 313Q131 286 131 247V0H71V441H129V366Q148 411 185 430Q222 449 262 449Q270 449 278 448.5Q286 448 295 447ZM203 529 119 529L32 688H97L161 574L225 688H290Z" glyph-name="rcaron" horiz-adv-x="316" unicode="ř" /><glyph d="M418 596Q392 619 349.5 638.5Q307 658 263 658Q236 658 210 650.5Q184 643 163.5 628.5Q143 614 131 592Q119 570 119 541Q119 506 143 475Q167 444 221 416L294 378Q376 335 416 287.5Q456 240 456 176Q456 141 442 107.5Q428 74 400 47.5Q372 21 331.5 4.5Q291 -12 238 -12Q168 -12 116.5 12.5Q65 37 29 69L64 116Q101 81 145 61.5Q189 42 242 42Q277 42 305 53Q333 64 352.5 82.5Q372 101 382.5 124.5Q393 148 393 172Q393 199 384.5 220Q376 241 359 259.5Q342 278 316.5 294.5Q291 311 256 329L197 360Q128 396 92.5 437.5Q57 479 57 539Q57 580 73.5 612Q90 644 118 666.5Q146 689 183.5 700.5Q221 712 262 712Q319 712 368.5 691.5Q418 671 452 644ZM306 954 381 954L301 795H246Z" glyph-name="Sacute" horiz-adv-x="499" unicode="Ś" /><glyph d="M188 42Q233 42 259 64Q285 86 285 117Q285 150 259.5 168Q234 186 186 203L161 212Q110 230 79.5 258Q49 286 49 334Q49 361 60.5 383Q72 405 92.5 420.5Q113 436 140.5 444.5Q168 453 200 453Q239 453 277 439.5Q315 426 343 402L310 356Q287 375 255.5 387.5Q224 400 198 400Q161 400 136.5 383Q112 366 112 337Q112 295 177 270L228 251Q292 226 320 195.5Q348 165 348 116Q348 95 338.5 72Q329 49 309.5 30.5Q290 12 259 0Q228 -12 186 -12Q147 -12 104 3Q61 18 31 43L63 89Q89 67 124 54.5Q159 42 188 42ZM244 688 319 688L239 529H184Z" glyph-name="sacute" horiz-adv-x="386" unicode="ś" /><glyph d="M418 596Q392 619 349.5 638.5Q307 658 263 658Q236 658 210 650.5Q184 643 163.5 628.5Q143 614 131 592Q119 570 119 541Q119 506 143 475Q167 444 221 416L294 378Q376 335 416 287.5Q456 240 456 176Q456 141 442 107.5Q428 74 400 47.5Q372 21 331.5 4.5Q291 -12 238 -12Q168 -12 116.5 12.5Q65 37 29 69L64 116Q101 81 145 61.5Q189 42 242 42Q277 42 305 53Q333 64 352.5 82.5Q372 101 382.5 124.5Q393 148 393 172Q393 199 384.5 220Q376 241 359 259.5Q342 278 316.5 294.5Q291 311 256 329L197 360Q128 396 92.5 437.5Q57 479 57 539Q57 580 73.5 612Q90 644 118 666.5Q146 689 183.5 700.5Q221 712 262 712Q319 712 368.5 691.5Q418 671 452 644ZM377 795 312 795L248 909L184 795H119L206 954H290Z" glyph-name="Scircumflex" horiz-adv-x="499" unicode="Ŝ" /><glyph d="M188 42Q233 42 259 64Q285 86 285 117Q285 150 259.5 168Q234 186 186 203L161 212Q110 230 79.5 258Q49 286 49 334Q49 361 60.5 383Q72 405 92.5 420.5Q113 436 140.5 444.5Q168 453 200 453Q239 453 277 439.5Q315 426 343 402L310 356Q287 375 255.5 387.5Q224 400 198 400Q161 400 136.5 383Q112 366 112 337Q112 295 177 270L228 251Q292 226 320 195.5Q348 165 348 116Q348 95 338.5 72Q329 49 309.5 30.5Q290 12 259 0Q228 -12 186 -12Q147 -12 104 3Q61 18 31 43L63 89Q89 67 124 54.5Q159 42 188 42ZM327 529 262 529L198 643L134 529H69L156 688H240Z" glyph-name="scircumflex" horiz-adv-x="386" unicode="ŝ" /><glyph d="M219 -11Q156 -8 109.5 15.5Q63 39 29 69L64 116Q101 81 145 61.5Q189 42 242 42Q277 42 305 53Q333 64 352.5 82.5Q372 101 382.5 124.5Q393 148 393 172Q393 199 384.5 220Q376 241 359 259.5Q342 278 316.5 294.5Q291 311 256 329L197 360Q128 396 92.5 437.5Q57 479 57 539Q57 580 73.5 612Q90 644 118 666.5Q146 689 183.5 700.5Q221 712 262 712Q319 712 368.5 691.5Q418 671 452 644L418 596Q392 619 349.5 638.5Q307 658 263 658Q236 658 210 650.5Q184 643 163.5 628.5Q143 614 131 592Q119 570 119 541Q119 506 143 475Q167 444 221 416L294 378Q376 335 416 287.5Q456 240 456 176Q456 145 444.5 115Q433 85 411.5 60Q390 35 358 17Q326 -1 284 -8L219 -160H166Z" glyph-name="Scedilla" horiz-adv-x="499" unicode="Ş" /><glyph d="M161 -10Q126 -6 91 8Q56 22 30 43L62 89Q88 67 123 54.5Q158 42 187 42Q232 42 258 64Q284 86 284 117Q284 150 258.5 168Q233 186 185 203L160 212Q109 230 78.5 258Q48 286 48 334Q48 361 59.5 383Q71 405 91.5 420.5Q112 436 139.5 444.5Q167 453 199 453Q238 453 276 439.5Q314 426 342 402L309 356Q286 375 254.5 387.5Q223 400 197 400Q160 400 135.5 383Q111 366 111 337Q111 295 176 270L227 251Q291 226 319 195.5Q347 165 347 116Q347 97 340 77Q333 57 318 40Q303 23 280 9.5Q257 -4 225 -9L161 -160H108Z" glyph-name="scedilla" horiz-adv-x="386" unicode="ş" /><glyph d="M418 596Q392 619 349.5 638.5Q307 658 263 658Q236 658 210 650.5Q184 643 163.5 628.5Q143 614 131 592Q119 570 119 541Q119 506 143 475Q167 444 221 416L294 378Q376 335 416 287.5Q456 240 456 176Q456 141 442 107.5Q428 74 400 47.5Q372 21 331.5 4.5Q291 -12 238 -12Q168 -12 116.5 12.5Q65 37 29 69L64 116Q101 81 145 61.5Q189 42 242 42Q277 42 305 53Q333 64 352.5 82.5Q372 101 382.5 124.5Q393 148 393 172Q393 199 384.5 220Q376 241 359 259.5Q342 278 316.5 294.5Q291 311 256 329L197 360Q128 396 92.5 437.5Q57 479 57 539Q57 580 73.5 612Q90 644 118 666.5Q146 689 183.5 700.5Q221 712 262 712Q319 712 368.5 691.5Q418 671 452 644ZM295 783 211 783L124 942H189L253 828L317 942H382Z" glyph-name="Scaron" horiz-adv-x="499" unicode="Š" /><glyph d="M188 42Q233 42 259 64Q285 86 285 117Q285 150 259.5 168Q234 186 186 203L161 212Q110 230 79.5 258Q49 286 49 334Q49 361 60.5 383Q72 405 92.5 420.5Q113 436 140.5 444.5Q168 453 200 453Q239 453 277 439.5Q315 426 343 402L310 356Q287 375 255.5 387.5Q224 400 198 400Q161 400 136.5 383Q112 366 112 337Q112 295 177 270L228 251Q292 226 320 195.5Q348 165 348 116Q348 95 338.5 72Q329 49 309.5 30.5Q290 12 259 0Q228 -12 186 -12Q147 -12 104 3Q61 18 31 43L63 89Q89 67 124 54.5Q159 42 188 42ZM238 529 154 529L67 688H132L196 574L260 688H325Z" glyph-name="scaron" horiz-adv-x="386" unicode="š" /><glyph d="M514 700 514 643H294V0H232V643H13V700ZM208 -127Q208 -106 222.5 -90Q237 -74 260 -74Q282 -74 297.5 -89Q313 -104 313 -127Q313 -135 310 -144.5Q307 -154 304 -160L246 -266H200L240 -177Q226 -172 217 -158.5Q208 -145 208 -127Z" glyph-name="Tcommaaccent" horiz-adv-x="527" unicode="Ţ" /><glyph d="M157 627 157 441H266V390H157V91Q157 60 176 54Q195 48 220 48Q231 48 239 48.5Q247 49 254 50Q261 50 266 51V0Q257 -1 246 -2Q235 -3 223.5 -3.5Q212 -4 198 -4Q181 -4 163 -1Q145 2 130 12Q115 22 105.5 40.5Q96 59 96 90V390H20V441H96V627ZM106 -127Q106 -106 120.5 -90Q135 -74 158 -74Q180 -74 195.5 -89Q211 -104 211 -127Q211 -135 208 -144.5Q205 -154 202 -160L144 -266H98L138 -177Q124 -172 115 -158.5Q106 -145 106 -127Z" glyph-name="tcommaaccent" horiz-adv-x="288" unicode="ţ" /><glyph d="M514 700 514 643H294V0H232V643H13V700ZM305 795 221 795L134 954H199L263 840L327 954H392Z" glyph-name="Tcaron" horiz-adv-x="527" unicode="Ť" /><glyph d="M157 627 157 441H266V390H157V91Q157 60 176 54Q195 48 220 48Q231 48 239 48.5Q247 49 254 50Q261 50 266 51V0Q257 -1 246 -2Q235 -3 223.5 -3.5Q212 -4 198 -4Q181 -4 163 -1Q145 2 130 12Q115 22 105.5 40.5Q96 59 96 90V390H20V441H96V627ZM231 659Q231 680 245.5 696Q260 712 283 712Q305 712 320.5 697Q336 682 336 659Q336 651 333 641.5Q330 632 327 626L269 520H223L263 609Q249 614 240 627.5Q231 641 231 659Z" glyph-name="tcaron" horiz-adv-x="288" unicode="ť" /><glyph d="M521 700 521 643H301V384H445V329H301V0H239V329H97V384H239V643H20V700Z" glyph-name="Tbar" horiz-adv-x="542" unicode="Ŧ" /><glyph d="M22 286 98 286V390H22V441H98V627H159V441H268V390H159V286H268V235H159V91Q159 60 178 54Q197 48 222 48Q233 48 241 48.5Q249 49 256 50Q263 50 268 51V0Q259 -1 248 -2Q237 -3 225.5 -3.5Q214 -4 200 -4Q183 -4 165 -1Q147 2 132 12Q117 22 107.5 40.5Q98 59 98 90V235H22Z" glyph-name="tbar" horiz-adv-x="293" unicode="ŧ" /><glyph d="M314 -12Q254 -12 210.5 5.5Q167 23 138.5 54Q110 85 96.5 127.5Q83 170 83 219V700H145V220Q145 183 154.5 150Q164 117 185 93Q206 69 238 55Q270 41 315 41Q359 41 391 55Q423 69 444 93Q465 117 475 150Q485 183 485 220V700H545V220Q545 171 531.5 128.5Q518 86 489.5 54.5Q461 23 417.5 5.5Q374 -12 314 -12ZM181 818Q181 828 183 843Q185 858 192.5 871.5Q200 885 214.5 894.5Q229 904 254 904Q269 904 285 897.5Q301 891 317 883Q333 875 347.5 868.5Q362 862 372 862Q382 862 389 866.5Q396 871 396 891V902H450V889Q450 879 448 864Q446 849 438.5 835.5Q431 822 416.5 812.5Q402 803 377 803Q361 803 344 809.5Q327 816 311.5 824Q296 832 282 838.5Q268 845 259 845Q249 845 242 840.5Q235 836 235 816V805H181Z" glyph-name="Utilde" horiz-adv-x="628" unicode="Ũ" /><glyph d="M254 -12Q208 -12 172.5 1.5Q137 15 113 38Q89 61 77 91.5Q65 122 65 157V441H126V163Q126 103 162.5 72.5Q199 42 254 42Q309 42 345.5 72.5Q382 103 382 163V441H443V157Q443 122 431 91.5Q419 61 395 38Q371 15 335.5 1.5Q300 -12 254 -12ZM121 552Q121 562 123 577Q125 592 132.5 605.5Q140 619 154.5 628.5Q169 638 194 638Q209 638 225 631.5Q241 625 257 617Q273 609 287.5 602.5Q302 596 312 596Q322 596 329 600.5Q336 605 336 625V636H390V623Q390 613 388 598Q386 583 378.5 569.5Q371 556 356.5 546.5Q342 537 317 537Q301 537 284 543.5Q267 550 251.5 558Q236 566 222 572.5Q208 579 199 579Q189 579 182 574.5Q175 570 175 550V539H121Z" glyph-name="utilde" horiz-adv-x="508" unicode="ũ" /><glyph d="M314 -12Q254 -12 210.5 5.5Q167 23 138.5 54Q110 85 96.5 127.5Q83 170 83 219V700H145V220Q145 183 154.5 150Q164 117 185 93Q206 69 238 55Q270 41 315 41Q359 41 391 55Q423 69 444 93Q465 117 475 150Q485 183 485 220V700H545V220Q545 171 531.5 128.5Q518 86 489.5 54.5Q461 23 417.5 5.5Q374 -12 314 -12ZM185 865 443 865V813H185Z" glyph-name="Umacron" horiz-adv-x="628" unicode="Ū" /><glyph d="M254 -12Q208 -12 172.5 1.5Q137 15 113 38Q89 61 77 91.5Q65 122 65 157V441H126V163Q126 103 162.5 72.5Q199 42 254 42Q309 42 345.5 72.5Q382 103 382 163V441H443V157Q443 122 431 91.5Q419 61 395 38Q371 15 335.5 1.5Q300 -12 254 -12ZM122 599 380 599V547H122Z" glyph-name="umacron" horiz-adv-x="508" unicode="ū" /><glyph d="M314 -12Q254 -12 210.5 5.5Q167 23 138.5 54Q110 85 96.5 127.5Q83 170 83 219V700H145V220Q145 183 154.5 150Q164 117 185 93Q206 69 238 55Q270 41 315 41Q359 41 391 55Q423 69 444 93Q465 117 475 150Q485 183 485 220V700H545V220Q545 171 531.5 128.5Q518 86 489.5 54.5Q461 23 417.5 5.5Q374 -12 314 -12ZM315 835Q346 835 358 854.5Q370 874 370 910V930H424V887Q421 836 390.5 810.5Q360 785 315 785Q270 785 239.5 810.5Q209 836 206 887V930H259V898Q259 867 274 851Q289 835 315 835Z" glyph-name="Ubreve" horiz-adv-x="628" unicode="Ŭ" /><glyph d="M254 -12Q208 -12 172.5 1.5Q137 15 113 38Q89 61 77 91.5Q65 122 65 157V441H126V163Q126 103 162.5 72.5Q199 42 254 42Q309 42 345.5 72.5Q382 103 382 163V441H443V157Q443 122 431 91.5Q419 61 395 38Q371 15 335.5 1.5Q300 -12 254 -12ZM255 569Q286 569 298 588.5Q310 608 310 644V664H364V621Q361 570 330.5 544.5Q300 519 255 519Q210 519 179.5 544.5Q149 570 146 621V664H199V632Q199 601 214 585Q229 569 255 569Z" glyph-name="ubreve" horiz-adv-x="508" unicode="ŭ" /><glyph d="M314 -12Q254 -12 210.5 5.5Q167 23 138.5 54Q110 85 96.5 127.5Q83 170 83 219V700H145V220Q145 183 154.5 150Q164 117 185 93Q206 69 238 55Q270 41 315 41Q359 41 391 55Q423 69 444 93Q465 117 475 150Q485 183 485 220V700H545V220Q545 171 531.5 128.5Q518 86 489.5 54.5Q461 23 417.5 5.5Q374 -12 314 -12ZM313 762Q271 762 240.5 790.5Q210 819 210 864Q210 909 240.5 937.5Q271 966 313 966Q355 966 385.5 937.5Q416 909 416 864Q416 819 385.5 790.5Q355 762 313 762ZM313 808Q336 808 350.5 824.5Q365 841 365 864Q365 887 350.5 903.5Q336 920 313 920Q290 920 275.5 903.5Q261 887 261 864Q261 841 275.5 824.5Q290 808 313 808Z" glyph-name="Uring" horiz-adv-x="628" unicode="Ů" /><glyph d="M254 -12Q208 -12 172.5 1.5Q137 15 113 38Q89 61 77 91.5Q65 122 65 157V441H126V163Q126 103 162.5 72.5Q199 42 254 42Q309 42 345.5 72.5Q382 103 382 163V441H443V157Q443 122 431 91.5Q419 61 395 38Q371 15 335.5 1.5Q300 -12 254 -12ZM250 496Q208 496 177.5 524.5Q147 553 147 598Q147 643 177.5 671.5Q208 700 250 700Q292 700 322.5 671.5Q353 643 353 598Q353 553 322.5 524.5Q292 496 250 496ZM250 542Q273 542 287.5 558.5Q302 575 302 598Q302 621 287.5 637.5Q273 654 250 654Q227 654 212.5 637.5Q198 621 198 598Q198 575 212.5 558.5Q227 542 250 542Z" glyph-name="uring" horiz-adv-x="508" unicode="ů" /><glyph d="M314 -12Q254 -12 210.5 5.5Q167 23 138.5 54Q110 85 96.5 127.5Q83 170 83 219V700H145V220Q145 183 154.5 150Q164 117 185 93Q206 69 238 55Q270 41 315 41Q359 41 391 55Q423 69 444 93Q465 117 475 150Q485 183 485 220V700H545V220Q545 171 531.5 128.5Q518 86 489.5 54.5Q461 23 417.5 5.5Q374 -12 314 -12ZM264 954 337 954L257 795H202ZM403 954 476 954L396 795H341Z" glyph-name="Uhungarumlaut" horiz-adv-x="628" unicode="Ű" /><glyph d="M254 -12Q208 -12 172.5 1.5Q137 15 113 38Q89 61 77 91.5Q65 122 65 157V441H126V163Q126 103 162.5 72.5Q199 42 254 42Q309 42 345.5 72.5Q382 103 382 163V441H443V157Q443 122 431 91.5Q419 61 395 38Q371 15 335.5 1.5Q300 -12 254 -12ZM219 688 292 688L212 529H157ZM358 688 431 688L351 529H296Z" glyph-name="uhungarumlaut" horiz-adv-x="508" unicode="ű" /><glyph d="M546 220Q546 174 534 133.5Q522 93 497 62Q472 31 434 12Q396 -7 344 -11Q322 -27 303 -47Q284 -67 284 -92Q284 -115 299.5 -126.5Q315 -138 339 -138Q367 -138 394 -125V-169Q385 -173 374 -176Q364 -179 352 -181Q340 -183 326 -183Q276 -183 251 -157Q226 -131 226 -100Q226 -70 244 -47.5Q262 -25 283 -10Q231 -6 193.5 13.5Q156 33 131.5 63Q107 93 95.5 133Q84 173 84 219V700H146V220Q146 183 155.5 150Q165 117 186 93Q207 69 239 55Q271 41 316 41Q360 41 392 55Q424 69 445 93Q466 117 476 150Q486 183 486 220V700H546Z" glyph-name="Uogonek" horiz-adv-x="630" unicode="Ų" /><glyph d="M444 157Q444 126 434 97.5Q424 69 404 46.5Q384 24 355 9Q326 -6 288 -10Q266 -26 246.5 -46Q227 -66 227 -92Q227 -115 242.5 -126.5Q258 -138 282 -138Q310 -138 337 -125V-169Q328 -173 317 -176Q307 -179 295 -181Q283 -183 269 -183Q219 -183 194 -157Q169 -131 169 -100Q169 -70 187 -47.5Q205 -25 226 -10Q187 -6 157 8.5Q127 23 107 45Q87 67 76.5 96Q66 125 66 157V441H127V163Q127 103 163.5 72.5Q200 42 255 42Q310 42 346.5 72.5Q383 103 383 163V441H444Z" glyph-name="uogonek" horiz-adv-x="510" unicode="ų" /><glyph d="M640 0 468 635L299 0H209L34 700H100L256 63H258L429 700H508L683 63H685L839 700H902L729 0ZM597 795 532 795L468 909L404 795H339L426 954H510Z" glyph-name="Wcircumflex" horiz-adv-x="937" unicode="Ŵ" /><glyph d="M611 441 677 441L549 0H466L354 379L241 0H158L34 441H102L200 50L319 441H391L509 50ZM483 529 418 529L354 643L290 529H225L312 688H396Z" glyph-name="wcircumflex" horiz-adv-x="710" unicode="ŵ" /><glyph d="M10 700 85 700L313 366H314L541 700H614L344 312V0H281V310ZM443 795 378 795L314 909L250 795H185L272 954H356Z" glyph-name="Ycircumflex" horiz-adv-x="624" unicode="Ŷ" /><glyph d="M214 0 192 0L28 441H96L234 49L376 441H441L244 -78Q235 -102 224.5 -120Q214 -138 200 -150Q186 -162 166 -168.5Q146 -175 118 -175H67V-124H117Q150 -124 165 -107Q180 -90 193 -56ZM363 529 298 529L234 643L170 529H105L192 688H276Z" glyph-name="ycircumflex" horiz-adv-x="467" unicode="ŷ" /><glyph d="M10 700 85 700L313 366H314L541 700H614L344 312V0H281V310ZM186 828Q186 848 201 863Q216 878 236 878Q256 878 271.5 863Q287 848 287 828Q287 808 271.5 793Q256 778 236 778Q216 778 201 793Q186 808 186 828ZM344 828Q344 848 359 863Q374 878 394 878Q414 878 429.5 863Q445 848 445 828Q445 808 429.5 793Q414 778 394 778Q374 778 359 793Q344 808 344 828Z" glyph-name="Ydieresis" horiz-adv-x="624" unicode="Ÿ" /><glyph d="M40 643 40 700H537V641L101 57H537V0H29V59L465 643ZM328 954 403 954L323 795H268Z" glyph-name="Zacute" horiz-adv-x="571" unicode="Ź" /><glyph d="M377 389 109 51H377V0H38V51L306 389H38V441H377ZM243 688 318 688L238 529H183Z" glyph-name="zacute" horiz-adv-x="415" unicode="ź" /><glyph d="M40 643 40 700H537V641L101 57H537V0H29V59L465 643ZM288 903Q311 903 326.5 887Q342 871 342 849Q342 827 326.5 811.5Q311 796 288 796Q265 796 249.5 811.5Q234 827 234 849Q234 871 249.5 887Q265 903 288 903Z" glyph-name="Zdotaccent" horiz-adv-x="571" unicode="Ż" /><glyph d="M377 389 109 51H377V0H38V51L306 389H38V441H377ZM215 637Q238 637 253.5 621Q269 605 269 583Q269 561 253.5 545.5Q238 530 215 530Q192 530 176.5 545.5Q161 561 161 583Q161 605 176.5 621Q192 637 215 637Z" glyph-name="zdotaccent" horiz-adv-x="415" unicode="ż" /><glyph d="M40 643 40 700H537V641L101 57H537V0H29V59L465 643ZM334 783 250 783L163 942H228L292 828L356 942H421Z" glyph-name="Zcaron" horiz-adv-x="571" unicode="Ž" /><glyph d="M377 389 109 51H377V0H38V51L306 389H38V441H377ZM254 529 170 529L83 688H148L212 574L276 688H341Z" glyph-name="zcaron" horiz-adv-x="415" unicode="ž" /><glyph d="M157 0 96 0V390H20V441H96V599Q96 630 105 650Q114 670 128.5 682Q143 694 160.5 699Q178 704 196 704Q208 704 219 703.5Q230 703 238 702Q248 701 256 700V647Q248 648 240 650Q233 651 225.5 651.5Q218 652 212 652Q183 652 170 638.5Q157 625 157 592Z" glyph-name="longs" horiz-adv-x="248" unicode="ſ" /><glyph d="M131 299 41 299V350H131V577Q131 632 162 666Q193 700 259 700H295V648H262Q234 648 213 634Q192 620 192 583V350H282V299H192V-34Q192 -66 186 -92Q180 -118 165.5 -136.5Q151 -155 126.5 -165.5Q102 -176 64 -176H28V-124H61Q90 -124 110.5 -110.5Q131 -97 131 -59Z" glyph-name="florin" horiz-adv-x="326" unicode="ƒ" /><glyph d="M418 596Q392 619 349.5 638.5Q307 658 263 658Q236 658 210 650.5Q184 643 163.5 628.5Q143 614 131 592Q119 570 119 541Q119 506 143 475Q167 444 221 416L294 378Q376 335 416 287.5Q456 240 456 176Q456 141 442 107.5Q428 74 400 47.5Q372 21 331.5 4.5Q291 -12 238 -12Q168 -12 116.5 12.5Q65 37 29 69L64 116Q101 81 145 61.5Q189 42 242 42Q277 42 305 53Q333 64 352.5 82.5Q372 101 382.5 124.5Q393 148 393 172Q393 199 384.5 220Q376 241 359 259.5Q342 278 316.5 294.5Q291 311 256 329L197 360Q128 396 92.5 437.5Q57 479 57 539Q57 580 73.5 612Q90 644 118 666.5Q146 689 183.5 700.5Q221 712 262 712Q319 712 368.5 691.5Q418 671 452 644ZM194 -127Q194 -106 208.5 -90Q223 -74 246 -74Q268 -74 283.5 -89Q299 -104 299 -127Q299 -135 296 -144.5Q293 -154 290 -160L232 -266H186L226 -177Q212 -172 203 -158.5Q194 -145 194 -127Z" glyph-name="Scommaaccent" horiz-adv-x="499" unicode="Ș" /><glyph d="M188 42Q233 42 259 64Q285 86 285 117Q285 150 259.5 168Q234 186 186 203L161 212Q110 230 79.5 258Q49 286 49 334Q49 361 60.5 383Q72 405 92.5 420.5Q113 436 140.5 444.5Q168 453 200 453Q239 453 277 439.5Q315 426 343 402L310 356Q287 375 255.5 387.5Q224 400 198 400Q161 400 136.5 383Q112 366 112 337Q112 295 177 270L228 251Q292 226 320 195.5Q348 165 348 116Q348 95 338.5 72Q329 49 309.5 30.5Q290 12 259 0Q228 -12 186 -12Q147 -12 104 3Q61 18 31 43L63 89Q89 67 124 54.5Q159 42 188 42ZM139 -127Q139 -106 153.5 -90Q168 -74 191 -74Q213 -74 228.5 -89Q244 -104 244 -127Q244 -135 241 -144.5Q238 -154 235 -160L177 -266H131L171 -177Q157 -172 148 -158.5Q139 -145 139 -127Z" glyph-name="scommaaccent" horiz-adv-x="386" unicode="ș" /><glyph d="M514 700 514 643H294V0H232V643H13V700ZM208 -127Q208 -106 222.5 -90Q237 -74 260 -74Q282 -74 297.5 -89Q313 -104 313 -127Q313 -135 310 -144.5Q307 -154 304 -160L246 -266H200L240 -177Q226 -172 217 -158.5Q208 -145 208 -127Z" glyph-name="uni021A" horiz-adv-x="527" unicode="Ț" /><glyph d="M157 627 157 441H266V390H157V91Q157 60 176 54Q195 48 220 48Q231 48 239 48.5Q247 49 254 50Q261 50 266 51V0Q257 -1 246 -2Q235 -3 223.5 -3.5Q212 -4 198 -4Q181 -4 163 -1Q145 2 130 12Q115 22 105.5 40.5Q96 59 96 90V390H20V441H96V627ZM106 -127Q106 -106 120.5 -90Q135 -74 158 -74Q180 -74 195.5 -89Q211 -104 211 -127Q211 -135 208 -144.5Q205 -154 202 -160L144 -266H98L138 -177Q124 -172 115 -158.5Q106 -145 106 -127Z" glyph-name="uni021B" horiz-adv-x="288" unicode="ț" /><glyph d="M87 390 17 390V441H148V-87Q148 -114 139.5 -131Q131 -148 117 -158Q103 -168 85 -171.5Q67 -175 48 -175H-3V-124H37Q60 -124 73.5 -116Q87 -108 87 -82Z" glyph-name="dotlessj" horiz-adv-x="219" unicode="ȷ" /><glyph d="M222 659Q222 680 236.5 696Q251 712 274 712Q296 712 311.5 697Q327 682 327 659Q327 651 324 641.5Q321 632 318 626L260 520H214L254 609Q240 614 231 627.5Q222 641 222 659Z" glyph-name="apostrophe" horiz-adv-x="528" unicode="ʼ" /><glyph d="M288 529 223 529L159 643L95 529H30L117 688H201Z" glyph-name="circumflex" horiz-adv-x="318" unicode="ˆ" /><glyph d="M201 529 117 529L30 688H95L159 574L223 688H288Z" glyph-name="caron" horiz-adv-x="318" unicode="ˇ" /><glyph d="M31 599 289 599V547H31Z" glyph-name="uni02C9" horiz-adv-x="320" unicode="ˉ" /><glyph d="M139 569Q170 569 182 588.5Q194 608 194 644V664H248V621Q245 570 214.5 544.5Q184 519 139 519Q94 519 63.5 544.5Q33 570 30 621V664H83V632Q83 601 98 585Q113 569 139 569Z" glyph-name="breve" horiz-adv-x="278" unicode="˘" /><glyph d="M82 637Q105 637 120.5 621Q136 605 136 583Q136 561 120.5 545.5Q105 530 82 530Q59 530 43.5 545.5Q28 561 28 583Q28 605 43.5 621Q59 637 82 637Z" glyph-name="dotaccent" horiz-adv-x="164" unicode="˙" /><glyph d="M132 496Q90 496 59.5 524.5Q29 553 29 598Q29 643 59.5 671.5Q90 700 132 700Q174 700 204.5 671.5Q235 643 235 598Q235 553 204.5 524.5Q174 496 132 496ZM132 542Q155 542 169.5 558.5Q184 575 184 598Q184 621 169.5 637.5Q155 654 132 654Q109 654 94.5 637.5Q80 621 80 598Q80 575 94.5 558.5Q109 542 132 542Z" glyph-name="ring" horiz-adv-x="265" unicode="˚" /><glyph d="M153 2Q141 -7 127.5 -17Q114 -27 102 -38.5Q90 -50 82.5 -63.5Q75 -77 75 -92Q75 -115 90.5 -126.5Q106 -138 130 -138Q158 -138 185 -125V-169Q176 -173 165 -176Q155 -179 143 -181Q131 -183 117 -183Q67 -183 42 -157Q17 -131 17 -100Q17 -78 28 -59.5Q39 -41 54 -27Q69 -13 85.5 -3.5Q102 6 113 12L151 8Z" glyph-name="ogonek" horiz-adv-x="224" unicode="˛" /><glyph d="M35 552Q35 562 37 577Q39 592 46.5 605.5Q54 619 68.5 628.5Q83 638 108 638Q123 638 139 631.5Q155 625 171 617Q187 609 201.5 602.5Q216 596 226 596Q236 596 243 600.5Q250 605 250 625V636H304V623Q304 613 302 598Q300 583 292.5 569.5Q285 556 270.5 546.5Q256 537 231 537Q215 537 198 543.5Q181 550 165.5 558Q150 566 136 572.5Q122 579 113 579Q103 579 96 574.5Q89 570 89 550V539H35Z" glyph-name="tilde" horiz-adv-x="344" unicode="˜" /><glyph d="M102 688 175 688L95 529H40ZM241 688 314 688L234 529H179Z" glyph-name="hungarumlaut" horiz-adv-x="345" unicode="˝" /><glyph d="M275 700 352 700L596 57V0H32V57ZM530 55 312 644L96 55Z" glyph-name="Delta" horiz-adv-x="628" unicode="∆" /><glyph d="M334 657Q291 657 250.5 644Q210 631 178 604Q146 577 126.5 535.5Q107 494 107 438Q107 386 121 348Q135 310 159 283.5Q183 257 214 241Q245 225 279 216V0H80V55H219V186Q190 195 159.5 214Q129 233 103.5 263.5Q78 294 62 337.5Q46 381 46 439Q46 502 68.5 552.5Q91 603 130 638.5Q169 674 221.5 693Q274 712 334 712Q394 712 446 693Q498 674 537 638.5Q576 603 598.5 552.5Q621 502 621 439Q621 381 605 337.5Q589 294 563.5 263.5Q538 233 507.5 214Q477 195 448 186V55H587V0H388V216Q422 225 453 241Q484 257 508 283.5Q532 310 546 348Q560 386 560 438Q560 494 540.5 535.5Q521 577 489.5 604Q458 631 417 644Q376 657 334 657Z" glyph-name="Omega" horiz-adv-x="666" unicode="Ω" /><glyph d="M171 390 171 0H110V390H27V441H554V390H454V91Q454 65 470 56.5Q486 48 506 48Q520 48 530.5 48.5Q541 49 549 49Q557 49 564 50V0Q554 -1 543 -2Q533 -3 521 -3.5Q509 -4 495 -4Q478 -4 460 -1Q442 2 427 12Q412 22 402.5 40.5Q393 59 393 90V390Z" glyph-name="pi" horiz-adv-x="595" unicode="π" /><glyph d="M640 0 468 635L299 0H209L34 700H100L256 63H258L429 700H508L683 63H685L839 700H902L729 0ZM475 795 420 795L340 954H415Z" glyph-name="Wgrave" horiz-adv-x="937" unicode="Ẁ" /><glyph d="M611 441 677 441L549 0H466L354 379L241 0H158L34 441H102L200 50L319 441H391L509 50ZM366 529 311 529L231 688H306Z" glyph-name="wgrave" horiz-adv-x="710" unicode="ẁ" /><glyph d="M640 0 468 635L299 0H209L34 700H100L256 63H258L429 700H508L683 63H685L839 700H902L729 0ZM515 954 590 954L510 795H455Z" glyph-name="Wacute" horiz-adv-x="937" unicode="Ẃ" /><glyph d="M611 441 677 441L549 0H466L354 379L241 0H158L34 441H102L200 50L319 441H391L509 50ZM393 688 468 688L388 529H333Z" glyph-name="wacute" horiz-adv-x="710" unicode="ẃ" /><glyph d="M640 0 468 635L299 0H209L34 700H100L256 63H258L429 700H508L683 63H685L839 700H902L729 0ZM340 840Q340 860 355 875Q370 890 390 890Q410 890 425.5 875Q441 860 441 840Q441 820 425.5 805Q410 790 390 790Q370 790 355 805Q340 820 340 840ZM498 840Q498 860 513 875Q528 890 548 890Q568 890 583.5 875Q599 860 599 840Q599 820 583.5 805Q568 790 548 790Q528 790 513 805Q498 820 498 840Z" glyph-name="Wdieresis" horiz-adv-x="937" unicode="Ẅ" /><glyph d="M611 441 677 441L549 0H466L354 379L241 0H158L34 441H102L200 50L319 441H391L509 50ZM225 574Q225 594 240 609Q255 624 275 624Q295 624 310.5 609Q326 594 326 574Q326 554 310.5 539Q295 524 275 524Q255 524 240 539Q225 554 225 574ZM383 574Q383 594 398 609Q413 624 433 624Q453 624 468.5 609Q484 594 484 574Q484 554 468.5 539Q453 524 433 524Q413 524 398 539Q383 554 383 574Z" glyph-name="wdieresis" horiz-adv-x="710" unicode="ẅ" /><glyph d="M10 700 85 700L313 366H314L541 700H614L344 312V0H281V310ZM340 795 285 795L205 954H280Z" glyph-name="Ygrave" horiz-adv-x="624" unicode="Ỳ" /><glyph d="M214 0 192 0L28 441H96L234 49L376 441H441L244 -78Q235 -102 224.5 -120Q214 -138 200 -150Q186 -162 166 -168.5Q146 -175 118 -175H67V-124H117Q150 -124 165 -107Q180 -90 193 -56ZM256 529 201 529L121 688H196Z" glyph-name="ygrave" horiz-adv-x="467" unicode="ỳ" /><glyph d="M40 303 460 303V252H40Z" glyph-name="endash" horiz-adv-x="500" unicode="–" /><glyph d="M40 303 960 303V252H40Z" glyph-name="emdash" horiz-adv-x="1000" unicode="—" /><glyph d="M175 552Q175 527 157.5 509Q140 491 114 491Q89 491 71 508.5Q53 526 53 552Q53 562 56 572.5Q59 583 63 590L129 712H183L137 610Q154 603 164.5 587.5Q175 572 175 552Z" glyph-name="quoteleft" horiz-adv-x="235" unicode="‘" /><glyph d="M69 650Q69 676 86.5 694Q104 712 130 712Q155 712 173 694Q191 676 191 650Q191 641 188 630.5Q185 620 181 612L115 491H61L107 593Q90 599 79.5 614.5Q69 630 69 650Z" glyph-name="quoteright" horiz-adv-x="240" unicode="’" /><glyph d="M63 48Q63 74 80.5 92Q98 110 124 110Q149 110 167 92Q185 74 185 48Q185 39 182 28.5Q179 18 175 10L109 -111H55L101 -9Q84 -3 73.5 12.5Q63 28 63 48Z" glyph-name="quotesinglbase" horiz-adv-x="248" unicode="‚" /><glyph d="M175 552Q175 527 157.5 509Q140 491 114 491Q89 491 71 508.5Q53 526 53 552Q53 562 56 572.5Q59 583 63 590L129 712H183L137 610Q154 603 164.5 587.5Q175 572 175 552ZM345 552Q345 527 328 509Q311 491 285 491Q259 491 241.5 508.5Q224 526 224 552Q224 562 226.5 572.5Q229 583 233 590L299 712H354L308 610Q325 603 335 587.5Q345 572 345 552Z" glyph-name="quotedblleft" horiz-adv-x="406" unicode="“" /><glyph d="M240 650Q240 676 257 694Q274 712 300 712Q326 712 343.5 694Q361 676 361 650Q361 641 358.5 630.5Q356 620 352 612L286 491H231L277 593Q260 599 250 614.5Q240 630 240 650ZM69 650Q69 676 86.5 694Q104 712 130 712Q155 712 173 694Q191 676 191 650Q191 641 188 630.5Q185 620 181 612L115 491H61L107 593Q90 599 79.5 614.5Q69 630 69 650Z" glyph-name="quotedblright" horiz-adv-x="411" unicode="”" /><glyph d="M234 48Q234 74 251 92Q268 110 294 110Q320 110 337.5 92Q355 74 355 48Q355 39 352.5 28.5Q350 18 346 10L280 -111H225L271 -9Q254 -3 244 12.5Q234 28 234 48ZM63 48Q63 74 80.5 92Q98 110 124 110Q149 110 167 92Q185 74 185 48Q185 39 182 28.5Q179 18 175 10L109 -111H55L101 -9Q84 -3 73.5 12.5Q63 28 63 48Z" glyph-name="quotedblbase" horiz-adv-x="418" unicode="„" /><glyph d="M271 0 209 0V406H31V459H209V700H271V459H449V406H271Z" glyph-name="dagger" horiz-adv-x="480" unicode="†" /><glyph d="M31 459 209 459V700H271V459H449V406H271V293H449V239H271V0H209V239H29V293H209V406H31Z" glyph-name="daggerdbl" horiz-adv-x="480" unicode="‡" /><glyph d="M82 359Q82 397 109.5 424Q137 451 175 451Q194 451 210.5 443.5Q227 436 239.5 423.5Q252 411 259.5 394.5Q267 378 267 359Q267 321 240 293.5Q213 266 175 266Q137 266 109.5 293.5Q82 321 82 359Z" glyph-name="bullet" horiz-adv-x="350" unicode="•" /><glyph d="M62 48Q62 74 79.5 91.5Q97 109 122 109Q148 109 165.5 91.5Q183 74 183 48Q183 23 165.5 5.5Q148 -12 122 -12Q97 -12 79.5 5.5Q62 23 62 48ZM363 48Q363 74 380.5 91.5Q398 109 423 109Q449 109 466.5 91.5Q484 74 484 48Q484 23 466.5 5.5Q449 -12 423 -12Q398 -12 380.5 5.5Q363 23 363 48ZM664 48Q664 74 681.5 91.5Q699 109 724 109Q750 109 767.5 91.5Q785 74 785 48Q785 23 767.5 5.5Q750 -12 724 -12Q699 -12 681.5 5.5Q664 23 664 48Z" glyph-name="ellipsis" horiz-adv-x="847" unicode="…" /><glyph d="M67 564Q67 594 78.5 621Q90 648 110 668.5Q130 689 157 700.5Q184 712 214 712Q244 712 270.5 700.5Q297 689 317 668.5Q337 648 348.5 621Q360 594 360 564Q360 534 348.5 507.5Q337 481 317 461Q297 441 270.5 429.5Q244 418 214 418Q184 418 157 429.5Q130 441 110 461Q90 481 78.5 507.5Q67 534 67 564ZM123 564Q123 545 130 527.5Q137 510 149.5 497Q162 484 178.5 476.5Q195 469 214 469Q232 469 248.5 476.5Q265 484 277.5 497Q290 510 297 527.5Q304 545 304 564Q304 604 277.5 632Q251 660 214 660Q176 660 149.5 632Q123 604 123 564ZM657 134Q657 104 645.5 77.5Q634 51 614 31Q594 11 567 -0.5Q540 -12 510 -12Q480 -12 453 -0.5Q426 11 406 31Q386 51 374.5 77.5Q363 104 363 134Q363 164 374.5 191Q386 218 406 238.5Q426 259 453 270.5Q480 282 510 282Q540 282 567 270.5Q594 259 614 238.5Q634 218 645.5 191Q657 164 657 134ZM600 134Q600 174 574 202Q548 230 510 230Q472 230 446 202Q420 174 420 134Q420 115 427 97.5Q434 80 446 67Q458 54 474.5 46.5Q491 39 510 39Q529 39 545.5 46.5Q562 54 574 67Q586 80 593 97.5Q600 115 600 134ZM80 99 48 141L633 590L665 548ZM1026 134Q1026 104 1014.5 77.5Q1003 51 983 31Q963 11 936 -0.5Q909 -12 879 -12Q849 -12 822 -0.5Q795 11 775 31Q755 51 743.5 77.5Q732 104 732 134Q732 164 743.5 191Q755 218 775 238.5Q795 259 822 270.5Q849 282 879 282Q909 282 936 270.5Q963 259 983 238.5Q1003 218 1014.5 191Q1026 164 1026 134ZM969 134Q969 174 943 202Q917 230 879 230Q841 230 815 202Q789 174 789 134Q789 115 796 97.5Q803 80 815 67Q827 54 843.5 46.5Q860 39 879 39Q898 39 914.5 46.5Q931 54 943 67Q955 80 962 97.5Q969 115 969 134Z" glyph-name="perthousand" horiz-adv-x="1061" unicode="‰" /><glyph d="M49 239 152 392H221L118 239L221 86H152Z" glyph-name="guilsinglleft" horiz-adv-x="279" unicode="‹" /><glyph d="M126 86 58 86L161 239L58 392H126L230 239Z" glyph-name="guilsinglright" horiz-adv-x="279" unicode="›" /><glyph d="M465 705 -208 -18L-245 15L428 738Z" glyph-name="fraction" horiz-adv-x="220" unicode="⁄" /><glyph d="M215 707Q277 707 309.5 656.5Q342 606 342 501Q342 395 309.5 344.5Q277 294 215 294Q153 294 120 344.5Q87 395 87 501Q87 606 120 656.5Q153 707 215 707ZM148 501Q148 423 164 384Q180 345 215 345Q283 345 283 501Q283 657 215 657Q180 657 164 618Q148 579 148 501Z" glyph-name="zerosuperior" horiz-adv-x="430" unicode="⁰" /><glyph d="M73 464 210 700H293V464H351V416H293V301H235V416H73ZM126 464 235 464V648H233Z" glyph-name="foursuperior" horiz-adv-x="430" unicode="⁴" /><glyph d="M342 431Q342 370 308.5 332Q275 294 215 294Q158 294 124 326Q90 358 90 412V431H150V415Q150 386 166 364.5Q182 343 214 343Q249 343 265.5 367Q282 391 282 427Q282 464 265.5 488Q249 512 214 512Q195 512 182 505Q169 498 161 488L110 491V700H329V648H163V544H164Q175 552 189.5 557Q204 562 223 562Q279 562 310.5 525Q342 488 342 431Z" glyph-name="fivesuperior" horiz-adv-x="430" unicode="⁵" /><glyph d="M309 700 302 693Q292 683 275 666Q258 649 239 627Q220 605 200.5 579.5Q181 554 165 526L166 525Q172 532 188.5 540.5Q205 549 230 549Q253 549 274 541.5Q295 534 311 518Q327 502 337 478.5Q347 455 347 423Q347 364 311.5 329Q276 294 219 294Q160 294 124.5 330.5Q89 367 89 430Q89 472 102.5 510Q116 548 135.5 581Q155 614 178 641Q201 668 219 687L231 700ZM148 422Q148 390 165.5 366.5Q183 343 218 343Q253 343 270.5 366.5Q288 390 288 422Q288 454 270.5 478Q253 502 218 502Q183 502 165.5 478Q148 454 148 422Z" glyph-name="sixsuperior" horiz-adv-x="430" unicode="⁶" /><glyph d="M138 301 277 648H97V700H335V650L203 301Z" glyph-name="sevensuperior" horiz-adv-x="430" unicode="⁷" /><glyph d="M215 342Q250 342 268 363Q286 384 286 411Q286 438 268 459.5Q250 481 215 481Q180 481 162 459.5Q144 438 144 411Q144 384 162 363Q180 342 215 342ZM215 707Q271 707 304 676.5Q337 646 337 595Q337 568 321.5 543.5Q306 519 280 507Q308 496 326.5 469.5Q345 443 345 411Q345 357 308.5 325.5Q272 294 215 294Q158 294 121.5 325.5Q85 357 85 411Q85 443 103.5 469.5Q122 496 151 507Q124 519 108.5 543.5Q93 568 93 595Q93 646 126 676.5Q159 707 215 707ZM215 529Q249 529 263.5 548Q278 567 278 593Q278 620 263.5 639Q249 658 215 658Q182 658 167 639Q152 620 152 593Q152 567 167 548Q182 529 215 529Z" glyph-name="eightsuperior" horiz-adv-x="430" unicode="⁸" /><glyph d="M121 301 128 308Q139 319 155.5 336Q172 353 191.5 374.5Q211 396 230.5 421.5Q250 447 266 475L264 476Q259 469 242 460.5Q225 452 200 452Q178 452 156.5 459.5Q135 467 119 483Q103 499 93 522.5Q83 546 83 578Q83 637 118.5 672Q154 707 211 707Q270 707 305.5 670.5Q341 634 341 571Q341 529 327.5 491Q314 453 294.5 420Q275 387 252.5 360Q230 333 212 314L199 301ZM282 579Q282 611 264.5 634.5Q247 658 212 658Q177 658 159.5 634.5Q142 611 142 579Q142 547 159.5 523Q177 499 212 499Q247 499 264.5 523Q282 547 282 579Z" glyph-name="ninesuperior" horiz-adv-x="430" unicode="⁹" /><glyph d="M215 406Q277 406 309.5 355.5Q342 305 342 200Q342 94 309.5 43.5Q277 -7 215 -7Q153 -7 120 43.5Q87 94 87 200Q87 305 120 355.5Q153 406 215 406ZM148 200Q148 122 164 83Q180 44 215 44Q283 44 283 200Q283 356 215 356Q180 356 164 317Q148 278 148 200Z" glyph-name="zeroinferior" horiz-adv-x="430" unicode="₀" /><glyph d="M117 399 253 399V49H330V0H115V49H193V349H117Z" glyph-name="oneinferior" horiz-adv-x="430" unicode="₁" /><glyph d="M92 50Q108 65 127 84Q143 100 163 120.5Q183 141 206 165Q246 208 261 235.5Q276 263 276 292Q276 318 259.5 337Q243 356 211 356Q183 356 165 340.5Q147 325 147 298Q147 288 149.5 277Q152 266 159 252L104 240Q96 256 92 270.5Q88 285 88 300Q88 321 96.5 340Q105 359 121 374Q137 389 160 397.5Q183 406 212 406Q269 406 302 373.5Q335 341 335 294Q335 277 331 259.5Q327 242 316 222Q305 202 285.5 177.5Q266 153 235 122L165 51H343V0H92Z" glyph-name="twoinferior" horiz-adv-x="430" unicode="₂" /><glyph d="M209 -7Q152 -7 118 25Q84 57 84 111V130H144V114Q144 85 160 63.5Q176 42 208 42Q242 42 258.5 64.5Q275 87 275 122Q275 155 255 176.5Q235 198 198 198Q189 198 176.5 197Q164 196 158 194V242L263 349H103V399H326V344L221 240Q270 240 302.5 207.5Q335 175 335 125Q335 65 301.5 29Q268 -7 209 -7Z" glyph-name="threeinferior" horiz-adv-x="430" unicode="₃" /><glyph d="M73 163 210 399H293V163H351V115H293V0H235V115H73ZM126 163 235 163V347H233Z" glyph-name="fourinferior" horiz-adv-x="430" unicode="₄" /><glyph d="M342 130Q342 69 308.5 31Q275 -7 215 -7Q158 -7 124 25Q90 57 90 111V130H150V114Q150 85 166 63.5Q182 42 214 42Q249 42 265.5 66Q282 90 282 126Q282 163 265.5 187Q249 211 214 211Q195 211 182 204Q169 197 161 187L110 190V399H329V347H163V243H164Q175 251 189.5 256Q204 261 223 261Q279 261 310.5 224Q342 187 342 130Z" glyph-name="fiveinferior" horiz-adv-x="430" unicode="₅" /><glyph d="M309 399 302 392Q292 382 275 365Q258 348 239 326Q220 304 200.5 278.5Q181 253 165 225L166 224Q172 231 188.5 239.5Q205 248 230 248Q253 248 274 240.5Q295 233 311 217Q327 201 337 177.5Q347 154 347 122Q347 63 311.5 28Q276 -7 219 -7Q160 -7 124.5 29.5Q89 66 89 129Q89 171 102.5 209Q116 247 135.5 280Q155 313 178 340Q201 367 219 386L231 399ZM148 121Q148 89 165.5 65.5Q183 42 218 42Q253 42 270.5 65.5Q288 89 288 121Q288 153 270.5 177Q253 201 218 201Q183 201 165.5 177Q148 153 148 121Z" glyph-name="sixinferior" horiz-adv-x="430" unicode="₆" /><glyph d="M137 0 276 347H96V399H334V349L202 0Z" glyph-name="seveninferior" horiz-adv-x="430" unicode="₇" /><glyph d="M215 41Q250 41 268 62Q286 83 286 110Q286 137 268 158.5Q250 180 215 180Q180 180 162 158.5Q144 137 144 110Q144 83 162 62Q180 41 215 41ZM215 406Q271 406 304 375.5Q337 345 337 294Q337 267 321.5 242.5Q306 218 280 206Q308 195 326.5 168.5Q345 142 345 110Q345 56 308.5 24.5Q272 -7 215 -7Q158 -7 121.5 24.5Q85 56 85 110Q85 142 103.5 168.5Q122 195 151 206Q124 218 108.5 242.5Q93 267 93 294Q93 345 126 375.5Q159 406 215 406ZM215 228Q249 228 263.5 247Q278 266 278 292Q278 319 263.5 338Q249 357 215 357Q182 357 167 338Q152 319 152 292Q152 266 167 247Q182 228 215 228Z" glyph-name="eightinferior" horiz-adv-x="430" unicode="₈" /><glyph d="M120 0 127 7Q138 18 154.5 35Q171 52 190.5 73.5Q210 95 229.5 120.5Q249 146 265 174L263 175Q258 168 241 159.5Q224 151 199 151Q177 151 155.5 158.5Q134 166 118 182Q102 198 92 221.5Q82 245 82 277Q82 336 117.5 371Q153 406 210 406Q269 406 304.5 369.5Q340 333 340 270Q340 228 326.5 190Q313 152 293.5 119Q274 86 251.5 59Q229 32 211 13L198 0ZM281 278Q281 310 263.5 333.5Q246 357 211 357Q176 357 158.5 333.5Q141 310 141 278Q141 246 158.5 222Q176 198 211 198Q246 198 263.5 222Q281 246 281 278Z" glyph-name="nineinferior" horiz-adv-x="430" unicode="₉" /><glyph d="M42 459 117 459Q130 516 155.5 562.5Q181 609 217 642.5Q253 676 299.5 694Q346 712 401 712Q508 712 578.5 655.5Q649 599 675 494H611Q588 573 536 615Q484 657 401 657Q316 657 259.5 602.5Q203 548 182 459H461V406H173Q170 379 170 350Q170 319 173 292H461V239H182Q203 150 258.5 96Q314 42 401 42Q484 42 536 84Q588 126 611 205H675Q649 100 578.5 44Q508 -12 401 -12Q346 -12 299.5 6Q253 24 217 57Q181 90 155.5 136Q130 182 118 239H42V292H109Q106 319 106 350Q106 379 109 406H42Z" glyph-name="Euro" horiz-adv-x="727" unicode="€" /><glyph d="M331 588Q331 548 319.5 512.5Q308 477 289.5 445Q271 413 246 384.5Q221 356 194 330V99Q194 55 215.5 36.5Q237 18 263 18Q324 18 335 91H355Q351 59 337 39Q323 19 305.5 8Q288 -3 270 -7Q252 -11 238 -11Q211 -11 186 -3Q161 5 141.5 25Q122 45 110 79Q98 113 98 164V250Q88 243 79 235Q71 229 62 222Q53 215 46 210L29 229Q42 238 54.5 247Q67 256 76.5 264Q86 272 92 276.5Q98 281 98 281V541Q98 620 131 666.5Q164 713 229 713Q280 713 305.5 680Q331 647 331 588ZM192 360Q246 414 275.5 472.5Q305 531 305 594Q305 609 302 626Q299 643 291.5 657.5Q284 672 272 681Q260 690 243 690Q224 690 208 675Q192 660 192 620Z" glyph-name="afii61289" horiz-adv-x="387" unicode="ℓ" /><glyph d="M884 700 971 700V279H910V620L785 319H729L603 620V279H545V700H632L758 395ZM444 700 444 646H280V279H221V646H58V700Z" glyph-name="trademark" horiz-adv-x="1049" unicode="™" /><glyph d="M197 160Q197 128 224 102Q251 76 289.5 58Q328 40 370.5 30Q413 20 444 20Q522 20 591.5 48Q661 76 709 131H756Q702 63 622 26Q542 -11 444 -11Q363 -11 291 17.5Q219 46 165.5 95.5Q112 145 80.5 211Q49 277 49 353Q49 427 80 492.5Q111 558 164 607Q217 656 289.5 684Q362 712 444 712Q535 712 608.5 683Q682 654 733.5 604.5Q785 555 813 488Q841 421 841 344H206Q197 344 197 332ZM683 375Q692 375 692 384V552Q692 585 665.5 609.5Q639 634 601 650Q563 666 520 674Q477 682 444 682Q414 682 371.5 674Q329 666 290.5 650Q252 634 224.5 609.5Q197 585 197 552V384Q197 375 206 375Z" glyph-name="estimated" horiz-adv-x="878" unicode="℮" /><glyph d="M117 700 253 700V350H330V301H115V350H193V650H117ZM862 -7Q805 -7 771 25Q737 57 737 111V130H797V114Q797 85 813 63.5Q829 42 861 42Q895 42 911.5 64.5Q928 87 928 122Q928 155 908 176.5Q888 198 851 198Q842 198 829.5 197Q817 196 811 194V242L916 349H756V399H979V344L874 240Q923 240 955.5 207.5Q988 175 988 125Q988 65 954.5 29Q921 -7 862 -7ZM897 705 224 -18L187 15L860 738Z" glyph-name="onethird" horiz-adv-x="1080" unicode="⅓" /><glyph d="M100 351Q116 366 135 385Q151 401 171 421.5Q191 442 214 466Q254 509 269 536.5Q284 564 284 593Q284 619 267.5 638Q251 657 219 657Q191 657 173 641.5Q155 626 155 599Q155 589 157.5 578Q160 567 167 553L112 541Q104 557 100 571.5Q96 586 96 601Q96 622 104.5 641Q113 660 129 675Q145 690 168 698.5Q191 707 220 707Q277 707 310 674.5Q343 642 343 595Q343 578 339 560.5Q335 543 324 523Q313 503 293.5 478.5Q274 454 243 423L173 352H351V301H100ZM862 -7Q805 -7 771 25Q737 57 737 111V130H797V114Q797 85 813 63.5Q829 42 861 42Q895 42 911.5 64.5Q928 87 928 122Q928 155 908 176.5Q888 198 851 198Q842 198 829.5 197Q817 196 811 194V242L916 349H756V399H979V344L874 240Q923 240 955.5 207.5Q988 175 988 125Q988 65 954.5 29Q921 -7 862 -7ZM897 705 224 -18L187 15L860 738Z" glyph-name="twothirds" horiz-adv-x="1080" unicode="⅔" /><glyph d="M117 700 253 700V350H330V301H115V350H193V650H117ZM850 41Q885 41 903 62Q921 83 921 110Q921 137 903 158.5Q885 180 850 180Q815 180 797 158.5Q779 137 779 110Q779 83 797 62Q815 41 850 41ZM850 406Q906 406 939 375.5Q972 345 972 294Q972 267 956.5 242.5Q941 218 915 206Q943 195 961.5 168.5Q980 142 980 110Q980 56 943.5 24.5Q907 -7 850 -7Q793 -7 756.5 24.5Q720 56 720 110Q720 142 738.5 168.5Q757 195 786 206Q759 218 743.5 242.5Q728 267 728 294Q728 345 761 375.5Q794 406 850 406ZM850 228Q884 228 898.5 247Q913 266 913 292Q913 319 898.5 338Q884 357 850 357Q817 357 802 338Q787 319 787 292Q787 266 802 247Q817 228 850 228ZM897 705 224 -18L187 15L860 738Z" glyph-name="oneeighth" horiz-adv-x="1080" unicode="⅛" /><glyph d="M240 294Q183 294 149 326Q115 358 115 412V431H175V415Q175 386 191 364.5Q207 343 239 343Q273 343 289.5 365.5Q306 388 306 423Q306 456 286 477.5Q266 499 229 499Q220 499 207.5 498Q195 497 189 495V543L294 650H134V700H357V645L252 541Q301 541 333.5 508.5Q366 476 366 426Q366 366 332.5 330Q299 294 240 294ZM850 41Q885 41 903 62Q921 83 921 110Q921 137 903 158.5Q885 180 850 180Q815 180 797 158.5Q779 137 779 110Q779 83 797 62Q815 41 850 41ZM850 406Q906 406 939 375.5Q972 345 972 294Q972 267 956.5 242.5Q941 218 915 206Q943 195 961.5 168.5Q980 142 980 110Q980 56 943.5 24.5Q907 -7 850 -7Q793 -7 756.5 24.5Q720 56 720 110Q720 142 738.5 168.5Q757 195 786 206Q759 218 743.5 242.5Q728 267 728 294Q728 345 761 375.5Q794 406 850 406ZM850 228Q884 228 898.5 247Q913 266 913 292Q913 319 898.5 338Q884 357 850 357Q817 357 802 338Q787 319 787 292Q787 266 802 247Q817 228 850 228ZM897 705 224 -18L187 15L860 738Z" glyph-name="threeeighths" horiz-adv-x="1080" unicode="⅜" /><glyph d="M372 431Q372 370 338.5 332Q305 294 245 294Q188 294 154 326Q120 358 120 412V431H180V415Q180 386 196 364.5Q212 343 244 343Q279 343 295.5 367Q312 391 312 427Q312 464 295.5 488Q279 512 244 512Q225 512 212 505Q199 498 191 488L140 491V700H359V648H193V544H194Q205 552 219.5 557Q234 562 253 562Q309 562 340.5 525Q372 488 372 431ZM850 41Q885 41 903 62Q921 83 921 110Q921 137 903 158.5Q885 180 850 180Q815 180 797 158.5Q779 137 779 110Q779 83 797 62Q815 41 850 41ZM850 406Q906 406 939 375.5Q972 345 972 294Q972 267 956.5 242.5Q941 218 915 206Q943 195 961.5 168.5Q980 142 980 110Q980 56 943.5 24.5Q907 -7 850 -7Q793 -7 756.5 24.5Q720 56 720 110Q720 142 738.5 168.5Q757 195 786 206Q759 218 743.5 242.5Q728 267 728 294Q728 345 761 375.5Q794 406 850 406ZM850 228Q884 228 898.5 247Q913 266 913 292Q913 319 898.5 338Q884 357 850 357Q817 357 802 338Q787 319 787 292Q787 266 802 247Q817 228 850 228ZM897 705 224 -18L187 15L860 738Z" glyph-name="fiveeighths" horiz-adv-x="1080" unicode="⅝" /><glyph d="M190 301 329 648H149V700H387V650L255 301ZM850 41Q885 41 903 62Q921 83 921 110Q921 137 903 158.5Q885 180 850 180Q815 180 797 158.5Q779 137 779 110Q779 83 797 62Q815 41 850 41ZM850 406Q906 406 939 375.5Q972 345 972 294Q972 267 956.5 242.5Q941 218 915 206Q943 195 961.5 168.5Q980 142 980 110Q980 56 943.5 24.5Q907 -7 850 -7Q793 -7 756.5 24.5Q720 56 720 110Q720 142 738.5 168.5Q757 195 786 206Q759 218 743.5 242.5Q728 267 728 294Q728 345 761 375.5Q794 406 850 406ZM850 228Q884 228 898.5 247Q913 266 913 292Q913 319 898.5 338Q884 357 850 357Q817 357 802 338Q787 319 787 292Q787 266 802 247Q817 228 850 228ZM897 705 224 -18L187 15L860 738Z" glyph-name="seveneighths" horiz-adv-x="1080" unicode="⅞" /><glyph d="M208 689Q237 671 285.5 632.5Q334 594 380.5 537Q427 480 461.5 405Q496 330 496 239Q496 182 478.5 136Q461 90 430.5 57Q400 24 358 6Q316 -12 268 -12Q221 -12 179.5 5.5Q138 23 107 53.5Q76 84 58 126.5Q40 169 40 220Q40 271 57.5 313.5Q75 356 105.5 387Q136 418 177.5 435.5Q219 453 266 453Q280 453 297.5 450Q315 447 333 439.5Q351 432 369 421Q387 410 400 393L405 397Q384 444 344.5 491.5Q305 539 262.5 578.5Q220 618 182 647Q144 676 126 687ZM434 220Q434 258 422 290.5Q410 323 388 347Q366 371 335.5 384.5Q305 398 268 398Q231 398 200.5 384.5Q170 371 148 347Q126 323 114 290.5Q102 258 102 220Q102 183 114 150.5Q126 118 148 94Q170 70 200.5 56Q231 42 268 42Q305 42 335.5 56Q366 70 388 94Q410 118 422 150.5Q434 183 434 220Z" glyph-name="partialdiff" horiz-adv-x="539" unicode="∂" /><glyph d="M523 432Q523 469 497 492.5Q471 516 432 516H332V348H432Q471 348 497 371.5Q523 395 523 432ZM772 351Q772 272 743.5 205.5Q715 139 666 90.5Q617 42 551.5 15Q486 -12 411 -12Q336 -12 270 15Q204 42 155 90.5Q106 139 77.5 205.5Q49 272 49 351Q49 430 77.5 496Q106 562 155 610Q204 658 270 685Q336 712 411 712Q486 712 551.5 685Q617 658 666 610Q715 562 743.5 496Q772 430 772 351ZM98 351Q98 281 121.5 222.5Q145 164 187 121Q229 78 286.5 54Q344 30 411 30Q478 30 535 54Q592 78 634 121Q676 164 699.5 222.5Q723 281 723 351Q723 420 699.5 478.5Q676 537 634 579.5Q592 622 535 646Q478 670 411 670Q344 670 286.5 646Q229 622 187 579.5Q145 537 121.5 478.5Q98 420 98 351ZM576 432Q576 406 566.5 383Q557 360 539 342.5Q521 325 494 314.5Q467 304 431 304H332V147H281V560H431Q467 560 494 549.5Q521 539 539 521.5Q557 504 566.5 481Q576 458 576 432Z" glyph-name="product" horiz-adv-x="821" unicode="∏" /><glyph d="M528 642 117 642L315 375V339L113 57H528V0H47V59L257 355L47 641V700H528Z" glyph-name="summation" horiz-adv-x="586" unicode="∑" /><glyph d="M450 327 30 327V380H450Z" glyph-name="minus" horiz-adv-x="480" unicode="−" /><glyph d="M718 705 45 -18L8 15L681 738Z" glyph-name="uni2215" horiz-adv-x="726" unicode="∕" /><glyph d="M464 700 530 700L274 0H192L28 441H96L234 50Z" glyph-name="radical" horiz-adv-x="539" unicode="√" /><glyph d="M432 350Q413 396 394 424.5Q375 453 354.5 469Q334 485 312 490.5Q290 496 266 496Q247 496 224 489Q201 482 181.5 465.5Q162 449 149 420.5Q136 392 136 350Q136 307 149 279Q162 251 181.5 234Q201 217 224 210Q247 203 266 203Q290 203 312 208.5Q334 214 354.5 230Q375 246 394 275Q413 304 432 350ZM71 350Q71 400 87 437.5Q103 475 130 501Q157 527 191.5 540Q226 553 263 553Q332 553 384 513.5Q436 474 464 399Q493 474 545 513.5Q597 553 666 553Q703 553 737.5 540Q772 527 799 501Q826 475 842 437.5Q858 400 858 350Q858 301 842 263Q826 225 799 199Q772 173 737.5 160Q703 147 666 147Q597 147 545 186.5Q493 226 464 301Q436 226 384 186.5Q332 147 263 147Q226 147 191.5 160Q157 173 130 199Q103 225 87 263Q71 301 71 350ZM793 350Q793 392 780 420.5Q767 449 747.5 465.5Q728 482 705.5 489Q683 496 663 496Q639 496 617 490.5Q595 485 575 469Q555 453 535.5 424.5Q516 396 497 350Q516 304 535.5 275Q555 246 575 230Q595 214 617 208.5Q639 203 663 203Q683 203 705.5 210Q728 217 747.5 234Q767 251 780 279Q793 307 793 350Z" glyph-name="infinity" horiz-adv-x="929" unicode="∞" /><glyph d="M126 577Q126 631 156 665.5Q186 700 254 700H290V648H257Q228 648 207.5 634Q187 620 187 583V-53Q187 -107 156.5 -141.5Q126 -176 59 -176H23V-124H56Q84 -124 105 -110.5Q126 -97 126 -59Z" glyph-name="integral" horiz-adv-x="313" unicode="∫" /><glyph d="M118 489Q136 489 169.5 480.5Q203 472 239.5 461.5Q276 451 309 442.5Q342 434 357 434Q380 434 388 443.5Q396 453 396 477V488H454V468Q454 454 450.5 437.5Q447 421 437.5 407Q428 393 411 383.5Q394 374 367 374Q348 374 311.5 383Q275 392 236 402.5Q197 413 164.5 421.5Q132 430 121 430Q101 430 95 418.5Q89 407 88 386V375H31V396Q31 410 34 426Q37 442 46.5 456Q56 470 73 479.5Q90 489 118 489ZM118 323Q136 323 169.5 314.5Q203 306 239.5 295.5Q276 285 309 276.5Q342 268 357 268Q380 268 388 277.5Q396 287 396 311V322H454V302Q454 288 450.5 271.5Q447 255 437.5 241Q428 227 411 217.5Q394 208 367 208Q348 208 311.5 217Q275 226 236 236.5Q197 247 164.5 255.5Q132 264 121 264Q101 264 95 252.5Q89 241 88 220V209H31V230Q31 244 34 260Q37 276 46.5 290Q56 304 73 313.5Q90 323 118 323Z" glyph-name="approxequal" horiz-adv-x="480" unicode="≈" /><glyph d="M450 247 268 247V144H211V247H30V300H211V407H30V460H211V561H268V460H450V407H268V300H450Z" glyph-name="notequal" horiz-adv-x="480" unicode="≠" /><glyph d="M443 161 23 313V382L443 534V469L93 348L443 226ZM23 0 23 53H443V0Z" glyph-name="lessequal" horiz-adv-x="480" unicode="≤" /><glyph d="M37 0 37 53H457V0ZM37 226 387 348L37 469V534L457 382V313L37 161Z" glyph-name="greaterequal" horiz-adv-x="480" unicode="≥" /><glyph d="M198 0 39 350L198 700H280L434 350L280 0ZM105 350 239 51L368 350L239 648Z" glyph-name="lozenge" horiz-adv-x="473" unicode="◊" /><glyph d="M347 390 157 390V0H96V390H20V441H96V599Q96 630 105 650Q114 670 128.5 682Q143 694 160.5 699Q178 704 196 704Q208 704 219 703.5Q230 703 238 702Q248 701 256 700V647Q248 648 240 650Q233 651 225.5 651.5Q218 652 212 652Q183 652 170 638.5Q157 625 157 592V441H408V-87Q408 -114 399.5 -131Q391 -148 377 -158Q363 -168 345 -171.5Q327 -175 308 -175H257V-125H297Q320 -125 333.5 -116.5Q347 -108 347 -82ZM320 601Q320 623 335.5 638.5Q351 654 373 654Q395 654 410.5 638.5Q426 623 426 601Q426 579 410.5 563.5Q395 548 373 548Q351 548 335.5 563.5Q320 579 320 601Z" glyph-name="f_j" horiz-adv-x="477" unicode="" /><glyph d="M347 599Q347 630 356 650Q365 670 379.5 682Q394 694 411.5 699Q429 704 447 704Q459 704 470 703.5Q481 703 489 702Q499 701 507 700V647Q499 648 491 650Q484 651 476.5 651.5Q469 652 463 652Q434 652 421 638.5Q408 625 408 592V441H498V390H408V0H347V390H157V0H96V390H20V441H96V599Q96 630 105 650Q114 670 128.5 682Q143 694 160.5 699Q178 704 196 704Q208 704 219 703.5Q230 703 238 702Q248 701 256 700V647Q248 648 240 650Q233 651 225.5 651.5Q218 652 212 652Q183 652 170 638.5Q157 625 157 592V441H347Z" glyph-name="ff" horiz-adv-x="524" unicode="" /><glyph d="M659 0 598 0V390H408V0H347V390H157V0H96V390H20V441H96V599Q96 630 105 650Q114 670 128.5 682Q143 694 160.5 699Q178 704 196 704Q208 704 219 703.5Q230 703 238 702Q248 701 256 700V647Q248 648 240 650Q233 651 225.5 651.5Q218 652 212 652Q183 652 170 638.5Q157 625 157 592V441H347V599Q347 630 356 650Q365 670 379.5 682Q394 694 411.5 699Q429 704 447 704Q459 704 470 703.5Q481 703 489 702Q499 701 507 700V647Q499 648 491 650Q484 651 476.5 651.5Q469 652 463 652Q434 652 421 638.5Q408 625 408 592V441H659ZM571 601Q571 623 586.5 638.5Q602 654 624 654Q646 654 661.5 638.5Q677 623 677 601Q677 579 661.5 563.5Q646 548 624 548Q602 548 586.5 563.5Q571 579 571 601Z" glyph-name="ffi" horiz-adv-x="728" unicode="ﬃ" /><glyph d="M659 0 598 0V390H408V0H347V390H157V0H96V390H20V441H96V599Q96 630 105 650Q114 670 128.5 682Q143 694 160.5 699Q178 704 196 704Q208 704 219 703.5Q230 703 238 702Q248 701 256 700V647Q248 648 240 650Q233 651 225.5 651.5Q218 652 212 652Q183 652 170 638.5Q157 625 157 592V441H347V599Q347 630 356 650Q365 670 379.5 682Q394 694 411.5 699Q429 704 447 704Q459 704 470 703.5Q481 703 489 702Q499 701 507 700V647Q499 648 491 650Q484 651 476.5 651.5Q469 652 463 652Q434 652 421 638.5Q408 625 408 592V441H598V700H659Z" glyph-name="ffl" horiz-adv-x="730" unicode="" /><glyph d="M408 0 347 0V390H157V0H96V390H20V441H96V599Q96 630 105 650Q114 670 128.5 682Q143 694 160.5 699Q178 704 196 704Q208 704 219 703.5Q230 703 238 702Q248 701 256 700V647Q248 648 240 650Q233 651 225.5 651.5Q218 652 212 652Q183 652 170 638.5Q157 625 157 592V441H408ZM320 601Q320 623 335.5 638.5Q351 654 373 654Q395 654 410.5 638.5Q426 623 426 601Q426 579 410.5 563.5Q395 548 373 548Q351 548 335.5 563.5Q320 579 320 601Z" glyph-name="fi" horiz-adv-x="477" unicode="ﬁ" /><glyph d="M408 0 347 0V390H157V0H96V390H20V441H96V599Q96 630 105 650Q114 670 128.5 682Q143 694 160.5 699Q178 704 196 704Q208 704 219 703.5Q230 703 238 702Q248 701 256 700V647Q248 648 240 650Q233 651 225.5 651.5Q218 652 212 652Q183 652 170 638.5Q157 625 157 592V441H347V700H408Z" glyph-name="fl" horiz-adv-x="479" unicode="ﬂ" /><glyph d="M362 71Q337 36 299 13Q261 -10 204 -10Q169 -10 140.5 1.5Q112 13 91.5 33Q71 53 59.5 80Q48 107 48 137Q48 188 74.5 229Q101 270 146 308Q116 344 105.5 373.5Q95 403 95 434Q95 462 104.5 486.5Q114 511 132 529.5Q150 548 176 559Q202 570 235 570Q265 570 290 560Q315 550 332 532.5Q349 515 358.5 492.5Q368 470 368 445Q368 428 364 410Q360 392 349 375L293 388Q309 418 309 439Q309 474 287 495.5Q265 517 234 517Q195 517 176.5 491.5Q158 466 158 434Q158 411 169.5 386.5Q181 362 211 329L355 170Q374 204 389 237Q404 270 411 295H480Q466 252 444 207Q422 162 399 124L514 4V0H428ZM211 46Q244 46 273 65.5Q302 85 321 118L181 268Q145 231 129 203.5Q113 176 113 141Q113 117 121.5 99.5Q130 82 143.5 70Q157 58 175 52Q193 46 211 46Z" glyph-name="ampersand.smcp" horiz-adv-x="521" unicode="" /><glyph d="M53 -127Q53 -106 67.5 -90Q82 -74 105 -74Q127 -74 142.5 -89Q158 -104 158 -127Q158 -135 155 -144.5Q152 -154 149 -160L91 -266H45L85 -177Q71 -172 62 -158.5Q53 -145 53 -127Z" glyph-name="commaaccent" horiz-adv-x="203" unicode="" /><glyph d="M224 570Q389 570 389 281Q389 133 348.5 61.5Q308 -10 224 -10Q140 -10 99 61.5Q58 133 58 281Q58 570 224 570ZM119 281Q119 163 143.5 103Q168 43 224 43Q327 43 327 281Q327 517 224 517Q168 517 143.5 458Q119 399 119 281Z" glyph-name="zero.smcp" horiz-adv-x="448" unicode="" /><glyph d="M96 560 268 560V53H376V0H96V53H205V507H96Z" glyph-name="one.smcp" horiz-adv-x="448" unicode="" /><glyph d="M57 51Q77 72 103 99Q127 123 156 154Q185 185 222 225Q251 257 271 283Q291 309 303 331.5Q315 354 320 374.5Q325 395 325 416Q325 458 298 487.5Q271 517 220 517Q175 517 145.5 492.5Q116 468 116 425Q116 409 120 393.5Q124 378 134 360L75 347Q67 367 62 386Q57 405 57 425Q57 455 69 481.5Q81 508 102.5 527.5Q124 547 154 558.5Q184 570 220 570Q295 570 339.5 528Q384 486 384 417Q384 392 377.5 366.5Q371 341 355.5 312.5Q340 284 313.5 250Q287 216 247 174Q254 183 253 182Q252 181 245.5 174.5Q239 168 228 156Q217 144 204 131Q175 99 132 53H396V0H57Z" glyph-name="two.smcp" horiz-adv-x="448" unicode="" /><glyph d="M214 -10Q188 -10 160.5 -1.5Q133 7 111 24.5Q89 42 75 69Q61 96 61 133V177H120L121 135Q122 107 131 88.5Q140 70 153.5 60Q167 50 183 46Q199 42 213 42Q234 42 252.5 47.5Q271 53 285.5 67.5Q300 82 308 107Q316 132 316 172Q316 226 284.5 256Q253 286 200 286Q172 286 148 283V331L310 507H81V560H368V499L214 334Q248 334 278 322Q308 310 330 288Q352 266 365 235.5Q378 205 378 168Q378 116 362.5 81.5Q347 47 323 26.5Q299 6 270 -2Q241 -10 214 -10Z" glyph-name="three.smcp" horiz-adv-x="448" unicode="" /><glyph d="M30 220 225 560H320V220H407V170H320V0H261V170H30ZM87 220 261 220V521H256Z" glyph-name="four.smcp" horiz-adv-x="448" unicode="" /><glyph d="M391 182Q390 132 374.5 95.5Q359 59 335 35.5Q311 12 281.5 1Q252 -10 225 -10Q199 -10 171.5 -1.5Q144 7 121.5 24.5Q99 42 84.5 69Q70 96 70 133V177H128L130 135Q131 107 140.5 88.5Q150 70 163.5 60Q177 50 193 46Q209 42 223 42Q264 42 296 75Q328 108 329 183Q329 241 300 272Q271 303 216 303Q161 303 137 275H85V560H378V507H138V339H141Q155 349 179.5 354.5Q204 360 223 360Q304 360 347.5 311Q391 262 391 182Z" glyph-name="five.smcp" horiz-adv-x="448" unicode="" /><glyph d="M330 560 304 533Q286 515 264.5 490Q243 465 220 435.5Q197 406 175.5 373Q154 340 136 307H139Q159 323 183 334Q207 345 238 345Q270 345 299 334Q328 323 349.5 301Q371 279 384 245.5Q397 212 397 167Q397 127 384.5 94.5Q372 62 349.5 38.5Q327 15 296 2.5Q265 -10 227 -10Q150 -10 103 39.5Q56 89 56 176Q56 233 74 286.5Q92 340 119 387Q146 434 177 474Q208 514 234 544L248 560ZM115 166Q115 141 122 118.5Q129 96 142.5 79Q156 62 177.5 52Q199 42 227 42Q255 42 276 52Q297 62 310.5 79Q324 96 331 118.5Q338 141 338 166Q338 192 331 215Q324 238 310.5 255Q297 272 276 282.5Q255 293 227 293Q199 293 177.5 282.5Q156 272 142.5 255Q129 238 122 215Q115 192 115 166Z" glyph-name="six.smcp" horiz-adv-x="448" unicode="" /><glyph d="M91 178 89 560H151L148 178ZM120 93Q141 93 156 78Q171 63 171 41Q171 20 156 5Q141 -10 120 -10Q99 -10 84 5Q69 20 69 41Q69 63 84 78Q99 93 120 93Z" glyph-name="exclam.smcp" horiz-adv-x="240" unicode="" /><glyph d="M148 382 151 0H89L91 382ZM120 467Q99 467 84 482Q69 497 69 519Q69 540 84 555Q99 570 120 570Q141 570 156 555Q171 540 171 519Q171 497 156 482Q141 467 120 467Z" glyph-name="exclamdown.smcp" horiz-adv-x="240" unicode="" /><glyph d="M118 0 143 27Q161 45 183 70Q205 95 227.5 124.5Q250 154 272 187Q294 220 312 253H309Q289 237 265 226Q241 215 209 215Q178 215 149 226Q120 237 98.5 259Q77 281 64 314.5Q51 348 51 393Q51 433 63.5 465.5Q76 498 98.5 521.5Q121 545 152 557.5Q183 570 221 570Q298 570 345 520.5Q392 471 392 384Q392 327 373.5 273.5Q355 220 328 173Q301 126 270 86Q239 46 213 16L200 0ZM333 394Q333 419 326 441.5Q319 464 305.5 481Q292 498 271 508Q250 518 221 518Q193 518 172 508Q151 498 137.5 481Q124 464 117 441.5Q110 419 110 394Q110 369 117 345.5Q124 322 137.5 305Q151 288 172 277.5Q193 267 221 267Q250 267 271 277.5Q292 288 305.5 305Q319 322 326 345.5Q333 369 333 394Z" glyph-name="nine.smcp" horiz-adv-x="448" unicode="" /><glyph d="M355 414Q355 392 348 367.5Q341 343 325.5 322Q310 301 284 285Q258 269 219 264L215 155H164L156 313L187 312Q214 309 234 316.5Q254 324 267 338.5Q280 353 286.5 373Q293 393 293 415Q293 460 267 487.5Q241 515 196 515Q145 515 119.5 485.5Q94 456 94 407Q94 397 95 391Q95 388 95 386H34V401Q34 481 77.5 525.5Q121 570 196 570Q267 570 311 527.5Q355 485 355 414ZM189 93Q210 93 225 78Q240 63 240 41Q240 20 225 5Q210 -10 189 -10Q168 -10 153 5Q138 20 138 41Q138 63 153 78Q168 93 189 93Z" glyph-name="question.smcp" horiz-adv-x="406" unicode="" /><glyph d="M52 146Q52 168 59 192.5Q66 217 81.5 238Q97 259 123 275Q149 291 188 296L192 405H243L251 247L220 248Q193 251 173 243.5Q153 236 140 221.5Q127 207 120.5 187Q114 167 114 145Q114 100 140 72.5Q166 45 211 45Q262 45 287.5 74.5Q313 104 313 153Q313 163 313 170Q312 172 312 174H373V159Q373 79 329.5 34.5Q286 -10 211 -10Q140 -10 96 32.5Q52 75 52 146ZM218 467Q197 467 182 482Q167 497 167 519Q167 540 182 555Q197 570 218 570Q239 570 254 555Q269 540 269 519Q269 497 254 482Q239 467 218 467Z" glyph-name="questiondown.smcp" horiz-adv-x="406" unicode="" /><glyph d="M230 560 283 560L96 0H41Z" glyph-name="slash.smcp" horiz-adv-x="325" unicode="" /><glyph d="M285 0 230 0L42 560H95Z" glyph-name="backslash.smcp" horiz-adv-x="325" unicode="" /><glyph d="M84 608 140 608V-74H84Z" glyph-name="bar.smcp" horiz-adv-x="224" unicode="" /><glyph d="M84 325 84 608H141V325ZM84 -74 84 208H141V-74Z" glyph-name="brokenbar.smcp" horiz-adv-x="225" unicode="" /><glyph d="M10 -56Q55 -56 72.5 -39.5Q90 -23 90 22V700H152V19Q152 -45 122 -78.5Q92 -112 17 -112H-27V-56Z" glyph-name="J.alt" horiz-adv-x="242" unicode="" /><glyph d="M46 349Q46 412 58.5 467.5Q71 523 94 574Q117 625 148.5 673Q180 721 219 769H280V754Q203 669 156 567.5Q109 466 109 349Q109 291 121.5 234Q134 177 156.5 123.5Q179 70 210.5 21.5Q242 -27 280 -69V-84H219Q142 11 94 117.5Q46 224 46 349Z" glyph-name="parenleft.cap" horiz-adv-x="310" unicode="" /><glyph d="M264 349Q264 224 216 117.5Q168 11 91 -84H30V-69Q68 -27 100 21.5Q132 70 154.5 123.5Q177 177 189.5 234Q202 291 202 349Q202 466 154.5 567.5Q107 669 30 754V769H91Q130 721 161.5 673Q193 625 216 574Q239 523 251.5 467.5Q264 412 264 349Z" glyph-name="parenright.cap" horiz-adv-x="310" unicode="" /><glyph d="M152 718 152 -21H296V-78H90V775H296V718Z" glyph-name="bracketleft.cap" horiz-adv-x="338" unicode="" /><glyph d="M42 -21 185 -21V717H42V775H248V-78H42Z" glyph-name="bracketright.cap" horiz-adv-x="338" unicode="" /><glyph d="M178 441Q178 418 167 399Q156 380 132 375Q156 370 167 351Q178 332 178 309V-20H320V-78H114V348H35V403H114V775H320V717H178Z" glyph-name="braceleft.cap" horiz-adv-x="362" unicode="" /><glyph d="M184 717 42 717V775H248V403H327V348H248V-78H42V-20H184V309Q184 332 195 351Q206 370 230 375Q206 380 195 399Q184 418 184 441Z" glyph-name="braceright.cap" horiz-adv-x="362" unicode="" /><glyph d="M105 287Q105 190 141 104.5Q177 19 240 -47V-63H181Q119 12 81 99.5Q43 187 43 287Q43 337 53 381Q63 425 81 465Q99 505 124.5 543Q150 581 181 619H240V603Q177 535 141 459.5Q105 384 105 287Z" glyph-name="parenleft.smcp" horiz-adv-x="264" unicode="" /><glyph d="M160 287Q160 384 123.5 459.5Q87 535 24 603V619H83Q114 581 139.5 543Q165 505 183.5 465Q202 425 212 381Q222 337 222 287Q222 187 184 99.5Q146 12 83 -63H24V-47Q87 19 123.5 104.5Q160 190 160 287Z" glyph-name="parenright.smcp" horiz-adv-x="265" unicode="" /><glyph d="M145 564 145 -8H259V-63H84V619H259V564Z" glyph-name="bracketleft.smcp" horiz-adv-x="290" unicode="" /><glyph d="M32 562 32 619H207V-63H32V-8H144V562Z" glyph-name="bracketright.smcp" horiz-adv-x="291" unicode="" /><glyph d="M157 355Q157 337 149 321Q141 305 119 299Q141 293 149 277Q157 261 157 243V-7H270V-63H95V272H32V325H95V619H270V562H157Z" glyph-name="braceleft.smcp" horiz-adv-x="301" unicode="" /><glyph d="M144 562 31 562V619H206V325H269V272H206V-63H31V-7H144V243Q144 261 152 277Q160 293 182 299Q160 305 152 321Q144 337 144 355Z" glyph-name="braceright.smcp" horiz-adv-x="301" unicode="" /><glyph d="M122 0 315 507H57V560H372V511L187 0Z" glyph-name="seven.smcp" horiz-adv-x="448" unicode="" /><glyph d="M224 41Q252 41 273.5 50Q295 59 309 73.5Q323 88 330.5 107.5Q338 127 338 148Q338 169 330.5 190Q323 211 309 227Q295 243 273.5 253Q252 263 224 263Q196 263 174.5 253Q153 243 138.5 227Q124 211 117 190Q110 169 110 148Q110 127 117 107.5Q124 88 138.5 73.5Q153 59 174.5 50Q196 41 224 41ZM224 570Q303 570 344 527Q385 484 385 414Q385 375 363.5 340.5Q342 306 304 288Q345 268 372 232.5Q399 197 399 149Q399 112 386 82.5Q373 53 349.5 32.5Q326 12 294 1Q262 -10 224 -10Q186 -10 154 1Q122 12 98.5 32.5Q75 53 62 82.5Q49 112 49 149Q49 197 75.5 232.5Q102 268 143 288Q106 306 84 340.5Q62 375 62 414Q62 484 103 527Q144 570 224 570ZM224 316Q251 316 270.5 325Q290 334 302.5 348Q315 362 321.5 380.5Q328 399 328 418Q328 437 321.5 455Q315 473 302.5 487.5Q290 502 270.5 510.5Q251 519 224 519Q197 519 177 510.5Q157 502 144 487.5Q131 473 124.5 455Q118 437 118 418Q118 399 124.5 380.5Q131 362 144.5 348Q158 334 177.5 325Q197 316 224 316Z" glyph-name="eight.smcp" horiz-adv-x="448" unicode="" /><glyph d="M90 700 152 700V0H90ZM252 -56Q297 -56 314.5 -39.5Q332 -23 332 22V700H394V19Q394 -45 364 -78.5Q334 -112 259 -112H215V-56Z" glyph-name="IJ.alt" horiz-adv-x="484" unicode="" /><glyph d="M52 302 95 302Q87 327 80.5 353.5Q74 380 74 408Q74 446 86.5 476Q99 506 120.5 527Q142 548 172.5 559Q203 570 239 570Q312 570 357 527.5Q402 485 402 410V405H340Q340 456 315.5 485.5Q291 515 240 515Q186 515 162 484Q138 453 138 408Q138 382 144.5 355.5Q151 329 161 302H302V252H178Q185 228 190 203.5Q195 179 195 154Q195 114 182 89Q169 64 161 55H379V0H50V55H106Q114 63 125.5 86.5Q137 110 137 148Q137 172 129.5 198.5Q122 225 113 252H52Z" glyph-name="sterling.smcp" horiz-adv-x="441" unicode="" /><glyph d="M118 228 46 228V278H118V454Q118 498 143 529Q168 560 225 560H260V510H233Q213 510 195.5 501Q178 492 178 463V278H250V228H178V-7Q178 -35 174.5 -59Q171 -83 160 -101Q149 -119 127.5 -129.5Q106 -140 70 -140H35V-90H63Q83 -90 100.5 -81.5Q118 -73 118 -43Z" glyph-name="florin.smcp" horiz-adv-x="311" unicode="" /><glyph d="M168 324 54 324V374H147L44 560H118L246 305H247L375 560H446L343 374H433V324H318L276 234H433V184H276V0H214V184H54V234H214Z" glyph-name="yen.smcp" horiz-adv-x="488" unicode="" /><glyph d="M59 393 130 393V510H184V393H278V510H331V393H403V344H331V247H403V196H331V81H278V196H184V81H130V196H59V247H130V344H59ZM184 247 278 247V344H184Z" glyph-name="numbersign.smcp" horiz-adv-x="462" unicode="" /><glyph d="M49 446Q49 471 58.5 493.5Q68 516 85 533Q102 550 124.5 560Q147 570 172 570Q197 570 219 560Q241 550 257.5 533Q274 516 283.5 493.5Q293 471 293 446Q293 421 283.5 399Q274 377 257.5 360.5Q241 344 219 334.5Q197 325 172 325Q147 325 124.5 334.5Q102 344 85 360.5Q68 377 58.5 399Q49 421 49 446ZM103 446Q103 417 123 395.5Q143 374 172 374Q200 374 219.5 395.5Q239 417 239 446Q239 477 219.5 498Q200 519 172 519Q143 519 123 498Q103 477 103 446ZM538 112Q538 87 528.5 64.5Q519 42 502 25.5Q485 9 463 -0.5Q441 -10 415 -10Q390 -10 367.5 -0.5Q345 9 328.5 25.5Q312 42 302.5 64.5Q293 87 293 112Q293 137 302.5 159.5Q312 182 328.5 198.5Q345 215 367.5 225Q390 235 415 235Q441 235 463 225Q485 215 502 198.5Q519 182 528.5 159.5Q538 137 538 112ZM483 112Q483 142 463.5 163.5Q444 185 415 185Q386 185 366.5 163.5Q347 142 347 112Q347 83 366.5 61Q386 39 415 39Q444 39 463.5 61Q483 83 483 112ZM72 79 42 117L510 476L540 438Z" glyph-name="percent.smcp" horiz-adv-x="586" unicode="" /><glyph d="M55 446Q55 471 64.5 493.5Q74 516 91 533Q108 550 130.5 560Q153 570 178 570Q203 570 225 560Q247 550 263.5 533Q280 516 289.5 493.5Q299 471 299 446Q299 421 289.5 399Q280 377 263.5 360.5Q247 344 225 334.5Q203 325 178 325Q153 325 130.5 334.5Q108 344 91 360.5Q74 377 64.5 399Q55 421 55 446ZM109 446Q109 417 129 395.5Q149 374 178 374Q206 374 225.5 395.5Q245 417 245 446Q245 477 225.5 498Q206 519 178 519Q149 519 129 498Q109 477 109 446ZM544 112Q544 87 534.5 64.5Q525 42 508 25.5Q491 9 469 -0.5Q447 -10 421 -10Q396 -10 373.5 -0.5Q351 9 334.5 25.5Q318 42 308.5 64.5Q299 87 299 112Q299 137 308.5 159.5Q318 182 334.5 198.5Q351 215 373.5 225Q396 235 421 235Q447 235 469 225Q491 215 508 198.5Q525 182 534.5 159.5Q544 137 544 112ZM489 112Q489 142 469.5 163.5Q450 185 421 185Q392 185 372.5 163.5Q353 142 353 112Q353 83 372.5 61Q392 39 421 39Q450 39 469.5 61Q489 83 489 112ZM78 79 48 117L516 476L546 438ZM848 112Q848 87 838.5 64.5Q829 42 812 25.5Q795 9 773 -0.5Q751 -10 725 -10Q700 -10 677.5 -0.5Q655 9 638.5 25.5Q622 42 612.5 64.5Q603 87 603 112Q603 137 612.5 159.5Q622 182 638.5 198.5Q655 215 677.5 225Q700 235 725 235Q751 235 773 225Q795 215 812 198.5Q829 182 838.5 159.5Q848 137 848 112ZM793 112Q793 142 773.5 163.5Q754 185 725 185Q696 185 676.5 163.5Q657 142 657 112Q657 83 676.5 61Q696 39 725 39Q754 39 773.5 61Q793 83 793 112Z" glyph-name="perthousand.smcp" horiz-adv-x="877" unicode="" /><glyph d="M238 306 384 306V257H238V110H184V257H39V306H184V450H238ZM39 49 384 49V0H39Z" glyph-name="plusminus.smcp" horiz-adv-x="424" unicode="" /><glyph d="M219 333 346 460L384 421L257 294L384 168L346 130L219 256L93 130L54 168L181 295L54 421L93 459Z" glyph-name="multiply.smcp" horiz-adv-x="438" unicode="" /><glyph d="M384 257 39 257V306H384ZM158 154Q158 176 173 191.5Q188 207 210 207Q232 207 247 191.5Q262 176 262 154Q262 132 247 117Q232 102 210 102Q188 102 173 117Q158 132 158 154ZM158 415Q158 437 173 452.5Q188 468 210 468Q232 468 247 452.5Q262 437 262 415Q262 393 247 378Q232 363 210 363Q188 363 173 378Q158 393 158 415Z" glyph-name="divide.smcp" horiz-adv-x="424" unicode="" /><glyph d="M39 369 184 369V450H238V369H384V319H238V243H384V194H238V110H184V194H39V243H184V319H39Z" glyph-name="notequal.smcp" horiz-adv-x="424" unicode="" /><glyph d="M111 394Q127 394 152.5 388Q178 382 205 375Q232 368 256.5 362Q281 356 296 356Q319 356 323.5 363.5Q328 371 328 387V395H386V375Q386 364 383 350Q380 336 372 324Q364 312 349.5 304Q335 296 311 296Q293 296 263.5 302.5Q234 309 204 316.5Q174 324 149 330Q124 336 116 336Q99 336 96.5 325.5Q94 315 93 304V296H37V317Q37 328 39.5 341.5Q42 355 49.5 366.5Q57 378 71.5 386Q86 394 111 394ZM111 258Q127 258 152.5 252Q178 246 205 239Q232 232 256.5 226Q281 220 296 220Q319 220 323.5 227.5Q328 235 328 251V259H386V239Q386 228 383 214Q380 200 372 188Q364 176 349.5 168Q335 160 311 160Q293 160 263.5 166.5Q234 173 204 180.5Q174 188 149 194Q124 200 116 200Q99 200 96.5 189.5Q94 179 93 168V160H37V181Q37 192 39.5 205.5Q42 219 49.5 230.5Q57 242 71.5 250Q86 258 111 258Z" glyph-name="approxequal.smcp" horiz-adv-x="424" unicode="" /><glyph d="M457 261 154 261L290 125L254 91L57 286L254 482L290 446L154 311H457Z" glyph-name="less.smcp" horiz-adv-x="514" unicode="" /><glyph d="M56 311 361 311L223 446L259 482L456 286L259 91L223 125L361 261H56Z" glyph-name="greater.smcp" horiz-adv-x="514" unicode="" /><glyph d="M379 128 34 250V309L379 431V366L117 280L379 192ZM34 0 34 49H379V0Z" glyph-name="lessequal.smcp" horiz-adv-x="424" unicode="" /><glyph d="M45 0 45 49H390V0ZM45 192 307 280L45 366V431L390 309V250L45 128Z" glyph-name="greaterequal.smcp" horiz-adv-x="424" unicode="" /><glyph d="M261 712Q365 712 412.5 620Q460 528 460 351Q460 172 412.5 80Q365 -12 261 -12Q157 -12 109.5 80Q62 172 62 351Q62 528 109.5 620Q157 712 261 712ZM125 351Q125 199 157 120Q189 41 261 41Q332 41 364.5 120Q397 199 397 351Q397 503 364.5 581Q332 659 261 659Q189 659 157 581Q125 503 125 351Z" glyph-name="zero.alt" horiz-adv-x="522" unicode="" /><glyph d="M47 700 249 700V55H386V0H48V55H186V645H47Z" glyph-name="one.alt" horiz-adv-x="411" unicode="" /><glyph d="M54 53Q82 82 115 118Q146 150 183.5 191.5Q221 233 266 284Q300 323 323.5 355Q347 387 361 415.5Q375 444 381.5 470.5Q388 497 388 523Q388 583 350 621Q312 659 247 659Q219 659 194.5 651Q170 643 151.5 627.5Q133 612 122 589Q111 566 111 537Q111 499 132 457L74 443Q63 466 57 489Q51 512 51 538Q51 578 67 610Q83 642 110 664.5Q137 687 173 699.5Q209 712 249 712Q293 712 329.5 699Q366 686 392.5 661.5Q419 637 434 602Q449 567 449 524Q449 498 443 469Q437 440 419.5 405.5Q402 371 372 329Q342 287 294 234L130 55H466V0H54Z" glyph-name="two.alt" horiz-adv-x="514" unicode="" /><glyph d="M239 41Q302 41 339.5 82Q377 123 377 209Q377 291 332.5 328Q288 365 217 365Q186 365 163 362V407L369 645H69V700H430V638L236 415Q280 415 317 400.5Q354 386 381.5 359.5Q409 333 424.5 295Q440 257 440 209Q440 152 424 110.5Q408 69 380.5 41.5Q353 14 316.5 1Q280 -12 240 -12Q202 -12 167 0Q132 12 105.5 36Q79 60 63.5 95Q48 130 48 176V220H108L109 182Q111 110 147.5 75.5Q184 41 239 41Z" glyph-name="three.alt" horiz-adv-x="492" unicode="" /><glyph d="M30 274 278 700H376V274H483V221H376V0H315V221H30ZM90 274 315 274V658H311Z" glyph-name="four.alt" horiz-adv-x="514" unicode="" /><glyph d="M386 221Q386 298 351 345Q316 392 242 392Q202 392 176.5 381Q151 370 134 353H79V700H428V645H134V416H137Q156 430 187 439Q218 448 248 448Q298 448 335.5 431.5Q373 415 398 385Q423 355 436 314Q449 273 449 223Q449 166 432 122Q415 78 387 48.5Q359 19 322.5 3.5Q286 -12 246 -12Q208 -12 173 0Q138 12 111.5 36Q85 60 69.5 95Q54 130 54 176V220H114L115 182Q117 110 154 75.5Q191 41 245 41Q308 41 346.5 88Q385 135 386 221Z" glyph-name="five.alt" horiz-adv-x="498" unicode="" /><glyph d="M363 700 335 670Q312 646 285.5 614Q259 582 232 544.5Q205 507 179.5 465Q154 423 134 377L137 376Q164 404 198.5 417.5Q233 431 271 431Q309 431 344.5 417.5Q380 404 407 376.5Q434 349 450 307Q466 265 466 209Q466 159 450.5 118Q435 77 407.5 48Q380 19 341.5 3.5Q303 -12 257 -12Q211 -12 172.5 4Q134 20 106.5 50Q79 80 64 122.5Q49 165 49 219Q49 286 68 350Q87 414 118 472Q149 530 187 582Q225 634 262 677L282 700ZM110 208Q110 174 119 143.5Q128 113 146 90Q164 67 192 53.5Q220 40 257 40Q295 40 322.5 53.5Q350 67 368.5 90Q387 113 396 143.5Q405 174 405 208Q405 243 396 273.5Q387 304 368.5 327.5Q350 351 322.5 364.5Q295 378 257 378Q220 378 192 364.5Q164 351 146 327.5Q128 304 119 273.5Q110 243 110 208Z" glyph-name="six.alt" horiz-adv-x="501" unicode="" /><glyph d="M117 0 358 645H31V700H417V647L185 0Z" glyph-name="seven.alt" horiz-adv-x="439" unicode="" /><glyph d="M266 712Q311 712 347.5 698Q384 684 409.5 659Q435 634 448.5 599Q462 564 462 521Q462 472 435 427Q408 382 358 360Q411 338 445 291.5Q479 245 479 185Q479 140 463 103.5Q447 67 419 41.5Q391 16 352 2Q313 -12 266 -12Q220 -12 180.5 2Q141 16 113 41.5Q85 67 69 103.5Q53 140 53 185Q53 245 87 291.5Q121 338 174 360Q124 382 97 427Q70 472 70 521Q70 564 83.5 599Q97 634 122.5 659Q148 684 184.5 698Q221 712 266 712ZM404 524Q404 551 395.5 576Q387 601 369.5 619.5Q352 638 326.5 649.5Q301 661 266 661Q232 661 205.5 649.5Q179 638 162 619.5Q145 601 136 576Q127 551 127 524Q127 497 136 472Q145 447 162 428.5Q179 410 205.5 398.5Q232 387 266 387Q301 387 326.5 398.5Q352 410 369.5 428.5Q387 447 395.5 472Q404 497 404 524ZM266 39Q304 39 332 51.5Q360 64 379 84Q398 104 407.5 130Q417 156 417 184Q417 212 407.5 239Q398 266 379 287Q360 308 332 320.5Q304 333 266 333Q229 333 200.5 320.5Q172 308 153 287Q134 266 124.5 239Q115 212 115 184Q115 156 124.5 130Q134 104 153 84Q172 64 200.5 51.5Q229 39 266 39Z" glyph-name="eight.alt" horiz-adv-x="532" unicode="" /><glyph d="M138 0 166 30Q189 54 215.5 86Q242 118 269 155.5Q296 193 321.5 235Q347 277 367 323L364 324Q337 296 302.5 282.5Q268 269 230 269Q192 269 156.5 282.5Q121 296 94 323.5Q67 351 51 393Q35 435 35 491Q35 541 50.5 582Q66 623 94 652Q122 681 160 696.5Q198 712 244 712Q290 712 328.5 696Q367 680 394.5 650Q422 620 437 577.5Q452 535 452 481Q452 414 433 350Q414 286 383 228Q352 170 314.5 118Q277 66 239 23L219 0ZM391 492Q391 526 382 556.5Q373 587 355 610Q337 633 309.5 646.5Q282 660 244 660Q207 660 179 646.5Q151 633 132.5 610Q114 587 105 556.5Q96 526 96 492Q96 458 105 427Q114 396 132.5 372.5Q151 349 179 335.5Q207 322 244 322Q282 322 309.5 335.5Q337 349 355 372.5Q373 396 382 427Q391 458 391 492Z" glyph-name="nine.alt" horiz-adv-x="501" unicode="" /><glyph d="M245 488Q288 488 324.5 472Q361 456 387 424.5Q413 393 428 346.5Q443 300 443 238Q443 176 428 129Q413 82 387 50.5Q361 19 324.5 3.5Q288 -12 245 -12Q202 -12 166 3.5Q130 19 103.5 50.5Q77 82 62 129Q47 176 47 238Q47 300 62 346.5Q77 393 103.5 424.5Q130 456 166 472Q202 488 245 488ZM110 238Q110 147 145 95.5Q180 44 245 44Q311 44 345.5 95.5Q380 147 380 238Q380 329 345.5 380.5Q311 432 245 432Q180 432 145 380.5Q110 329 110 238Z" glyph-name="zero.posf" horiz-adv-x="490" unicode="" /><glyph d="M50 475 222 475V54H329V0H51V54H160V421H50Z" glyph-name="one.posf" horiz-adv-x="358" unicode="" /><glyph d="M52 53 215 167Q244 187 268 206Q292 225 309.5 245Q327 265 337 287Q347 309 347 335Q347 378 315 406Q283 434 232 434Q175 434 145 405Q115 376 115 335Q115 305 132 274L73 263Q62 282 57.5 301.5Q53 321 53 339Q53 368 65.5 395Q78 422 101 442.5Q124 463 157.5 475.5Q191 488 234 488Q273 488 306 476Q339 464 362 443.5Q385 423 398 395Q411 367 411 335Q411 302 400.5 275.5Q390 249 370.5 225.5Q351 202 323.5 180.5Q296 159 261 135L144 54H417V0H52Z" glyph-name="two.posf" horiz-adv-x="467" unicode="" /><glyph d="M224 -155Q142 -155 91.5 -108.5Q41 -62 41 20V54H101V27Q101 -34 132 -69Q163 -104 223 -104Q283 -104 315.5 -64Q348 -24 348 39Q348 114 307 144.5Q266 175 200 175Q185 175 172.5 174.5Q160 174 152 173V218L340 421H62V475H406V419L225 224Q265 224 299 211Q333 198 357.5 174.5Q382 151 396 117.5Q410 84 410 41Q410 -50 359.5 -102.5Q309 -155 224 -155Z" glyph-name="three.posf" horiz-adv-x="456" unicode="" /><glyph d="M25 101 256 475H345V102H441V51H345V-144H285V51H25ZM85 102 285 102L282 422H281Z" glyph-name="four.posf" horiz-adv-x="468" unicode="" /><glyph d="M354 48Q354 81 346.5 109Q339 137 323.5 158Q308 179 284 190.5Q260 202 226 202Q189 202 166 191Q143 180 126 167L71 168V475H398V421H127V225Q147 237 174 245.5Q201 254 233 254Q279 254 313 239Q347 224 370 197Q393 170 404.5 133.5Q416 97 416 53Q416 6 402 -32.5Q388 -71 363 -98.5Q338 -126 303 -141Q268 -156 226 -156Q145 -156 95 -109Q45 -62 45 20V54H105V27Q105 -33 135.5 -69Q166 -105 226 -105Q287 -105 320 -62Q353 -19 354 48Z" glyph-name="five.posf" horiz-adv-x="458" unicode="" /><glyph d="M142 339Q167 362 197.5 372Q228 382 259 382Q293 382 326 370Q359 358 384.5 333.5Q410 309 425.5 271.5Q441 234 441 184Q441 139 426.5 103Q412 67 386 41.5Q360 16 324 2Q288 -12 246 -12Q203 -12 167.5 2.5Q132 17 106.5 43.5Q81 70 66.5 108Q52 146 52 193Q52 252 70 309Q88 366 116.5 418.5Q145 471 181 518Q217 565 252 602L266 617H343L315 588Q296 568 272.5 542Q249 516 225 484.5Q201 453 179 417Q157 381 140 341ZM113 183Q113 154 121 127.5Q129 101 145.5 81Q162 61 187 49.5Q212 38 246 38Q280 38 305 49.5Q330 61 347 81Q364 101 372.5 127.5Q381 154 381 183Q381 214 372.5 241Q364 268 347 288.5Q330 309 305 320.5Q280 332 246 332Q212 332 187 320.5Q162 309 145.5 288.5Q129 268 121 241Q113 214 113 183Z" glyph-name="six.posf" horiz-adv-x="479" unicode="" /><glyph d="M107 -144 329 421H27V475H389V424L174 -144Z" glyph-name="seven.posf" horiz-adv-x="417" unicode="" /><glyph d="M255 628Q294 628 327.5 615.5Q361 603 385.5 580.5Q410 558 424 527Q438 496 438 460Q438 415 411.5 375Q385 335 342 316Q390 299 421.5 257Q453 215 453 164Q453 124 438.5 91Q424 58 397.5 35.5Q371 13 335 0.5Q299 -12 255 -12Q212 -12 175.5 0.5Q139 13 112.5 35.5Q86 58 71.5 91Q57 124 57 164Q57 215 88.5 257Q120 299 168 316Q125 335 98.5 375Q72 415 72 460Q72 496 86 527Q100 558 124.5 580.5Q149 603 182.5 615.5Q216 628 255 628ZM255 340Q285 340 308.5 349.5Q332 359 347.5 375.5Q363 392 371.5 414Q380 436 380 460Q380 508 348 543Q316 578 255 578Q194 578 162 543Q130 508 130 460Q130 436 138.5 414Q147 392 162.5 375.5Q178 359 201.5 349.5Q225 340 255 340ZM255 38Q289 38 314.5 48.5Q340 59 357.5 76.5Q375 94 383.5 117Q392 140 392 164Q392 188 383.5 210.5Q375 233 357.5 250.5Q340 268 314.5 279Q289 290 255 290Q221 290 195.5 279Q170 268 152.5 250.5Q135 233 126.5 210.5Q118 188 118 164Q118 140 126.5 117Q135 94 152.5 76.5Q170 59 195.5 48.5Q221 38 255 38Z" glyph-name="eight.posf" horiz-adv-x="510" unicode="" /><glyph d="M329 137Q304 114 273.5 104Q243 94 212 94Q178 94 145 106Q112 118 86.5 142.5Q61 167 45.5 204.5Q30 242 30 292Q30 337 44.5 373Q59 409 85 434.5Q111 460 147 474Q183 488 225 488Q268 488 303.5 473.5Q339 459 364.5 432.5Q390 406 404.5 368Q419 330 419 283Q419 225 401 167.5Q383 110 354.5 57.5Q326 5 290 -42Q254 -89 219 -126L205 -141H128L156 -112Q175 -92 198.5 -66Q222 -40 246 -8.5Q270 23 292 59Q314 95 331 135ZM358 293Q358 322 350 348.5Q342 375 325.5 395Q309 415 284 426.5Q259 438 225 438Q191 438 166 426.5Q141 415 124 395Q107 375 98.5 348.5Q90 322 90 293Q90 262 98.5 235Q107 208 124 188Q141 168 166 156Q191 144 225 144Q259 144 284 156Q309 168 325.5 188Q342 208 350 235Q358 262 358 293Z" glyph-name="nine.posf" horiz-adv-x="458" unicode="" /><glyph d="M215 843Q277 843 309.5 792.5Q342 742 342 637Q342 531 309.5 480.5Q277 430 215 430Q153 430 120 480.5Q87 531 87 637Q87 742 120 792.5Q153 843 215 843ZM148 637Q148 559 164 520Q180 481 215 481Q283 481 283 637Q283 793 215 793Q180 793 164 754Q148 715 148 637Z" glyph-name="zero.sups" horiz-adv-x="430" unicode="" /><glyph d="M117 836 253 836V486H330V437H115V486H193V786H117Z" glyph-name="one.sups" horiz-adv-x="430" unicode="" /><glyph d="M92 487Q108 502 127 521Q143 537 163 557.5Q183 578 206 602Q246 645 261 672.5Q276 700 276 729Q276 755 259.5 774Q243 793 211 793Q183 793 165 777.5Q147 762 147 735Q147 725 149.5 714Q152 703 159 689L104 677Q96 693 92 707.5Q88 722 88 737Q88 758 96.5 777Q105 796 121 811Q137 826 160 834.5Q183 843 212 843Q269 843 302 810.5Q335 778 335 731Q335 714 331 696.5Q327 679 316 659Q305 639 285.5 614.5Q266 590 235 559L165 488H343V437H92Z" glyph-name="two.sups" horiz-adv-x="430" unicode="" /><glyph d="M209 430Q152 430 118 462Q84 494 84 548V567H144V551Q144 522 160 500.5Q176 479 208 479Q242 479 258.5 501.5Q275 524 275 559Q275 592 255 613.5Q235 635 198 635Q189 635 176.5 634Q164 633 158 631V679L263 786H103V836H326V781L221 677Q270 677 302.5 644.5Q335 612 335 562Q335 502 301.5 466Q268 430 209 430Z" glyph-name="three.sups" horiz-adv-x="430" unicode="" /><glyph d="M72 602 209 838H292V602H350V554H292V439H234V554H72ZM125 602 234 602V786H232Z" glyph-name="four.sups" horiz-adv-x="430" unicode="" /><glyph d="M342 567Q342 506 308.5 468Q275 430 215 430Q158 430 124 462Q90 494 90 548V567H150V551Q150 522 166 500.5Q182 479 214 479Q249 479 265.5 503Q282 527 282 563Q282 600 265.5 624Q249 648 214 648Q195 648 182 641Q169 634 161 624L110 627V836H329V784H163V680H164Q175 688 189.5 693Q204 698 223 698Q279 698 310.5 661Q342 624 342 567Z" glyph-name="five.sups" horiz-adv-x="430" unicode="" /><glyph d="M309 836 302 829Q292 819 275 802Q258 785 239 763Q220 741 200.5 715.5Q181 690 165 662L166 661Q172 668 188.5 676.5Q205 685 230 685Q253 685 274 677.5Q295 670 311 654Q327 638 337 614.5Q347 591 347 559Q347 500 311.5 465Q276 430 219 430Q160 430 124.5 466.5Q89 503 89 566Q89 608 102.5 646Q116 684 135.5 717Q155 750 178 777Q201 804 219 823L231 836ZM148 558Q148 526 165.5 502.5Q183 479 218 479Q253 479 270.5 502.5Q288 526 288 558Q288 590 270.5 614Q253 638 218 638Q183 638 165.5 614Q148 590 148 558Z" glyph-name="six.sups" horiz-adv-x="430" unicode="" /><glyph d="M130 437 269 784H89V836H327V786L195 437Z" glyph-name="seven.sups" horiz-adv-x="430" unicode="" /><glyph d="M215 478Q250 478 268 499Q286 520 286 547Q286 574 268 595.5Q250 617 215 617Q180 617 162 595.5Q144 574 144 547Q144 520 162 499Q180 478 215 478ZM215 843Q271 843 304 812.5Q337 782 337 731Q337 704 321.5 679.5Q306 655 280 643Q308 632 326.5 605.5Q345 579 345 547Q345 493 308.5 461.5Q272 430 215 430Q158 430 121.5 461.5Q85 493 85 547Q85 579 103.5 605.5Q122 632 151 643Q124 655 108.5 679.5Q93 704 93 731Q93 782 126 812.5Q159 843 215 843ZM215 665Q249 665 263.5 684Q278 703 278 729Q278 756 263.5 775Q249 794 215 794Q182 794 167 775Q152 756 152 729Q152 703 167 684Q182 665 215 665Z" glyph-name="eight.sups" horiz-adv-x="430" unicode="" /><glyph d="M121 437 128 444Q139 455 155.5 472Q172 489 191.5 510.5Q211 532 230.5 557.5Q250 583 266 611L264 612Q259 605 242 596.5Q225 588 200 588Q178 588 156.5 595.5Q135 603 119 619Q103 635 93 658.5Q83 682 83 714Q83 773 118.5 808Q154 843 211 843Q270 843 305.5 806.5Q341 770 341 707Q341 665 327.5 627Q314 589 294.5 556Q275 523 252.5 496Q230 469 212 450L199 437ZM282 715Q282 747 264.5 770.5Q247 794 212 794Q177 794 159.5 770.5Q142 747 142 715Q142 683 159.5 659Q177 635 212 635Q247 635 264.5 659Q282 683 282 715Z" glyph-name="nine.sups" horiz-adv-x="430" unicode="" /><glyph d="M215 244Q277 244 309.5 193.5Q342 143 342 38Q342 -68 309.5 -118.5Q277 -169 215 -169Q153 -169 120 -118.5Q87 -68 87 38Q87 143 120 193.5Q153 244 215 244ZM148 38Q148 -40 164 -79Q180 -118 215 -118Q283 -118 283 38Q283 194 215 194Q180 194 164 155Q148 116 148 38Z" glyph-name="zero.sinf" horiz-adv-x="430" unicode="" /><glyph d="M117 237 253 237V-113H330V-162H115V-113H193V187H117Z" glyph-name="one.sinf" horiz-adv-x="430" unicode="" /><glyph d="M92 -112Q108 -97 127 -79Q143 -62 163 -41.5Q183 -21 206 3Q246 46 261 73.5Q276 101 276 130Q276 156 259.5 175Q243 194 211 194Q183 194 165 178.5Q147 163 147 136Q147 126 149.5 115Q152 104 159 90L104 78Q96 94 92 108.5Q88 123 88 138Q88 159 96.5 178Q105 197 121 212Q137 227 160 235.5Q183 244 212 244Q269 244 302 211.5Q335 179 335 132Q335 115 331 97.5Q327 80 316 60Q305 40 285.5 15.5Q266 -9 235 -40L165 -111H343V-162H92Z" glyph-name="two.sinf" horiz-adv-x="430" unicode="" /><glyph d="M210 -169Q153 -169 119 -137Q85 -105 85 -51V-32H145V-48Q145 -77 161 -98.5Q177 -120 209 -120Q243 -120 259.5 -97.5Q276 -75 276 -40Q276 -7 256 14.5Q236 36 199 36Q190 36 177.5 35Q165 34 159 32V80L264 187H104V237H327V182L222 78Q271 78 303.5 45.5Q336 13 336 -37Q336 -97 302.5 -133Q269 -169 210 -169Z" glyph-name="three.sinf" horiz-adv-x="430" unicode="" /><glyph d="M73 3 210 239H293V3H351V-45H293V-160H235V-45H73ZM126 3 235 3V187H233Z" glyph-name="four.sinf" horiz-adv-x="430" unicode="" /><glyph d="M342 -32Q342 -93 308.5 -131Q275 -169 215 -169Q158 -169 124 -137Q90 -105 90 -51V-32H150V-48Q150 -77 166 -98.5Q182 -120 214 -120Q249 -120 265.5 -96Q282 -72 282 -36Q282 1 265.5 25Q249 49 214 49Q195 49 182 42Q169 35 161 25L110 28V237H329V185H163V81H164Q175 89 189.5 94Q204 99 223 99Q279 99 310.5 62Q342 25 342 -32Z" glyph-name="five.sinf" horiz-adv-x="430" unicode="" /><glyph d="M309 237 302 230Q292 220 275 203Q258 186 239 164Q220 142 200.5 116.5Q181 91 165 63L166 62Q172 69 188.5 77.5Q205 86 230 86Q253 86 274 78.5Q295 71 311 55Q327 39 337 15.5Q347 -8 347 -40Q347 -99 311.5 -134Q276 -169 219 -169Q160 -169 124.5 -132.5Q89 -96 89 -33Q89 9 102.5 47Q116 85 135.5 118Q155 151 178 178Q201 205 219 224L231 237ZM148 -41Q148 -73 165.5 -96.5Q183 -120 218 -120Q253 -120 270.5 -96.5Q288 -73 288 -41Q288 -9 270.5 15Q253 39 218 39Q183 39 165.5 15Q148 -9 148 -41Z" glyph-name="six.sinf" horiz-adv-x="430" unicode="" /><glyph d="M129 -162 268 185H88V237H326V187L194 -162Z" glyph-name="seven.sinf" horiz-adv-x="430" unicode="" /><glyph d="M215 -121Q250 -121 268 -100Q286 -79 286 -52Q286 -25 268 -3.5Q250 18 215 18Q180 18 162 -3.5Q144 -25 144 -52Q144 -79 162 -100Q180 -121 215 -121ZM215 244Q271 244 304 213.5Q337 183 337 132Q337 105 321.5 80.5Q306 56 280 44Q308 33 326.5 6.5Q345 -20 345 -52Q345 -106 308.5 -137.5Q272 -169 215 -169Q158 -169 121.5 -137.5Q85 -106 85 -52Q85 -20 103.5 6.5Q122 33 151 44Q124 56 108.5 80.5Q93 105 93 132Q93 183 126 213.5Q159 244 215 244ZM215 66Q249 66 263.5 85Q278 104 278 130Q278 157 263.5 176Q249 195 215 195Q182 195 167 176Q152 157 152 130Q152 104 167 85Q182 66 215 66Z" glyph-name="eight.sinf" horiz-adv-x="430" unicode="" /><glyph d="M120 -162 127 -155Q138 -145 154.5 -128Q171 -111 190.5 -89Q210 -67 229.5 -41.5Q249 -16 265 12L263 13Q258 6 241 -2.5Q224 -11 199 -11Q177 -11 155.5 -3.5Q134 4 118 20Q102 36 92 59.5Q82 83 82 115Q82 174 117.5 209Q153 244 210 244Q269 244 304.5 207.5Q340 171 340 108Q340 66 326.5 28Q313 -10 293.5 -43Q274 -76 251.5 -103Q229 -130 211 -149L198 -162ZM281 116Q281 148 263.5 171.5Q246 195 211 195Q176 195 158.5 171.5Q141 148 141 116Q141 84 158.5 60Q176 36 211 36Q246 36 263.5 60Q281 84 281 116Z" glyph-name="nine.sinf" horiz-adv-x="430" unicode="" /><glyph d="M117 700 253 700V350H330V301H115V350H193V650H117ZM991 130Q991 69 957.5 31Q924 -7 864 -7Q807 -7 773 25Q739 57 739 111V130H799V114Q799 85 815 63.5Q831 42 863 42Q898 42 914.5 66Q931 90 931 126Q931 163 914.5 187Q898 211 863 211Q844 211 831 204Q818 197 810 187L759 190V399H978V347H812V243H813Q824 251 838.5 256Q853 261 872 261Q928 261 959.5 224Q991 187 991 130ZM897 705 224 -18L187 15L860 738Z" glyph-name="onefifth" horiz-adv-x="1080" unicode="" /><glyph d="M100 351Q116 366 135 385Q151 401 171 421.5Q191 442 214 466Q254 509 269 536.5Q284 564 284 593Q284 619 267.5 638Q251 657 219 657Q191 657 173 641.5Q155 626 155 599Q155 589 157.5 578Q160 567 167 553L112 541Q104 557 100 571.5Q96 586 96 601Q96 622 104.5 641Q113 660 129 675Q145 690 168 698.5Q191 707 220 707Q277 707 310 674.5Q343 642 343 595Q343 578 339 560.5Q335 543 324 523Q313 503 293.5 478.5Q274 454 243 423L173 352H351V301H100ZM991 130Q991 69 957.5 31Q924 -7 864 -7Q807 -7 773 25Q739 57 739 111V130H799V114Q799 85 815 63.5Q831 42 863 42Q898 42 914.5 66Q931 90 931 126Q931 163 914.5 187Q898 211 863 211Q844 211 831 204Q818 197 810 187L759 190V399H978V347H812V243H813Q824 251 838.5 256Q853 261 872 261Q928 261 959.5 224Q991 187 991 130ZM897 705 224 -18L187 15L860 738Z" glyph-name="twofifths" horiz-adv-x="1080" unicode="" /></font>
</defs>
</svg>
